  0
SECTION
  2
HEADER
  9
$ANGBASE
  50
0.0
  9
$ANGDIR
  70
1
  9
$MEASUREMENT
  70
1
  0
ENDSEC
  0
SECTION
  2
TABLES
  0
TABLE
  2
LTYPE
  70
4
  0
LTYPE
  5
40F
  2
CONTINUOUS
  70
0
  3
Solid line
  72
65
  73
0
  40
0.0
  0
LTYPE
  5
410
  2
DASHDOT
 70
0
  3
Dash Dot ____ _ ____ _
 72
65
 73
4
 40
2.0
 49
1.25
 49
-0.25
 49
0.25
 49
-0.25
  0
LTYPE
  5
411
  2
DASHED
 70
0
  3
Dashed __ __ __ __ __
 72
65
 73
2
 40
0.75
 49
0.5
 49
-0.25
  0
LTYPE
  5
43B
  2
DOTTED
 70
0
  3
Dotted .  .  .  .
 72
65
 73
2
 40
0.2
 49
0.0
 49
-0.2
  0
ENDTAB
  0
TABLE
  2
STYLE
  70
4
  0
STYLE
  2
KICAD
  70
0
  40
0
  41
1
  42
1
  50
0
  71
0
  3
isocp.shx
  0
STYLE
  2
KICADB
  70
0
  40
0
  41
1
  42
1
  50
0
  71
0
  3
isocp.shx
  0
STYLE
  2
KICADI
  70
0
  40
0
  41
1
  42
1
  50
15
  71
0
  3
isocp.shx
  0
STYLE
  2
KICADBI
  70
0
  40
0
  41
1
  42
1
  50
15
  71
0
  3
isocp.shx
  0
ENDTAB
  0
TABLE
  2
LAYER
  70
1
  0
LAYER
  2
BLACK
  70
0
  62
7
  6
CONTINUOUS
  0
ENDTAB
  0
ENDSEC
  0
SECTION
  2
ENTITIES
0
LINE
8
BLACK
6
CONTINUOUS
10
50.5285
20
-65.8123
11
50.5822
21
-65.7658
0
LINE
8
BLACK
6
CONTINUOUS
10
50.5822
20
-65.7658
11
50.6524
21
-65.7557
0
LINE
8
BLACK
6
CONTINUOUS
10
50.6524
20
-65.7557
11
50.7216
21
-65.7894
0
LINE
8
BLACK
6
CONTINUOUS
10
50.7216
20
-65.7894
11
50.8055
21
-65.8697
0
LINE
8
BLACK
6
CONTINUOUS
10
50.8055
20
-65.8697
11
50.8055
21
-65.8697
0
LINE
8
BLACK
6
CONTINUOUS
10
50.8055
20
-65.8697
11
50.8098
21
-65.8739
0
LINE
8
BLACK
6
CONTINUOUS
10
50.8098
20
-65.8739
11
50.9875
21
-65.9886
0
LINE
8
BLACK
6
CONTINUOUS
10
50.9875
20
-65.9886
11
50.9931
21
-65.9909
0
LINE
8
BLACK
6
CONTINUOUS
10
50.9931
20
-65.9909
11
51.1782
21
-66.0654
0
LINE
8
BLACK
6
CONTINUOUS
10
51.1782
20
-66.0654
11
51.1782
21
-66.0654
0
LINE
8
BLACK
6
CONTINUOUS
10
51.1782
20
-66.0654
11
51.1837
21
-66.0677
0
LINE
8
BLACK
6
CONTINUOUS
10
51.1837
20
-66.0677
11
51.3913
21
-66.1082
0
LINE
8
BLACK
6
CONTINUOUS
10
51.3913
20
-66.1082
11
51.3969
21
-66.1085
0
LINE
8
BLACK
6
CONTINUOUS
10
51.3969
20
-66.1085
11
51.5528
21
-66.1085
0
LINE
8
BLACK
6
CONTINUOUS
10
51.5528
20
-66.1085
11
51.7106
21
-66.0935
0
LINE
8
BLACK
6
CONTINUOUS
10
51.7106
20
-66.0935
11
51.9135
21
-66.0339
0
LINE
8
BLACK
6
CONTINUOUS
10
51.9135
20
-66.0339
11
51.9971
21
-65.9909
0
LINE
8
BLACK
6
CONTINUOUS
10
51.9971
20
-65.9909
11
52.0962
21
-65.9398
0
LINE
8
BLACK
6
CONTINUOUS
10
52.0962
20
-65.9398
11
52.0963
21
-65.9398
0
LINE
8
BLACK
6
CONTINUOUS
10
52.0963
20
-65.9398
11
52.1016
21
-65.9371
0
LINE
8
BLACK
6
CONTINUOUS
10
52.1016
20
-65.9371
11
52.2679
21
-65.8064
0
LINE
8
BLACK
6
CONTINUOUS
10
52.2679
20
-65.8064
11
52.2719
21
-65.8019
0
LINE
8
BLACK
6
CONTINUOUS
10
52.2719
20
-65.8019
11
52.2719
21
-65.8019
0
LINE
8
BLACK
6
CONTINUOUS
10
52.2719
20
-65.8019
11
52.4026
21
-65.6512
0
LINE
8
BLACK
6
CONTINUOUS
10
52.4026
20
-65.6512
11
52.4066
21
-65.6466
0
LINE
8
BLACK
6
CONTINUOUS
10
52.4066
20
-65.6466
11
52.4096
21
-65.6415
0
LINE
8
BLACK
6
CONTINUOUS
10
52.4096
20
-65.6415
11
52.4096
21
-65.6414
0
LINE
8
BLACK
6
CONTINUOUS
10
52.4096
20
-65.6414
11
52.5095
21
-65.4687
0
LINE
8
BLACK
6
CONTINUOUS
10
52.5095
20
-65.4687
11
52.5125
21
-65.4635
0
LINE
8
BLACK
6
CONTINUOUS
10
52.5125
20
-65.4635
11
52.5819
21
-65.2637
0
LINE
8
BLACK
6
CONTINUOUS
10
52.5819
20
-65.2637
11
52.5845
21
-65.2454
0
LINE
8
BLACK
6
CONTINUOUS
10
52.5845
20
-65.2454
11
52.6114
21
-65.0603
0
LINE
8
BLACK
6
CONTINUOUS
10
52.6114
20
-65.0603
11
52.6114
21
-65.0603
0
LINE
8
BLACK
6
CONTINUOUS
10
52.6114
20
-65.0603
11
52.6122
21
-65.0544
0
LINE
8
BLACK
6
CONTINUOUS
10
52.6122
20
-65.0544
11
52.6072
21
-64.9456
0
LINE
8
BLACK
6
CONTINUOUS
10
52.6072
20
-64.9456
11
52.6024
21
-64.8431
0
LINE
8
BLACK
6
CONTINUOUS
10
52.6024
20
-64.8431
11
52.5529
21
-64.6375
0
LINE
8
BLACK
6
CONTINUOUS
10
52.5529
20
-64.6375
11
52.5315
21
-64.5905
0
LINE
8
BLACK
6
CONTINUOUS
10
52.5315
20
-64.5905
11
52.4678
21
-64.4504
0
LINE
8
BLACK
6
CONTINUOUS
10
52.4678
20
-64.4504
11
52.4653
21
-64.4449
0
LINE
8
BLACK
6
CONTINUOUS
10
52.4653
20
-64.4449
11
52.3429
21
-64.2724
0
LINE
8
BLACK
6
CONTINUOUS
10
52.3429
20
-64.2724
11
52.1901
21
-64.1261
0
LINE
8
BLACK
6
CONTINUOUS
10
52.1901
20
-64.1261
11
52.0125
21
-64.0114
0
LINE
8
BLACK
6
CONTINUOUS
10
52.0125
20
-64.0114
11
51.9524
21
-63.9872
0
LINE
8
BLACK
6
CONTINUOUS
10
51.9524
20
-63.9872
11
51.8218
21
-63.9346
0
LINE
8
BLACK
6
CONTINUOUS
10
51.8218
20
-63.9346
11
51.8218
21
-63.9346
0
LINE
8
BLACK
6
CONTINUOUS
10
51.8218
20
-63.9346
11
51.8163
21
-63.9323
0
LINE
8
BLACK
6
CONTINUOUS
10
51.8163
20
-63.9323
11
51.6087
21
-63.8918
0
LINE
8
BLACK
6
CONTINUOUS
10
51.6087
20
-63.8918
11
51.6031
21
-63.8915
0
LINE
8
BLACK
6
CONTINUOUS
10
51.6031
20
-63.8915
11
51.4472
21
-63.8915
0
LINE
8
BLACK
6
CONTINUOUS
10
51.4472
20
-63.8915
11
51.2894
21
-63.9065
0
LINE
8
BLACK
6
CONTINUOUS
10
51.2894
20
-63.9065
11
51.0865
21
-63.9661
0
LINE
8
BLACK
6
CONTINUOUS
10
51.0865
20
-63.9661
11
51.0811
21
-63.9688
0
LINE
8
BLACK
6
CONTINUOUS
10
51.0811
20
-63.9688
11
51.0811
21
-63.9688
0
LINE
8
BLACK
6
CONTINUOUS
10
51.0811
20
-63.9688
11
50.9038
21
-64.0602
0
LINE
8
BLACK
6
CONTINUOUS
10
50.9038
20
-64.0602
11
50.9037
21
-64.0602
0
LINE
8
BLACK
6
CONTINUOUS
10
50.9037
20
-64.0602
11
50.8984
21
-64.0629
0
LINE
8
BLACK
6
CONTINUOUS
10
50.8984
20
-64.0629
11
50.7321
21
-64.1936
0
LINE
8
BLACK
6
CONTINUOUS
10
50.7321
20
-64.1936
11
50.7281
21
-64.1981
0
LINE
8
BLACK
6
CONTINUOUS
10
50.7281
20
-64.1981
11
50.7238
21
-64.2023
0
LINE
8
BLACK
6
CONTINUOUS
10
50.7238
20
-64.2023
11
50.7226
21
-64.2009
0
LINE
8
BLACK
6
CONTINUOUS
10
50.7226
20
-64.2009
11
50.6699
21
-64.2347
0
LINE
8
BLACK
6
CONTINUOUS
10
50.6699
20
-64.2347
11
50.5989
21
-64.2347
0
LINE
8
BLACK
6
CONTINUOUS
10
50.5989
20
-64.2347
11
50.5392
21
-64.1963
0
LINE
8
BLACK
6
CONTINUOUS
10
50.5392
20
-64.1963
11
50.5098
21
-64.1316
0
LINE
8
BLACK
6
CONTINUOUS
10
50.5098
20
-64.1316
11
50.5085
21
-64.1138
0
LINE
8
BLACK
6
CONTINUOUS
10
50.5085
20
-64.1138
11
50.5085
21
-55.8804
0
LINE
8
BLACK
6
CONTINUOUS
10
50.5085
20
-55.8804
11
50.5285
21
-55.8123
0
LINE
8
BLACK
6
CONTINUOUS
10
50.5285
20
-55.8123
11
50.5822
21
-55.7658
0
LINE
8
BLACK
6
CONTINUOUS
10
50.5822
20
-55.7658
11
50.6524
21
-55.7557
0
LINE
8
BLACK
6
CONTINUOUS
10
50.6524
20
-55.7557
11
50.7216
21
-55.7894
0
LINE
8
BLACK
6
CONTINUOUS
10
50.7216
20
-55.7894
11
50.8055
21
-55.8697
0
LINE
8
BLACK
6
CONTINUOUS
10
50.8055
20
-55.8697
11
50.8055
21
-55.8697
0
LINE
8
BLACK
6
CONTINUOUS
10
50.8055
20
-55.8697
11
50.8098
21
-55.8739
0
LINE
8
BLACK
6
CONTINUOUS
10
50.8098
20
-55.8739
11
50.9875
21
-55.9886
0
LINE
8
BLACK
6
CONTINUOUS
10
50.9875
20
-55.9886
11
50.9931
21
-55.9909
0
LINE
8
BLACK
6
CONTINUOUS
10
50.9931
20
-55.9909
11
51.1782
21
-56.0654
0
LINE
8
BLACK
6
CONTINUOUS
10
51.1782
20
-56.0654
11
51.1782
21
-56.0654
0
LINE
8
BLACK
6
CONTINUOUS
10
51.1782
20
-56.0654
11
51.1837
21
-56.0677
0
LINE
8
BLACK
6
CONTINUOUS
10
51.1837
20
-56.0677
11
51.3913
21
-56.1082
0
LINE
8
BLACK
6
CONTINUOUS
10
51.3913
20
-56.1082
11
51.3969
21
-56.1085
0
LINE
8
BLACK
6
CONTINUOUS
10
51.3969
20
-56.1085
11
51.5528
21
-56.1085
0
LINE
8
BLACK
6
CONTINUOUS
10
51.5528
20
-56.1085
11
51.7106
21
-56.0935
0
LINE
8
BLACK
6
CONTINUOUS
10
51.7106
20
-56.0935
11
51.9135
21
-56.0339
0
LINE
8
BLACK
6
CONTINUOUS
10
51.9135
20
-56.0339
11
51.9596
21
-56.0102
0
LINE
8
BLACK
6
CONTINUOUS
10
51.9596
20
-56.0102
11
52.0962
21
-55.9398
0
LINE
8
BLACK
6
CONTINUOUS
10
52.0962
20
-55.9398
11
52.0963
21
-55.9398
0
LINE
8
BLACK
6
CONTINUOUS
10
52.0963
20
-55.9398
11
52.1016
21
-55.9371
0
LINE
8
BLACK
6
CONTINUOUS
10
52.1016
20
-55.9371
11
52.2679
21
-55.8064
0
LINE
8
BLACK
6
CONTINUOUS
10
52.2679
20
-55.8064
11
52.2719
21
-55.8019
0
LINE
8
BLACK
6
CONTINUOUS
10
52.2719
20
-55.8019
11
52.2719
21
-55.8019
0
LINE
8
BLACK
6
CONTINUOUS
10
52.2719
20
-55.8019
11
52.4026
21
-55.6512
0
LINE
8
BLACK
6
CONTINUOUS
10
52.4026
20
-55.6512
11
52.4066
21
-55.6466
0
LINE
8
BLACK
6
CONTINUOUS
10
52.4066
20
-55.6466
11
52.4096
21
-55.6415
0
LINE
8
BLACK
6
CONTINUOUS
10
52.4096
20
-55.6415
11
52.4096
21
-55.6414
0
LINE
8
BLACK
6
CONTINUOUS
10
52.4096
20
-55.6414
11
52.5095
21
-55.4687
0
LINE
8
BLACK
6
CONTINUOUS
10
52.5095
20
-55.4687
11
52.5125
21
-55.4635
0
LINE
8
BLACK
6
CONTINUOUS
10
52.5125
20
-55.4635
11
52.5819
21
-55.2637
0
LINE
8
BLACK
6
CONTINUOUS
10
52.5819
20
-55.2637
11
52.5896
21
-55.2102
0
LINE
8
BLACK
6
CONTINUOUS
10
52.5896
20
-55.2102
11
52.6114
21
-55.0603
0
LINE
8
BLACK
6
CONTINUOUS
10
52.6114
20
-55.0603
11
52.6114
21
-55.0603
0
LINE
8
BLACK
6
CONTINUOUS
10
52.6114
20
-55.0603
11
52.6122
21
-55.0544
0
LINE
8
BLACK
6
CONTINUOUS
10
52.6122
20
-55.0544
11
52.6072
21
-54.9456
0
LINE
8
BLACK
6
CONTINUOUS
10
52.6072
20
-54.9456
11
52.6024
21
-54.8431
0
LINE
8
BLACK
6
CONTINUOUS
10
52.6024
20
-54.8431
11
52.5664
21
-54.6938
0
LINE
8
BLACK
6
CONTINUOUS
10
52.5664
20
-54.6938
11
52.5543
21
-54.6433
0
LINE
8
BLACK
6
CONTINUOUS
10
52.5543
20
-54.6433
11
52.5543
21
-54.6433
0
LINE
8
BLACK
6
CONTINUOUS
10
52.5543
20
-54.6433
11
52.5529
21
-54.6375
0
LINE
8
BLACK
6
CONTINUOUS
10
52.5529
20
-54.6375
11
52.5289
21
-54.5848
0
LINE
8
BLACK
6
CONTINUOUS
10
52.5289
20
-54.5848
11
52.4833
21
-54.4844
0
LINE
8
BLACK
6
CONTINUOUS
10
52.4833
20
-54.4844
11
52.4653
21
-54.4449
0
LINE
8
BLACK
6
CONTINUOUS
10
52.4653
20
-54.4449
11
52.3429
21
-54.2724
0
LINE
8
BLACK
6
CONTINUOUS
10
52.3429
20
-54.2724
11
52.1901
21
-54.1261
0
LINE
8
BLACK
6
CONTINUOUS
10
52.1901
20
-54.1261
11
52.0125
21
-54.0114
0
LINE
8
BLACK
6
CONTINUOUS
10
52.0125
20
-54.0114
11
51.9157
21
-53.9724
0
LINE
8
BLACK
6
CONTINUOUS
10
51.9157
20
-53.9724
11
51.8218
21
-53.9346
0
LINE
8
BLACK
6
CONTINUOUS
10
51.8218
20
-53.9346
11
51.8218
21
-53.9346
0
LINE
8
BLACK
6
CONTINUOUS
10
51.8218
20
-53.9346
11
51.8163
21
-53.9323
0
LINE
8
BLACK
6
CONTINUOUS
10
51.8163
20
-53.9323
11
51.6087
21
-53.8918
0
LINE
8
BLACK
6
CONTINUOUS
10
51.6087
20
-53.8918
11
51.6031
21
-53.8915
0
LINE
8
BLACK
6
CONTINUOUS
10
51.6031
20
-53.8915
11
51.4472
21
-53.8915
0
LINE
8
BLACK
6
CONTINUOUS
10
51.4472
20
-53.8915
11
51.2894
21
-53.9065
0
LINE
8
BLACK
6
CONTINUOUS
10
51.2894
20
-53.9065
11
51.0865
21
-53.9661
0
LINE
8
BLACK
6
CONTINUOUS
10
51.0865
20
-53.9661
11
51.0811
21
-53.9688
0
LINE
8
BLACK
6
CONTINUOUS
10
51.0811
20
-53.9688
11
51.0811
21
-53.9688
0
LINE
8
BLACK
6
CONTINUOUS
10
51.0811
20
-53.9688
11
50.9038
21
-54.0602
0
LINE
8
BLACK
6
CONTINUOUS
10
50.9038
20
-54.0602
11
50.9037
21
-54.0602
0
LINE
8
BLACK
6
CONTINUOUS
10
50.9037
20
-54.0602
11
50.8984
21
-54.0629
0
LINE
8
BLACK
6
CONTINUOUS
10
50.8984
20
-54.0629
11
50.7321
21
-54.1936
0
LINE
8
BLACK
6
CONTINUOUS
10
50.7321
20
-54.1936
11
50.7281
21
-54.1981
0
LINE
8
BLACK
6
CONTINUOUS
10
50.7281
20
-54.1981
11
50.7238
21
-54.2023
0
LINE
8
BLACK
6
CONTINUOUS
10
50.7238
20
-54.2023
11
50.7226
21
-54.2009
0
LINE
8
BLACK
6
CONTINUOUS
10
50.7226
20
-54.2009
11
50.6699
21
-54.2347
0
LINE
8
BLACK
6
CONTINUOUS
10
50.6699
20
-54.2347
11
50.5989
21
-54.2347
0
LINE
8
BLACK
6
CONTINUOUS
10
50.5989
20
-54.2347
11
50.5392
21
-54.1963
0
LINE
8
BLACK
6
CONTINUOUS
10
50.5392
20
-54.1963
11
50.5098
21
-54.1316
0
LINE
8
BLACK
6
CONTINUOUS
10
50.5098
20
-54.1316
11
50.5085
21
-54.1138
0
LINE
8
BLACK
6
CONTINUOUS
10
50.5085
20
-54.1138
11
50.5085
21
-50.6345
0
LINE
8
BLACK
6
CONTINUOUS
10
50.5085
20
-50.6345
11
50.5285
21
-50.5664
0
LINE
8
BLACK
6
CONTINUOUS
10
50.5285
20
-50.5664
11
50.5822
21
-50.5199
0
LINE
8
BLACK
6
CONTINUOUS
10
50.5822
20
-50.5199
11
50.6345
21
-50.5085
0
LINE
8
BLACK
6
CONTINUOUS
10
50.6345
20
-50.5085
11
69.3655
21
-50.5085
0
LINE
8
BLACK
6
CONTINUOUS
10
69.3655
20
-50.5085
11
69.4336
21
-50.5285
0
LINE
8
BLACK
6
CONTINUOUS
10
69.4336
20
-50.5285
11
69.4801
21
-50.5822
0
LINE
8
BLACK
6
CONTINUOUS
10
69.4801
20
-50.5822
11
69.4915
21
-50.6345
0
LINE
8
BLACK
6
CONTINUOUS
10
69.4915
20
-50.6345
11
69.4915
21
-69.3655
0
LINE
8
BLACK
6
CONTINUOUS
10
69.4915
20
-69.3655
11
69.4715
21
-69.4336
0
LINE
8
BLACK
6
CONTINUOUS
10
69.4715
20
-69.4336
11
69.4178
21
-69.4801
0
LINE
8
BLACK
6
CONTINUOUS
10
69.4178
20
-69.4801
11
69.3655
21
-69.4915
0
LINE
8
BLACK
6
CONTINUOUS
10
69.3655
20
-69.4915
11
50.6345
21
-69.4915
0
LINE
8
BLACK
6
CONTINUOUS
10
50.6345
20
-69.4915
11
50.5664
21
-69.4715
0
LINE
8
BLACK
6
CONTINUOUS
10
50.5664
20
-69.4715
11
50.5199
21
-69.4178
0
LINE
8
BLACK
6
CONTINUOUS
10
50.5199
20
-69.4178
11
50.5085
21
-69.3655
0
LINE
8
BLACK
6
CONTINUOUS
10
50.5085
20
-69.3655
11
50.5085
21
-65.8804
0
LINE
8
BLACK
6
CONTINUOUS
10
50.5085
20
-65.8804
11
50.5285
21
-65.8123
0
LINE
8
BLACK
6
CONTINUOUS
10
65.2374
20
-54.8085
11
65.2394
21
-54.85
0
LINE
8
BLACK
6
CONTINUOUS
10
65.2394
20
-54.85
11
65.2497
21
-55.0649
0
LINE
8
BLACK
6
CONTINUOUS
10
65.2497
20
-55.0649
11
65.3007
21
-55.3213
0
LINE
8
BLACK
6
CONTINUOUS
10
65.3007
20
-55.3213
11
65.389
21
-55.5673
0
LINE
8
BLACK
6
CONTINUOUS
10
65.389
20
-55.5673
11
65.3912
21
-55.5714
0
LINE
8
BLACK
6
CONTINUOUS
10
65.3912
20
-55.5714
11
65.5084
21
-55.7894
0
LINE
8
BLACK
6
CONTINUOUS
10
65.5084
20
-55.7894
11
65.5127
21
-55.7975
0
LINE
8
BLACK
6
CONTINUOUS
10
65.5127
20
-55.7975
11
65.5155
21
-55.8012
0
LINE
8
BLACK
6
CONTINUOUS
10
65.5155
20
-55.8012
11
65.5155
21
-55.8012
0
LINE
8
BLACK
6
CONTINUOUS
10
65.5155
20
-55.8012
11
65.6663
21
-56.0032
0
LINE
8
BLACK
6
CONTINUOUS
10
65.6663
20
-56.0032
11
65.6663
21
-56.0032
0
LINE
8
BLACK
6
CONTINUOUS
10
65.6663
20
-56.0032
11
65.6691
21
-56.0069
0
LINE
8
BLACK
6
CONTINUOUS
10
65.6691
20
-56.0069
11
65.6724
21
-56.0102
0
LINE
8
BLACK
6
CONTINUOUS
10
65.6724
20
-56.0102
11
65.6724
21
-56.0102
0
LINE
8
BLACK
6
CONTINUOUS
10
65.6724
20
-56.0102
11
65.8514
21
-56.1876
0
LINE
8
BLACK
6
CONTINUOUS
10
65.8514
20
-56.1876
11
65.8547
21
-56.1909
0
LINE
8
BLACK
6
CONTINUOUS
10
65.8547
20
-56.1909
11
65.8585
21
-56.1937
0
LINE
8
BLACK
6
CONTINUOUS
10
65.8585
20
-56.1937
11
65.8585
21
-56.1937
0
LINE
8
BLACK
6
CONTINUOUS
10
65.8585
20
-56.1937
11
66.0548
21
-56.3376
0
LINE
8
BLACK
6
CONTINUOUS
10
66.0548
20
-56.3376
11
66.0655
21
-56.3455
0
LINE
8
BLACK
6
CONTINUOUS
10
66.0655
20
-56.3455
11
66.0697
21
-56.3477
0
LINE
8
BLACK
6
CONTINUOUS
10
66.0697
20
-56.3477
11
66.0697
21
-56.3477
0
LINE
8
BLACK
6
CONTINUOUS
10
66.0697
20
-56.3477
11
66.2927
21
-56.465
0
LINE
8
BLACK
6
CONTINUOUS
10
66.2927
20
-56.465
11
66.2927
21
-56.465
0
LINE
8
BLACK
6
CONTINUOUS
10
66.2927
20
-56.465
11
66.2968
21
-56.4672
0
LINE
8
BLACK
6
CONTINUOUS
10
66.2968
20
-56.4672
11
66.5436
21
-56.5533
0
LINE
8
BLACK
6
CONTINUOUS
10
66.5436
20
-56.5533
11
66.5482
21
-56.5542
0
LINE
8
BLACK
6
CONTINUOUS
10
66.5482
20
-56.5542
11
66.7958
21
-56.6012
0
LINE
8
BLACK
6
CONTINUOUS
10
66.7958
20
-56.6012
11
66.7958
21
-56.6012
0
LINE
8
BLACK
6
CONTINUOUS
10
66.7958
20
-56.6012
11
66.8004
21
-56.6021
0
LINE
8
BLACK
6
CONTINUOUS
10
66.8004
20
-56.6021
11
66.931
21
-56.6072
0
LINE
8
BLACK
6
CONTINUOUS
10
66.931
20
-56.6072
11
67.0569
21
-56.6122
0
LINE
8
BLACK
6
CONTINUOUS
10
67.0569
20
-56.6122
11
67.0569
21
-56.6122
0
LINE
8
BLACK
6
CONTINUOUS
10
67.0569
20
-56.6122
11
67.0615
21
-56.6124
0
LINE
8
BLACK
6
CONTINUOUS
10
67.0615
20
-56.6124
11
67.141
21
-56.6037
0
LINE
8
BLACK
6
CONTINUOUS
10
67.141
20
-56.6037
11
67.3167
21
-56.5844
0
LINE
8
BLACK
6
CONTINUOUS
10
67.3167
20
-56.5844
11
67.3167
21
-56.5844
0
LINE
8
BLACK
6
CONTINUOUS
10
67.3167
20
-56.5844
11
67.3214
21
-56.5839
0
LINE
8
BLACK
6
CONTINUOUS
10
67.3214
20
-56.5839
11
67.4341
21
-56.5542
0
LINE
8
BLACK
6
CONTINUOUS
10
67.4341
20
-56.5542
11
67.5696
21
-56.5185
0
LINE
8
BLACK
6
CONTINUOUS
10
67.5696
20
-56.5185
11
67.5696
21
-56.5185
0
LINE
8
BLACK
6
CONTINUOUS
10
67.5696
20
-56.5185
11
67.5741
21
-56.5174
0
LINE
8
BLACK
6
CONTINUOUS
10
67.5741
20
-56.5174
11
67.6256
21
-56.4952
0
LINE
8
BLACK
6
CONTINUOUS
10
67.6256
20
-56.4952
11
67.81
21
-56.416
0
LINE
8
BLACK
6
CONTINUOUS
10
67.81
20
-56.416
11
67.8143
21
-56.4142
0
LINE
8
BLACK
6
CONTINUOUS
10
67.8143
20
-56.4142
11
68.0365
21
-56.2766
0
LINE
8
BLACK
6
CONTINUOUS
10
68.0365
20
-56.2766
11
68.0401
21
-56.2736
0
LINE
8
BLACK
6
CONTINUOUS
10
68.0401
20
-56.2736
11
68.0401
21
-56.2736
0
LINE
8
BLACK
6
CONTINUOUS
10
68.0401
20
-56.2736
11
68.2324
21
-56.1108
0
LINE
8
BLACK
6
CONTINUOUS
10
68.2324
20
-56.1108
11
68.2324
21
-56.1108
0
LINE
8
BLACK
6
CONTINUOUS
10
68.2324
20
-56.1108
11
68.236
21
-56.1078
0
LINE
8
BLACK
6
CONTINUOUS
10
68.236
20
-56.1078
11
68.2567
21
-56.0841
0
LINE
8
BLACK
6
CONTINUOUS
10
68.2567
20
-56.0841
11
68.4053
21
-55.9148
0
LINE
8
BLACK
6
CONTINUOUS
10
68.4053
20
-55.9148
11
68.4053
21
-55.9148
0
LINE
8
BLACK
6
CONTINUOUS
10
68.4053
20
-55.9148
11
68.4083
21
-55.9113
0
LINE
8
BLACK
6
CONTINUOUS
10
68.4083
20
-55.9113
11
68.435
21
-55.8697
0
LINE
8
BLACK
6
CONTINUOUS
10
68.435
20
-55.8697
11
68.536
21
-55.7128
0
LINE
8
BLACK
6
CONTINUOUS
10
68.536
20
-55.7128
11
68.5497
21
-55.6914
0
LINE
8
BLACK
6
CONTINUOUS
10
68.5497
20
-55.6914
11
68.6571
21
-55.4531
0
LINE
8
BLACK
6
CONTINUOUS
10
68.6571
20
-55.4531
11
68.6956
21
-55.3167
0
LINE
8
BLACK
6
CONTINUOUS
10
68.6956
20
-55.3167
11
68.7268
21
-55.2061
0
LINE
8
BLACK
6
CONTINUOUS
10
68.7268
20
-55.2061
11
68.7268
21
-55.2061
0
LINE
8
BLACK
6
CONTINUOUS
10
68.7268
20
-55.2061
11
68.728
21
-55.2016
0
LINE
8
BLACK
6
CONTINUOUS
10
68.728
20
-55.2016
11
68.7419
21
-55.0923
0
LINE
8
BLACK
6
CONTINUOUS
10
68.7419
20
-55.0923
11
68.7606
21
-54.9454
0
LINE
8
BLACK
6
CONTINUOUS
10
68.7606
20
-54.9454
11
68.7606
21
-54.9454
0
LINE
8
BLACK
6
CONTINUOUS
10
68.7606
20
-54.9454
11
68.761
21
-54.9423
0
LINE
8
BLACK
6
CONTINUOUS
10
68.761
20
-54.9423
11
68.7634
21
-54.85
0
LINE
8
BLACK
6
CONTINUOUS
10
68.7634
20
-54.85
11
68.7552
21
-54.7393
0
LINE
8
BLACK
6
CONTINUOUS
10
68.7552
20
-54.7393
11
68.7444
21
-54.594
0
LINE
8
BLACK
6
CONTINUOUS
10
68.7444
20
-54.594
11
68.7444
21
-54.594
0
LINE
8
BLACK
6
CONTINUOUS
10
68.7444
20
-54.594
11
68.7441
21
-54.5893
0
LINE
8
BLACK
6
CONTINUOUS
10
68.7441
20
-54.5893
11
68.7327
21
-54.5392
0
LINE
8
BLACK
6
CONTINUOUS
10
68.7327
20
-54.5392
11
68.6874
21
-54.339
0
LINE
8
BLACK
6
CONTINUOUS
10
68.6874
20
-54.339
11
68.6864
21
-54.3344
0
LINE
8
BLACK
6
CONTINUOUS
10
68.6864
20
-54.3344
11
68.6484
21
-54.2368
0
LINE
8
BLACK
6
CONTINUOUS
10
68.6484
20
-54.2368
11
68.5933
21
-54.0952
0
LINE
8
BLACK
6
CONTINUOUS
10
68.5933
20
-54.0952
11
68.5933
21
-54.0952
0
LINE
8
BLACK
6
CONTINUOUS
10
68.5933
20
-54.0952
11
68.5916
21
-54.0908
0
LINE
8
BLACK
6
CONTINUOUS
10
68.5916
20
-54.0908
11
68.462
21
-53.8639
0
LINE
8
BLACK
6
CONTINUOUS
10
68.462
20
-53.8639
11
68.3001
21
-53.6586
0
LINE
8
BLACK
6
CONTINUOUS
10
68.3001
20
-53.6586
11
68.1098
21
-53.4796
0
LINE
8
BLACK
6
CONTINUOUS
10
68.1098
20
-53.4796
11
67.9446
21
-53.365
0
LINE
8
BLACK
6
CONTINUOUS
10
67.9446
20
-53.365
11
67.8989
21
-53.3332
0
LINE
8
BLACK
6
CONTINUOUS
10
67.8989
20
-53.3332
11
67.8988
21
-53.3332
0
LINE
8
BLACK
6
CONTINUOUS
10
67.8988
20
-53.3332
11
67.895
21
-53.3306
0
LINE
8
BLACK
6
CONTINUOUS
10
67.895
20
-53.3306
11
67.8908
21
-53.3285
0
LINE
8
BLACK
6
CONTINUOUS
10
67.8908
20
-53.3285
11
67.6648
21
-53.217
0
LINE
8
BLACK
6
CONTINUOUS
10
67.6648
20
-53.217
11
67.6648
21
-53.217
0
LINE
8
BLACK
6
CONTINUOUS
10
67.6648
20
-53.217
11
67.6606
21
-53.215
0
LINE
8
BLACK
6
CONTINUOUS
10
67.6606
20
-53.215
11
67.6144
21
-53.2002
0
LINE
8
BLACK
6
CONTINUOUS
10
67.6144
20
-53.2002
11
67.4161
21
-53.1367
0
LINE
8
BLACK
6
CONTINUOUS
10
67.4161
20
-53.1367
11
67.4117
21
-53.1353
0
LINE
8
BLACK
6
CONTINUOUS
10
67.4117
20
-53.1353
11
67.1537
21
-53.0933
0
LINE
8
BLACK
6
CONTINUOUS
10
67.1537
20
-53.0933
11
67.0399
21
-53.0918
0
LINE
8
BLACK
6
CONTINUOUS
10
67.0399
20
-53.0918
11
66.897
21
-53.0899
0
LINE
8
BLACK
6
CONTINUOUS
10
66.897
20
-53.0899
11
66.897
21
-53.0899
0
LINE
8
BLACK
6
CONTINUOUS
10
66.897
20
-53.0899
11
66.8923
21
-53.0899
0
LINE
8
BLACK
6
CONTINUOUS
10
66.8923
20
-53.0899
11
66.6334
21
-53.1251
0
LINE
8
BLACK
6
CONTINUOUS
10
66.6334
20
-53.1251
11
66.3824
21
-53.1982
0
LINE
8
BLACK
6
CONTINUOUS
10
66.3824
20
-53.1982
11
66.3782
21
-53.2002
0
LINE
8
BLACK
6
CONTINUOUS
10
66.3782
20
-53.2002
11
66.3782
21
-53.2002
0
LINE
8
BLACK
6
CONTINUOUS
10
66.3782
20
-53.2002
11
66.3417
21
-53.217
0
LINE
8
BLACK
6
CONTINUOUS
10
66.3417
20
-53.217
11
66.1451
21
-53.3077
0
LINE
8
BLACK
6
CONTINUOUS
10
66.1451
20
-53.3077
11
66.1061
21
-53.3332
0
LINE
8
BLACK
6
CONTINUOUS
10
66.1061
20
-53.3332
11
65.9304
21
-53.4484
0
LINE
8
BLACK
6
CONTINUOUS
10
65.9304
20
-53.4484
11
65.9304
21
-53.4484
0
LINE
8
BLACK
6
CONTINUOUS
10
65.9304
20
-53.4484
11
65.9265
21
-53.451
0
LINE
8
BLACK
6
CONTINUOUS
10
65.9265
20
-53.451
11
65.7315
21
-53.625
0
LINE
8
BLACK
6
CONTINUOUS
10
65.7315
20
-53.625
11
65.5644
21
-53.826
0
LINE
8
BLACK
6
CONTINUOUS
10
65.5644
20
-53.826
11
65.5619
21
-53.83
0
LINE
8
BLACK
6
CONTINUOUS
10
65.5619
20
-53.83
11
65.4479
21
-54.018
0
LINE
8
BLACK
6
CONTINUOUS
10
65.4479
20
-54.018
11
65.4288
21
-54.0494
0
LINE
8
BLACK
6
CONTINUOUS
10
65.4288
20
-54.0494
11
65.3277
21
-54.2905
0
LINE
8
BLACK
6
CONTINUOUS
10
65.3277
20
-54.2905
11
65.2634
21
-54.5438
0
LINE
8
BLACK
6
CONTINUOUS
10
65.2634
20
-54.5438
11
65.2372
21
-54.8038
0
LINE
8
BLACK
6
CONTINUOUS
10
65.2372
20
-54.8038
11
65.2374
21
-54.8085
0
LINE
8
BLACK
6
CONTINUOUS
10
65.2374
20
-54.8085
11
65.2374
21
-54.8085
0
LINE
8
BLACK
6
CONTINUOUS
10
52.899
20
-65.1627
11
52.899
21
-65.1627
0
LINE
8
BLACK
6
CONTINUOUS
10
52.899
20
-65.1627
11
52.933
21
-65.304
0
LINE
8
BLACK
6
CONTINUOUS
10
52.933
20
-65.304
11
52.9471
21
-65.3625
0
LINE
8
BLACK
6
CONTINUOUS
10
52.9471
20
-65.3625
11
52.9496
21
-65.368
0
LINE
8
BLACK
6
CONTINUOUS
10
52.9496
20
-65.368
11
52.9496
21
-65.368
0
LINE
8
BLACK
6
CONTINUOUS
10
52.9496
20
-65.368
11
52.9931
21
-65.4635
0
LINE
8
BLACK
6
CONTINUOUS
10
52.9931
20
-65.4635
11
53.0347
21
-65.5551
0
LINE
8
BLACK
6
CONTINUOUS
10
53.0347
20
-65.5551
11
53.1571
21
-65.7276
0
LINE
8
BLACK
6
CONTINUOUS
10
53.1571
20
-65.7276
11
53.3098
21
-65.8739
0
LINE
8
BLACK
6
CONTINUOUS
10
53.3098
20
-65.8739
11
53.4875
21
-65.9886
0
LINE
8
BLACK
6
CONTINUOUS
10
53.4875
20
-65.9886
11
53.4931
21
-65.9909
0
LINE
8
BLACK
6
CONTINUOUS
10
53.4931
20
-65.9909
11
53.6782
21
-66.0654
0
LINE
8
BLACK
6
CONTINUOUS
10
53.6782
20
-66.0654
11
53.6782
21
-66.0654
0
LINE
8
BLACK
6
CONTINUOUS
10
53.6782
20
-66.0654
11
53.6837
21
-66.0677
0
LINE
8
BLACK
6
CONTINUOUS
10
53.6837
20
-66.0677
11
53.8913
21
-66.1082
0
LINE
8
BLACK
6
CONTINUOUS
10
53.8913
20
-66.1082
11
53.8969
21
-66.1085
0
LINE
8
BLACK
6
CONTINUOUS
10
53.8969
20
-66.1085
11
54.0528
21
-66.1085
0
LINE
8
BLACK
6
CONTINUOUS
10
54.0528
20
-66.1085
11
54.2106
21
-66.0935
0
LINE
8
BLACK
6
CONTINUOUS
10
54.2106
20
-66.0935
11
54.4135
21
-66.0339
0
LINE
8
BLACK
6
CONTINUOUS
10
54.4135
20
-66.0339
11
54.4971
21
-65.9909
0
LINE
8
BLACK
6
CONTINUOUS
10
54.4971
20
-65.9909
11
54.5962
21
-65.9398
0
LINE
8
BLACK
6
CONTINUOUS
10
54.5962
20
-65.9398
11
54.5963
21
-65.9398
0
LINE
8
BLACK
6
CONTINUOUS
10
54.5963
20
-65.9398
11
54.6016
21
-65.9371
0
LINE
8
BLACK
6
CONTINUOUS
10
54.6016
20
-65.9371
11
54.7679
21
-65.8064
0
LINE
8
BLACK
6
CONTINUOUS
10
54.7679
20
-65.8064
11
54.7719
21
-65.8019
0
LINE
8
BLACK
6
CONTINUOUS
10
54.7719
20
-65.8019
11
54.7719
21
-65.8019
0
LINE
8
BLACK
6
CONTINUOUS
10
54.7719
20
-65.8019
11
54.9026
21
-65.6512
0
LINE
8
BLACK
6
CONTINUOUS
10
54.9026
20
-65.6512
11
54.9066
21
-65.6466
0
LINE
8
BLACK
6
CONTINUOUS
10
54.9066
20
-65.6466
11
54.9096
21
-65.6415
0
LINE
8
BLACK
6
CONTINUOUS
10
54.9096
20
-65.6415
11
54.9096
21
-65.6414
0
LINE
8
BLACK
6
CONTINUOUS
10
54.9096
20
-65.6414
11
55.0095
21
-65.4687
0
LINE
8
BLACK
6
CONTINUOUS
10
55.0095
20
-65.4687
11
55.0125
21
-65.4635
0
LINE
8
BLACK
6
CONTINUOUS
10
55.0125
20
-65.4635
11
55.0819
21
-65.2637
0
LINE
8
BLACK
6
CONTINUOUS
10
55.0819
20
-65.2637
11
55.0845
21
-65.2454
0
LINE
8
BLACK
6
CONTINUOUS
10
55.0845
20
-65.2454
11
55.1114
21
-65.0603
0
LINE
8
BLACK
6
CONTINUOUS
10
55.1114
20
-65.0603
11
55.1114
21
-65.0603
0
LINE
8
BLACK
6
CONTINUOUS
10
55.1114
20
-65.0603
11
55.1122
21
-65.0544
0
LINE
8
BLACK
6
CONTINUOUS
10
55.1122
20
-65.0544
11
55.1024
21
-64.8431
0
LINE
8
BLACK
6
CONTINUOUS
10
55.1024
20
-64.8431
11
55.0529
21
-64.6375
0
LINE
8
BLACK
6
CONTINUOUS
10
55.0529
20
-64.6375
11
55.0315
21
-64.5905
0
LINE
8
BLACK
6
CONTINUOUS
10
55.0315
20
-64.5905
11
54.9678
21
-64.4504
0
LINE
8
BLACK
6
CONTINUOUS
10
54.9678
20
-64.4504
11
54.9653
21
-64.4449
0
LINE
8
BLACK
6
CONTINUOUS
10
54.9653
20
-64.4449
11
54.8429
21
-64.2724
0
LINE
8
BLACK
6
CONTINUOUS
10
54.8429
20
-64.2724
11
54.6901
21
-64.1261
0
LINE
8
BLACK
6
CONTINUOUS
10
54.6901
20
-64.1261
11
54.5125
21
-64.0114
0
LINE
8
BLACK
6
CONTINUOUS
10
54.5125
20
-64.0114
11
54.4524
21
-63.9872
0
LINE
8
BLACK
6
CONTINUOUS
10
54.4524
20
-63.9872
11
54.3218
21
-63.9346
0
LINE
8
BLACK
6
CONTINUOUS
10
54.3218
20
-63.9346
11
54.3218
21
-63.9346
0
LINE
8
BLACK
6
CONTINUOUS
10
54.3218
20
-63.9346
11
54.3163
21
-63.9323
0
LINE
8
BLACK
6
CONTINUOUS
10
54.3163
20
-63.9323
11
54.1087
21
-63.8918
0
LINE
8
BLACK
6
CONTINUOUS
10
54.1087
20
-63.8918
11
54.1031
21
-63.8915
0
LINE
8
BLACK
6
CONTINUOUS
10
54.1031
20
-63.8915
11
53.9472
21
-63.8915
0
LINE
8
BLACK
6
CONTINUOUS
10
53.9472
20
-63.8915
11
53.7894
21
-63.9065
0
LINE
8
BLACK
6
CONTINUOUS
10
53.7894
20
-63.9065
11
53.5865
21
-63.9661
0
LINE
8
BLACK
6
CONTINUOUS
10
53.5865
20
-63.9661
11
53.5811
21
-63.9688
0
LINE
8
BLACK
6
CONTINUOUS
10
53.5811
20
-63.9688
11
53.5811
21
-63.9688
0
LINE
8
BLACK
6
CONTINUOUS
10
53.5811
20
-63.9688
11
53.4038
21
-64.0602
0
LINE
8
BLACK
6
CONTINUOUS
10
53.4038
20
-64.0602
11
53.4037
21
-64.0602
0
LINE
8
BLACK
6
CONTINUOUS
10
53.4037
20
-64.0602
11
53.3984
21
-64.0629
0
LINE
8
BLACK
6
CONTINUOUS
10
53.3984
20
-64.0629
11
53.2321
21
-64.1936
0
LINE
8
BLACK
6
CONTINUOUS
10
53.2321
20
-64.1936
11
53.2281
21
-64.1981
0
LINE
8
BLACK
6
CONTINUOUS
10
53.2281
20
-64.1981
11
53.2281
21
-64.1981
0
LINE
8
BLACK
6
CONTINUOUS
10
53.2281
20
-64.1981
11
53.1448
21
-64.2942
0
LINE
8
BLACK
6
CONTINUOUS
10
53.1448
20
-64.2942
11
53.0934
21
-64.3534
0
LINE
8
BLACK
6
CONTINUOUS
10
53.0934
20
-64.3534
11
53.0904
21
-64.3585
0
LINE
8
BLACK
6
CONTINUOUS
10
53.0904
20
-64.3585
11
53.0904
21
-64.3586
0
LINE
8
BLACK
6
CONTINUOUS
10
53.0904
20
-64.3586
11
53.0433
21
-64.44
0
LINE
8
BLACK
6
CONTINUOUS
10
53.0433
20
-64.44
11
52.9875
21
-64.5365
0
LINE
8
BLACK
6
CONTINUOUS
10
52.9875
20
-64.5365
11
52.9181
21
-64.7363
0
LINE
8
BLACK
6
CONTINUOUS
10
52.9181
20
-64.7363
11
52.8878
21
-64.9456
0
LINE
8
BLACK
6
CONTINUOUS
10
52.8878
20
-64.9456
11
52.8976
21
-65.1569
0
LINE
8
BLACK
6
CONTINUOUS
10
52.8976
20
-65.1569
11
52.899
21
-65.1627
0
LINE
8
BLACK
6
CONTINUOUS
10
52.2374
20
-59.9585
11
52.2413
21
-60.0399
0
LINE
8
BLACK
6
CONTINUOUS
10
52.2413
20
-60.0399
11
52.2497
21
-60.2149
0
LINE
8
BLACK
6
CONTINUOUS
10
52.2497
20
-60.2149
11
52.3007
21
-60.4713
0
LINE
8
BLACK
6
CONTINUOUS
10
52.3007
20
-60.4713
11
52.389
21
-60.7173
0
LINE
8
BLACK
6
CONTINUOUS
10
52.389
20
-60.7173
11
52.3912
21
-60.7214
0
LINE
8
BLACK
6
CONTINUOUS
10
52.3912
20
-60.7214
11
52.5086
21
-60.9398
0
LINE
8
BLACK
6
CONTINUOUS
10
52.5086
20
-60.9398
11
52.5127
21
-60.9475
0
LINE
8
BLACK
6
CONTINUOUS
10
52.5127
20
-60.9475
11
52.5155
21
-60.9512
0
LINE
8
BLACK
6
CONTINUOUS
10
52.5155
20
-60.9512
11
52.5155
21
-60.9512
0
LINE
8
BLACK
6
CONTINUOUS
10
52.5155
20
-60.9512
11
52.6663
21
-61.1532
0
LINE
8
BLACK
6
CONTINUOUS
10
52.6663
20
-61.1532
11
52.6663
21
-61.1532
0
LINE
8
BLACK
6
CONTINUOUS
10
52.6663
20
-61.1532
11
52.6691
21
-61.1569
0
LINE
8
BLACK
6
CONTINUOUS
10
52.6691
20
-61.1569
11
52.6724
21
-61.1602
0
LINE
8
BLACK
6
CONTINUOUS
10
52.6724
20
-61.1602
11
52.6724
21
-61.1602
0
LINE
8
BLACK
6
CONTINUOUS
10
52.6724
20
-61.1602
11
52.7993
21
-61.2859
0
LINE
8
BLACK
6
CONTINUOUS
10
52.7993
20
-61.2859
11
52.8547
21
-61.3409
0
LINE
8
BLACK
6
CONTINUOUS
10
52.8547
20
-61.3409
11
52.8585
21
-61.3437
0
LINE
8
BLACK
6
CONTINUOUS
10
52.8585
20
-61.3437
11
52.8585
21
-61.3437
0
LINE
8
BLACK
6
CONTINUOUS
10
52.8585
20
-61.3437
11
53.006
21
-61.4518
0
LINE
8
BLACK
6
CONTINUOUS
10
53.006
20
-61.4518
11
53.0655
21
-61.4955
0
LINE
8
BLACK
6
CONTINUOUS
10
53.0655
20
-61.4955
11
53.0697
21
-61.4977
0
LINE
8
BLACK
6
CONTINUOUS
10
53.0697
20
-61.4977
11
53.0697
21
-61.4977
0
LINE
8
BLACK
6
CONTINUOUS
10
53.0697
20
-61.4977
11
53.2927
21
-61.615
0
LINE
8
BLACK
6
CONTINUOUS
10
53.2927
20
-61.615
11
53.2927
21
-61.615
0
LINE
8
BLACK
6
CONTINUOUS
10
53.2927
20
-61.615
11
53.2968
21
-61.6172
0
LINE
8
BLACK
6
CONTINUOUS
10
53.2968
20
-61.6172
11
53.5436
21
-61.7033
0
LINE
8
BLACK
6
CONTINUOUS
10
53.5436
20
-61.7033
11
53.5482
21
-61.7042
0
LINE
8
BLACK
6
CONTINUOUS
10
53.5482
20
-61.7042
11
53.7958
21
-61.7512
0
LINE
8
BLACK
6
CONTINUOUS
10
53.7958
20
-61.7512
11
53.7958
21
-61.7512
0
LINE
8
BLACK
6
CONTINUOUS
10
53.7958
20
-61.7512
11
53.8004
21
-61.7521
0
LINE
8
BLACK
6
CONTINUOUS
10
53.8004
20
-61.7521
11
53.931
21
-61.7572
0
LINE
8
BLACK
6
CONTINUOUS
10
53.931
20
-61.7572
11
54.0569
21
-61.7622
0
LINE
8
BLACK
6
CONTINUOUS
10
54.0569
20
-61.7622
11
54.0569
21
-61.7622
0
LINE
8
BLACK
6
CONTINUOUS
10
54.0569
20
-61.7622
11
54.0615
21
-61.7624
0
LINE
8
BLACK
6
CONTINUOUS
10
54.0615
20
-61.7624
11
54.141
21
-61.7537
0
LINE
8
BLACK
6
CONTINUOUS
10
54.141
20
-61.7537
11
54.3167
21
-61.7344
0
LINE
8
BLACK
6
CONTINUOUS
10
54.3167
20
-61.7344
11
54.3167
21
-61.7344
0
LINE
8
BLACK
6
CONTINUOUS
10
54.3167
20
-61.7344
11
54.3214
21
-61.7339
0
LINE
8
BLACK
6
CONTINUOUS
10
54.3214
20
-61.7339
11
54.4341
21
-61.7042
0
LINE
8
BLACK
6
CONTINUOUS
10
54.4341
20
-61.7042
11
54.5696
21
-61.6685
0
LINE
8
BLACK
6
CONTINUOUS
10
54.5696
20
-61.6685
11
54.5696
21
-61.6685
0
LINE
8
BLACK
6
CONTINUOUS
10
54.5696
20
-61.6685
11
54.5741
21
-61.6674
0
LINE
8
BLACK
6
CONTINUOUS
10
54.5741
20
-61.6674
11
54.8143
21
-61.5642
0
LINE
8
BLACK
6
CONTINUOUS
10
54.8143
20
-61.5642
11
55.0365
21
-61.4266
0
LINE
8
BLACK
6
CONTINUOUS
10
55.0365
20
-61.4266
11
55.0401
21
-61.4236
0
LINE
8
BLACK
6
CONTINUOUS
10
55.0401
20
-61.4236
11
55.0401
21
-61.4236
0
LINE
8
BLACK
6
CONTINUOUS
10
55.0401
20
-61.4236
11
55.2324
21
-61.2608
0
LINE
8
BLACK
6
CONTINUOUS
10
55.2324
20
-61.2608
11
55.2324
21
-61.2608
0
LINE
8
BLACK
6
CONTINUOUS
10
55.2324
20
-61.2608
11
55.236
21
-61.2578
0
LINE
8
BLACK
6
CONTINUOUS
10
55.236
20
-61.2578
11
55.295
21
-61.1905
0
LINE
8
BLACK
6
CONTINUOUS
10
55.295
20
-61.1905
11
55.4053
21
-61.0648
0
LINE
8
BLACK
6
CONTINUOUS
10
55.4053
20
-61.0648
11
55.4053
21
-61.0648
0
LINE
8
BLACK
6
CONTINUOUS
10
55.4053
20
-61.0648
11
55.4083
21
-61.0613
0
LINE
8
BLACK
6
CONTINUOUS
10
55.4083
20
-61.0613
11
55.4384
21
-61.0145
0
LINE
8
BLACK
6
CONTINUOUS
10
55.4384
20
-61.0145
11
55.5289
21
-60.8739
0
LINE
8
BLACK
6
CONTINUOUS
10
55.5289
20
-60.8739
11
55.5497
21
-60.8414
0
LINE
8
BLACK
6
CONTINUOUS
10
55.5497
20
-60.8414
11
55.6571
21
-60.6031
0
LINE
8
BLACK
6
CONTINUOUS
10
55.6571
20
-60.6031
11
55.6597
21
-60.5937
0
LINE
8
BLACK
6
CONTINUOUS
10
55.6597
20
-60.5937
11
55.7268
21
-60.3561
0
LINE
8
BLACK
6
CONTINUOUS
10
55.7268
20
-60.3561
11
55.7268
21
-60.3561
0
LINE
8
BLACK
6
CONTINUOUS
10
55.7268
20
-60.3561
11
55.728
21
-60.3516
0
LINE
8
BLACK
6
CONTINUOUS
10
55.728
20
-60.3516
11
55.7448
21
-60.2195
0
LINE
8
BLACK
6
CONTINUOUS
10
55.7448
20
-60.2195
11
55.7606
21
-60.0954
0
LINE
8
BLACK
6
CONTINUOUS
10
55.7606
20
-60.0954
11
55.7606
21
-60.0954
0
LINE
8
BLACK
6
CONTINUOUS
10
55.7606
20
-60.0954
11
55.761
21
-60.0923
0
LINE
8
BLACK
6
CONTINUOUS
10
55.761
20
-60.0923
11
55.7618
21
-60.0636
0
LINE
8
BLACK
6
CONTINUOUS
10
55.7618
20
-60.0636
11
55.7628
21
-60.0239
0
LINE
8
BLACK
6
CONTINUOUS
10
55.7628
20
-60.0239
11
55.7634
21
-60
0
LINE
8
BLACK
6
CONTINUOUS
10
55.7634
20
-60
11
55.761
21
-59.9678
0
LINE
8
BLACK
6
CONTINUOUS
10
55.761
20
-59.9678
11
55.7444
21
-59.744
0
LINE
8
BLACK
6
CONTINUOUS
10
55.7444
20
-59.744
11
55.7444
21
-59.744
0
LINE
8
BLACK
6
CONTINUOUS
10
55.7444
20
-59.744
11
55.7441
21
-59.7393
0
LINE
8
BLACK
6
CONTINUOUS
10
55.7441
20
-59.7393
11
55.7421
21
-59.7306
0
LINE
8
BLACK
6
CONTINUOUS
10
55.7421
20
-59.7306
11
55.6874
21
-59.489
0
LINE
8
BLACK
6
CONTINUOUS
10
55.6874
20
-59.489
11
55.6864
21
-59.4844
0
LINE
8
BLACK
6
CONTINUOUS
10
55.6864
20
-59.4844
11
55.6354
21
-59.3534
0
LINE
8
BLACK
6
CONTINUOUS
10
55.6354
20
-59.3534
11
55.5933
21
-59.2452
0
LINE
8
BLACK
6
CONTINUOUS
10
55.5933
20
-59.2452
11
55.5933
21
-59.2452
0
LINE
8
BLACK
6
CONTINUOUS
10
55.5933
20
-59.2452
11
55.5916
21
-59.2408
0
LINE
8
BLACK
6
CONTINUOUS
10
55.5916
20
-59.2408
11
55.462
21
-59.0139
0
LINE
8
BLACK
6
CONTINUOUS
10
55.462
20
-59.0139
11
55.3001
21
-58.8086
0
LINE
8
BLACK
6
CONTINUOUS
10
55.3001
20
-58.8086
11
55.1098
21
-58.6296
0
LINE
8
BLACK
6
CONTINUOUS
10
55.1098
20
-58.6296
11
54.895
21
-58.4806
0
LINE
8
BLACK
6
CONTINUOUS
10
54.895
20
-58.4806
11
54.8908
21
-58.4785
0
LINE
8
BLACK
6
CONTINUOUS
10
54.8908
20
-58.4785
11
54.6648
21
-58.367
0
LINE
8
BLACK
6
CONTINUOUS
10
54.6648
20
-58.367
11
54.6648
21
-58.367
0
LINE
8
BLACK
6
CONTINUOUS
10
54.6648
20
-58.367
11
54.6606
21
-58.365
0
LINE
8
BLACK
6
CONTINUOUS
10
54.6606
20
-58.365
11
54.6246
21
-58.3534
0
LINE
8
BLACK
6
CONTINUOUS
10
54.6246
20
-58.3534
11
54.4161
21
-58.2867
0
LINE
8
BLACK
6
CONTINUOUS
10
54.4161
20
-58.2867
11
54.4117
21
-58.2853
0
LINE
8
BLACK
6
CONTINUOUS
10
54.4117
20
-58.2853
11
54.1537
21
-58.2433
0
LINE
8
BLACK
6
CONTINUOUS
10
54.1537
20
-58.2433
11
54.0399
21
-58.2418
0
LINE
8
BLACK
6
CONTINUOUS
10
54.0399
20
-58.2418
11
53.897
21
-58.2399
0
LINE
8
BLACK
6
CONTINUOUS
10
53.897
20
-58.2399
11
53.897
21
-58.2399
0
LINE
8
BLACK
6
CONTINUOUS
10
53.897
20
-58.2399
11
53.8923
21
-58.2399
0
LINE
8
BLACK
6
CONTINUOUS
10
53.8923
20
-58.2399
11
53.6334
21
-58.2751
0
LINE
8
BLACK
6
CONTINUOUS
10
53.6334
20
-58.2751
11
53.3824
21
-58.3482
0
LINE
8
BLACK
6
CONTINUOUS
10
53.3824
20
-58.3482
11
53.3782
21
-58.3502
0
LINE
8
BLACK
6
CONTINUOUS
10
53.3782
20
-58.3502
11
53.3782
21
-58.3502
0
LINE
8
BLACK
6
CONTINUOUS
10
53.3782
20
-58.3502
11
53.3417
21
-58.367
0
LINE
8
BLACK
6
CONTINUOUS
10
53.3417
20
-58.367
11
53.1451
21
-58.4577
0
LINE
8
BLACK
6
CONTINUOUS
10
53.1451
20
-58.4577
11
53.1061
21
-58.4832
0
LINE
8
BLACK
6
CONTINUOUS
10
53.1061
20
-58.4832
11
52.9304
21
-58.5984
0
LINE
8
BLACK
6
CONTINUOUS
10
52.9304
20
-58.5984
11
52.9304
21
-58.5984
0
LINE
8
BLACK
6
CONTINUOUS
10
52.9304
20
-58.5984
11
52.9265
21
-58.601
0
LINE
8
BLACK
6
CONTINUOUS
10
52.9265
20
-58.601
11
52.7315
21
-58.775
0
LINE
8
BLACK
6
CONTINUOUS
10
52.7315
20
-58.775
11
52.5644
21
-58.976
0
LINE
8
BLACK
6
CONTINUOUS
10
52.5644
20
-58.976
11
52.5619
21
-58.98
0
LINE
8
BLACK
6
CONTINUOUS
10
52.5619
20
-58.98
11
52.4323
21
-59.1936
0
LINE
8
BLACK
6
CONTINUOUS
10
52.4323
20
-59.1936
11
52.4288
21
-59.1994
0
LINE
8
BLACK
6
CONTINUOUS
10
52.4288
20
-59.1994
11
52.3277
21
-59.4405
0
LINE
8
BLACK
6
CONTINUOUS
10
52.3277
20
-59.4405
11
52.2634
21
-59.6938
0
LINE
8
BLACK
6
CONTINUOUS
10
52.2634
20
-59.6938
11
52.2372
21
-59.9538
0
LINE
8
BLACK
6
CONTINUOUS
10
52.2372
20
-59.9538
11
52.2374
21
-59.9585
0
LINE
8
BLACK
6
CONTINUOUS
10
52.2374
20
-59.9585
11
52.2374
21
-59.9585
0
LINE
8
BLACK
6
CONTINUOUS
10
52.899
20
-55.1627
11
52.899
21
-55.1627
0
LINE
8
BLACK
6
CONTINUOUS
10
52.899
20
-55.1627
11
52.9456
21
-55.3561
0
LINE
8
BLACK
6
CONTINUOUS
10
52.9456
20
-55.3561
11
52.9471
21
-55.3625
0
LINE
8
BLACK
6
CONTINUOUS
10
52.9471
20
-55.3625
11
52.9496
21
-55.368
0
LINE
8
BLACK
6
CONTINUOUS
10
52.9496
20
-55.368
11
52.9496
21
-55.368
0
LINE
8
BLACK
6
CONTINUOUS
10
52.9496
20
-55.368
11
52.9931
21
-55.4635
0
LINE
8
BLACK
6
CONTINUOUS
10
52.9931
20
-55.4635
11
53.0347
21
-55.5551
0
LINE
8
BLACK
6
CONTINUOUS
10
53.0347
20
-55.5551
11
53.1049
21
-55.6542
0
LINE
8
BLACK
6
CONTINUOUS
10
53.1049
20
-55.6542
11
53.1393
21
-55.7025
0
LINE
8
BLACK
6
CONTINUOUS
10
53.1393
20
-55.7025
11
53.1571
21
-55.7276
0
LINE
8
BLACK
6
CONTINUOUS
10
53.1571
20
-55.7276
11
53.3098
21
-55.8739
0
LINE
8
BLACK
6
CONTINUOUS
10
53.3098
20
-55.8739
11
53.4875
21
-55.9886
0
LINE
8
BLACK
6
CONTINUOUS
10
53.4875
20
-55.9886
11
53.4931
21
-55.9909
0
LINE
8
BLACK
6
CONTINUOUS
10
53.4931
20
-55.9909
11
53.6782
21
-56.0654
0
LINE
8
BLACK
6
CONTINUOUS
10
53.6782
20
-56.0654
11
53.6782
21
-56.0654
0
LINE
8
BLACK
6
CONTINUOUS
10
53.6782
20
-56.0654
11
53.6837
21
-56.0677
0
LINE
8
BLACK
6
CONTINUOUS
10
53.6837
20
-56.0677
11
53.8913
21
-56.1082
0
LINE
8
BLACK
6
CONTINUOUS
10
53.8913
20
-56.1082
11
53.8969
21
-56.1085
0
LINE
8
BLACK
6
CONTINUOUS
10
53.8969
20
-56.1085
11
54.0528
21
-56.1085
0
LINE
8
BLACK
6
CONTINUOUS
10
54.0528
20
-56.1085
11
54.2106
21
-56.0935
0
LINE
8
BLACK
6
CONTINUOUS
10
54.2106
20
-56.0935
11
54.4135
21
-56.0339
0
LINE
8
BLACK
6
CONTINUOUS
10
54.4135
20
-56.0339
11
54.4596
21
-56.0102
0
LINE
8
BLACK
6
CONTINUOUS
10
54.4596
20
-56.0102
11
54.5962
21
-55.9398
0
LINE
8
BLACK
6
CONTINUOUS
10
54.5962
20
-55.9398
11
54.5963
21
-55.9398
0
LINE
8
BLACK
6
CONTINUOUS
10
54.5963
20
-55.9398
11
54.6016
21
-55.9371
0
LINE
8
BLACK
6
CONTINUOUS
10
54.6016
20
-55.9371
11
54.7679
21
-55.8064
0
LINE
8
BLACK
6
CONTINUOUS
10
54.7679
20
-55.8064
11
54.7719
21
-55.8019
0
LINE
8
BLACK
6
CONTINUOUS
10
54.7719
20
-55.8019
11
54.7719
21
-55.8019
0
LINE
8
BLACK
6
CONTINUOUS
10
54.7719
20
-55.8019
11
54.9026
21
-55.6512
0
LINE
8
BLACK
6
CONTINUOUS
10
54.9026
20
-55.6512
11
54.9066
21
-55.6466
0
LINE
8
BLACK
6
CONTINUOUS
10
54.9066
20
-55.6466
11
54.9096
21
-55.6415
0
LINE
8
BLACK
6
CONTINUOUS
10
54.9096
20
-55.6415
11
54.9096
21
-55.6414
0
LINE
8
BLACK
6
CONTINUOUS
10
54.9096
20
-55.6414
11
55.0095
21
-55.4687
0
LINE
8
BLACK
6
CONTINUOUS
10
55.0095
20
-55.4687
11
55.0125
21
-55.4635
0
LINE
8
BLACK
6
CONTINUOUS
10
55.0125
20
-55.4635
11
55.0819
21
-55.2637
0
LINE
8
BLACK
6
CONTINUOUS
10
55.0819
20
-55.2637
11
55.0896
21
-55.2102
0
LINE
8
BLACK
6
CONTINUOUS
10
55.0896
20
-55.2102
11
55.1114
21
-55.0603
0
LINE
8
BLACK
6
CONTINUOUS
10
55.1114
20
-55.0603
11
55.1114
21
-55.0603
0
LINE
8
BLACK
6
CONTINUOUS
10
55.1114
20
-55.0603
11
55.1122
21
-55.0544
0
LINE
8
BLACK
6
CONTINUOUS
10
55.1122
20
-55.0544
11
55.1024
21
-54.8431
0
LINE
8
BLACK
6
CONTINUOUS
10
55.1024
20
-54.8431
11
55.0664
21
-54.6938
0
LINE
8
BLACK
6
CONTINUOUS
10
55.0664
20
-54.6938
11
55.0543
21
-54.6433
0
LINE
8
BLACK
6
CONTINUOUS
10
55.0543
20
-54.6433
11
55.0543
21
-54.6433
0
LINE
8
BLACK
6
CONTINUOUS
10
55.0543
20
-54.6433
11
55.0529
21
-54.6375
0
LINE
8
BLACK
6
CONTINUOUS
10
55.0529
20
-54.6375
11
55.0289
21
-54.5848
0
LINE
8
BLACK
6
CONTINUOUS
10
55.0289
20
-54.5848
11
54.9833
21
-54.4844
0
LINE
8
BLACK
6
CONTINUOUS
10
54.9833
20
-54.4844
11
54.9653
21
-54.4449
0
LINE
8
BLACK
6
CONTINUOUS
10
54.9653
20
-54.4449
11
54.8429
21
-54.2724
0
LINE
8
BLACK
6
CONTINUOUS
10
54.8429
20
-54.2724
11
54.6901
21
-54.1261
0
LINE
8
BLACK
6
CONTINUOUS
10
54.6901
20
-54.1261
11
54.5125
21
-54.0114
0
LINE
8
BLACK
6
CONTINUOUS
10
54.5125
20
-54.0114
11
54.4157
21
-53.9724
0
LINE
8
BLACK
6
CONTINUOUS
10
54.4157
20
-53.9724
11
54.3218
21
-53.9346
0
LINE
8
BLACK
6
CONTINUOUS
10
54.3218
20
-53.9346
11
54.3218
21
-53.9346
0
LINE
8
BLACK
6
CONTINUOUS
10
54.3218
20
-53.9346
11
54.3163
21
-53.9323
0
LINE
8
BLACK
6
CONTINUOUS
10
54.3163
20
-53.9323
11
54.1087
21
-53.8918
0
LINE
8
BLACK
6
CONTINUOUS
10
54.1087
20
-53.8918
11
54.1031
21
-53.8915
0
LINE
8
BLACK
6
CONTINUOUS
10
54.1031
20
-53.8915
11
53.9472
21
-53.8915
0
LINE
8
BLACK
6
CONTINUOUS
10
53.9472
20
-53.8915
11
53.7894
21
-53.9065
0
LINE
8
BLACK
6
CONTINUOUS
10
53.7894
20
-53.9065
11
53.5865
21
-53.9661
0
LINE
8
BLACK
6
CONTINUOUS
10
53.5865
20
-53.9661
11
53.5811
21
-53.9688
0
LINE
8
BLACK
6
CONTINUOUS
10
53.5811
20
-53.9688
11
53.5811
21
-53.9688
0
LINE
8
BLACK
6
CONTINUOUS
10
53.5811
20
-53.9688
11
53.4038
21
-54.0602
0
LINE
8
BLACK
6
CONTINUOUS
10
53.4038
20
-54.0602
11
53.4037
21
-54.0602
0
LINE
8
BLACK
6
CONTINUOUS
10
53.4037
20
-54.0602
11
53.3984
21
-54.0629
0
LINE
8
BLACK
6
CONTINUOUS
10
53.3984
20
-54.0629
11
53.2321
21
-54.1936
0
LINE
8
BLACK
6
CONTINUOUS
10
53.2321
20
-54.1936
11
53.2281
21
-54.1981
0
LINE
8
BLACK
6
CONTINUOUS
10
53.2281
20
-54.1981
11
53.2281
21
-54.1981
0
LINE
8
BLACK
6
CONTINUOUS
10
53.2281
20
-54.1981
11
53.1595
21
-54.2773
0
LINE
8
BLACK
6
CONTINUOUS
10
53.1595
20
-54.2773
11
53.0934
21
-54.3534
0
LINE
8
BLACK
6
CONTINUOUS
10
53.0934
20
-54.3534
11
53.0904
21
-54.3585
0
LINE
8
BLACK
6
CONTINUOUS
10
53.0904
20
-54.3585
11
53.0904
21
-54.3586
0
LINE
8
BLACK
6
CONTINUOUS
10
53.0904
20
-54.3586
11
53.0176
21
-54.4844
0
LINE
8
BLACK
6
CONTINUOUS
10
53.0176
20
-54.4844
11
52.9875
21
-54.5365
0
LINE
8
BLACK
6
CONTINUOUS
10
52.9875
20
-54.5365
11
52.9181
21
-54.7363
0
LINE
8
BLACK
6
CONTINUOUS
10
52.9181
20
-54.7363
11
52.9173
21
-54.7422
0
LINE
8
BLACK
6
CONTINUOUS
10
52.9173
20
-54.7422
11
52.9173
21
-54.7422
0
LINE
8
BLACK
6
CONTINUOUS
10
52.9173
20
-54.7422
11
52.9021
21
-54.8469
0
LINE
8
BLACK
6
CONTINUOUS
10
52.9021
20
-54.8469
11
52.8878
21
-54.9456
0
LINE
8
BLACK
6
CONTINUOUS
10
52.8878
20
-54.9456
11
52.8976
21
-55.1569
0
LINE
8
BLACK
6
CONTINUOUS
10
52.8976
20
-55.1569
11
52.899
21
-55.1627
0
LINE
8
BLACK
6
CONTINUOUS
10
55.5899
20
-67.0322
11
55.6065
21
-67.1899
0
LINE
8
BLACK
6
CONTINUOUS
10
55.6065
20
-67.1899
11
55.6655
21
-67.3716
0
LINE
8
BLACK
6
CONTINUOUS
10
55.6655
20
-67.3716
11
55.761
21
-67.5369
0
LINE
8
BLACK
6
CONTINUOUS
10
55.761
20
-67.5369
11
55.7654
21
-67.5419
0
LINE
8
BLACK
6
CONTINUOUS
10
55.7654
20
-67.5419
11
55.7654
21
-67.5419
0
LINE
8
BLACK
6
CONTINUOUS
10
55.7654
20
-67.5419
11
55.8499
21
-67.6357
0
LINE
8
BLACK
6
CONTINUOUS
10
55.8499
20
-67.6357
11
55.8887
21
-67.6789
0
LINE
8
BLACK
6
CONTINUOUS
10
55.8887
20
-67.6789
11
56.0432
21
-67.7911
0
LINE
8
BLACK
6
CONTINUOUS
10
56.0432
20
-67.7911
11
56.0493
21
-67.7938
0
LINE
8
BLACK
6
CONTINUOUS
10
56.0493
20
-67.7938
11
56.0493
21
-67.7938
0
LINE
8
BLACK
6
CONTINUOUS
10
56.0493
20
-67.7938
11
56.2117
21
-67.8661
0
LINE
8
BLACK
6
CONTINUOUS
10
56.2117
20
-67.8661
11
56.2177
21
-67.8688
0
LINE
8
BLACK
6
CONTINUOUS
10
56.2177
20
-67.8688
11
56.3111
21
-67.8886
0
LINE
8
BLACK
6
CONTINUOUS
10
56.3111
20
-67.8886
11
56.3981
21
-67.9071
0
LINE
8
BLACK
6
CONTINUOUS
10
56.3981
20
-67.9071
11
56.3981
21
-67.9071
0
LINE
8
BLACK
6
CONTINUOUS
10
56.3981
20
-67.9071
11
56.4045
21
-67.9085
0
LINE
8
BLACK
6
CONTINUOUS
10
56.4045
20
-67.9085
11
56.5955
21
-67.9085
0
LINE
8
BLACK
6
CONTINUOUS
10
56.5955
20
-67.9085
11
56.6019
21
-67.9071
0
LINE
8
BLACK
6
CONTINUOUS
10
56.6019
20
-67.9071
11
56.6019
21
-67.9071
0
LINE
8
BLACK
6
CONTINUOUS
10
56.6019
20
-67.9071
11
56.6889
21
-67.8886
0
LINE
8
BLACK
6
CONTINUOUS
10
56.6889
20
-67.8886
11
56.7823
21
-67.8688
0
LINE
8
BLACK
6
CONTINUOUS
10
56.7823
20
-67.8688
11
56.7883
21
-67.8661
0
LINE
8
BLACK
6
CONTINUOUS
10
56.7883
20
-67.8661
11
56.9507
21
-67.7938
0
LINE
8
BLACK
6
CONTINUOUS
10
56.9507
20
-67.7938
11
56.9507
21
-67.7938
0
LINE
8
BLACK
6
CONTINUOUS
10
56.9507
20
-67.7938
11
56.9568
21
-67.7911
0
LINE
8
BLACK
6
CONTINUOUS
10
56.9568
20
-67.7911
11
57.1113
21
-67.6789
0
LINE
8
BLACK
6
CONTINUOUS
10
57.1113
20
-67.6789
11
57.1157
21
-67.674
0
LINE
8
BLACK
6
CONTINUOUS
10
57.1157
20
-67.674
11
57.1206
21
-67.6695
0
LINE
8
BLACK
6
CONTINUOUS
10
57.1206
20
-67.6695
11
57.1217
21
-67.6708
0
LINE
8
BLACK
6
CONTINUOUS
10
57.1217
20
-67.6708
11
57.175
21
-67.6379
0
LINE
8
BLACK
6
CONTINUOUS
10
57.175
20
-67.6379
11
57.2082
21
-67.6335
0
LINE
8
BLACK
6
CONTINUOUS
10
57.2082
20
-67.6335
11
66.9282
21
-67.6335
0
LINE
8
BLACK
6
CONTINUOUS
10
66.9282
20
-67.6335
11
66.9518
21
-67.6357
0
LINE
8
BLACK
6
CONTINUOUS
10
66.9518
20
-67.6357
11
66.9521
21
-67.6358
0
LINE
8
BLACK
6
CONTINUOUS
10
66.9521
20
-67.6358
11
66.9521
21
-67.6358
0
LINE
8
BLACK
6
CONTINUOUS
10
66.9521
20
-67.6358
11
66.9599
21
-67.6373
0
LINE
8
BLACK
6
CONTINUOUS
10
66.9599
20
-67.6373
11
67.016
21
-67.6337
0
LINE
8
BLACK
6
CONTINUOUS
10
67.016
20
-67.6337
11
67.0239
21
-67.6335
0
LINE
8
BLACK
6
CONTINUOUS
10
67.0239
20
-67.6335
11
67.0399
21
-67.6335
0
LINE
8
BLACK
6
CONTINUOUS
10
67.0399
20
-67.6335
11
67.0557
21
-67.6315
0
LINE
8
BLACK
6
CONTINUOUS
10
67.0557
20
-67.6315
11
67.0636
21
-67.6308
0
LINE
8
BLACK
6
CONTINUOUS
10
67.0636
20
-67.6308
11
67.091
21
-67.629
0
LINE
8
BLACK
6
CONTINUOUS
10
67.091
20
-67.629
11
67.1117
21
-67.6277
0
LINE
8
BLACK
6
CONTINUOUS
10
67.1117
20
-67.6277
11
67.1117
21
-67.6277
0
LINE
8
BLACK
6
CONTINUOUS
10
67.1117
20
-67.6277
11
67.1196
21
-67.6272
0
LINE
8
BLACK
6
CONTINUOUS
10
67.1196
20
-67.6272
11
67.1272
21
-67.6248
0
LINE
8
BLACK
6
CONTINUOUS
10
67.1272
20
-67.6248
11
67.1275
21
-67.6247
0
LINE
8
BLACK
6
CONTINUOUS
10
67.1275
20
-67.6247
11
67.1506
21
-67.6195
0
LINE
8
BLACK
6
CONTINUOUS
10
67.1506
20
-67.6195
11
67.1509
21
-67.6195
0
LINE
8
BLACK
6
CONTINUOUS
10
67.1509
20
-67.6195
11
67.1509
21
-67.6195
0
LINE
8
BLACK
6
CONTINUOUS
10
67.1509
20
-67.6195
11
67.1588
21
-67.6185
0
LINE
8
BLACK
6
CONTINUOUS
10
67.1588
20
-67.6185
11
67.1662
21
-67.6156
0
LINE
8
BLACK
6
CONTINUOUS
10
67.1662
20
-67.6156
11
67.1662
21
-67.6156
0
LINE
8
BLACK
6
CONTINUOUS
10
67.1662
20
-67.6156
11
67.211
21
-67.5978
0
LINE
8
BLACK
6
CONTINUOUS
10
67.211
20
-67.5978
11
67.2184
21
-67.5951
0
LINE
8
BLACK
6
CONTINUOUS
10
67.2184
20
-67.5951
11
67.2719
21
-67.5778
0
LINE
8
BLACK
6
CONTINUOUS
10
67.2719
20
-67.5778
11
67.2786
21
-67.5735
0
LINE
8
BLACK
6
CONTINUOUS
10
67.2786
20
-67.5735
11
67.2788
21
-67.5733
0
LINE
8
BLACK
6
CONTINUOUS
10
67.2788
20
-67.5733
11
67.3
21
-67.5626
0
LINE
8
BLACK
6
CONTINUOUS
10
67.3
20
-67.5626
11
67.3002
21
-67.5625
0
LINE
8
BLACK
6
CONTINUOUS
10
67.3002
20
-67.5625
11
67.3003
21
-67.5625
0
LINE
8
BLACK
6
CONTINUOUS
10
67.3003
20
-67.5625
11
67.3076
21
-67.5596
0
LINE
8
BLACK
6
CONTINUOUS
10
67.3076
20
-67.5596
11
67.314
21
-67.5549
0
LINE
8
BLACK
6
CONTINUOUS
10
67.314
20
-67.5549
11
67.314
21
-67.5549
0
LINE
8
BLACK
6
CONTINUOUS
10
67.314
20
-67.5549
11
67.3531
21
-67.5265
0
LINE
8
BLACK
6
CONTINUOUS
10
67.3531
20
-67.5265
11
67.3596
21
-67.5221
0
LINE
8
BLACK
6
CONTINUOUS
10
67.3596
20
-67.5221
11
67.407
21
-67.492
0
LINE
8
BLACK
6
CONTINUOUS
10
67.407
20
-67.492
11
67.4127
21
-67.486
0
LINE
8
BLACK
6
CONTINUOUS
10
67.4127
20
-67.486
11
67.4304
21
-67.4703
0
LINE
8
BLACK
6
CONTINUOUS
10
67.4304
20
-67.4703
11
67.4307
21
-67.4701
0
LINE
8
BLACK
6
CONTINUOUS
10
67.4307
20
-67.4701
11
67.4307
21
-67.4701
0
LINE
8
BLACK
6
CONTINUOUS
10
67.4307
20
-67.4701
11
67.4371
21
-67.4655
0
LINE
8
BLACK
6
CONTINUOUS
10
67.4371
20
-67.4655
11
67.4422
21
-67.4594
0
LINE
8
BLACK
6
CONTINUOUS
10
67.4422
20
-67.4594
11
67.4729
21
-67.4222
0
LINE
8
BLACK
6
CONTINUOUS
10
67.4729
20
-67.4222
11
67.4781
21
-67.4163
0
LINE
8
BLACK
6
CONTINUOUS
10
67.4781
20
-67.4163
11
67.5112
21
-67.3811
0
LINE
8
BLACK
6
CONTINUOUS
10
67.5112
20
-67.3811
11
67.5112
21
-67.3811
0
LINE
8
BLACK
6
CONTINUOUS
10
67.5112
20
-67.3811
11
67.5166
21
-67.3753
0
LINE
8
BLACK
6
CONTINUOUS
10
67.5166
20
-67.3753
11
67.5206
21
-67.3681
0
LINE
8
BLACK
6
CONTINUOUS
10
67.5206
20
-67.3681
11
67.5339
21
-67.3485
0
LINE
8
BLACK
6
CONTINUOUS
10
67.5339
20
-67.3485
11
67.5341
21
-67.3483
0
LINE
8
BLACK
6
CONTINUOUS
10
67.5341
20
-67.3483
11
67.5341
21
-67.3482
0
LINE
8
BLACK
6
CONTINUOUS
10
67.5341
20
-67.3482
11
67.5391
21
-67.3421
0
LINE
8
BLACK
6
CONTINUOUS
10
67.5391
20
-67.3421
11
67.563
21
-67.2913
0
LINE
8
BLACK
6
CONTINUOUS
10
67.563
20
-67.2913
11
67.5666
21
-67.2843
0
LINE
8
BLACK
6
CONTINUOUS
10
67.5666
20
-67.2843
11
67.5937
21
-67.2351
0
LINE
8
BLACK
6
CONTINUOUS
10
67.5937
20
-67.2351
11
67.5957
21
-67.2274
0
LINE
8
BLACK
6
CONTINUOUS
10
67.5957
20
-67.2274
11
67.5957
21
-67.2274
0
LINE
8
BLACK
6
CONTINUOUS
10
67.5957
20
-67.2274
11
67.5957
21
-67.2271
0
LINE
8
BLACK
6
CONTINUOUS
10
67.5957
20
-67.2271
11
67.6038
21
-67.2048
0
LINE
8
BLACK
6
CONTINUOUS
10
67.6038
20
-67.2048
11
67.6039
21
-67.2045
0
LINE
8
BLACK
6
CONTINUOUS
10
67.6039
20
-67.2045
11
67.6039
21
-67.2045
0
LINE
8
BLACK
6
CONTINUOUS
10
67.6039
20
-67.2045
11
67.6073
21
-67.1973
0
LINE
8
BLACK
6
CONTINUOUS
10
67.6073
20
-67.1973
11
67.6178
21
-67.1422
0
LINE
8
BLACK
6
CONTINUOUS
10
67.6178
20
-67.1422
11
67.6195
21
-67.1344
0
LINE
8
BLACK
6
CONTINUOUS
10
67.6195
20
-67.1344
11
67.6315
21
-67.0877
0
LINE
8
BLACK
6
CONTINUOUS
10
67.6315
20
-67.0877
11
67.6315
21
-67.0877
0
LINE
8
BLACK
6
CONTINUOUS
10
67.6315
20
-67.0877
11
67.6335
21
-67.08
0
LINE
8
BLACK
6
CONTINUOUS
10
67.6335
20
-67.08
11
67.6335
21
-67.0718
0
LINE
8
BLACK
6
CONTINUOUS
10
67.6335
20
-67.0718
11
67.6357
21
-67.0482
0
LINE
8
BLACK
6
CONTINUOUS
10
67.6357
20
-67.0482
11
67.6358
21
-67.0479
0
LINE
8
BLACK
6
CONTINUOUS
10
67.6358
20
-67.0479
11
67.6358
21
-67.0479
0
LINE
8
BLACK
6
CONTINUOUS
10
67.6358
20
-67.0479
11
67.6373
21
-67.0401
0
LINE
8
BLACK
6
CONTINUOUS
10
67.6373
20
-67.0401
11
67.6337
21
-66.984
0
LINE
8
BLACK
6
CONTINUOUS
10
67.6337
20
-66.984
11
67.6335
21
-66.9761
0
LINE
8
BLACK
6
CONTINUOUS
10
67.6335
20
-66.9761
11
67.6335
21
-66.8748
0
LINE
8
BLACK
6
CONTINUOUS
10
67.6335
20
-66.8748
11
67.6535
21
-66.8067
0
LINE
8
BLACK
6
CONTINUOUS
10
67.6535
20
-66.8067
11
67.7098
21
-66.7591
0
LINE
8
BLACK
6
CONTINUOUS
10
67.7098
20
-66.7591
11
67.81
21
-66.716
0
LINE
8
BLACK
6
CONTINUOUS
10
67.81
20
-66.716
11
67.8143
21
-66.7142
0
LINE
8
BLACK
6
CONTINUOUS
10
67.8143
20
-66.7142
11
68.0365
21
-66.5766
0
LINE
8
BLACK
6
CONTINUOUS
10
68.0365
20
-66.5766
11
68.0401
21
-66.5736
0
LINE
8
BLACK
6
CONTINUOUS
10
68.0401
20
-66.5736
11
68.0401
21
-66.5736
0
LINE
8
BLACK
6
CONTINUOUS
10
68.0401
20
-66.5736
11
68.2324
21
-66.4108
0
LINE
8
BLACK
6
CONTINUOUS
10
68.2324
20
-66.4108
11
68.2324
21
-66.4108
0
LINE
8
BLACK
6
CONTINUOUS
10
68.2324
20
-66.4108
11
68.236
21
-66.4078
0
LINE
8
BLACK
6
CONTINUOUS
10
68.236
20
-66.4078
11
68.2857
21
-66.3512
0
LINE
8
BLACK
6
CONTINUOUS
10
68.2857
20
-66.3512
11
68.4053
21
-66.2148
0
LINE
8
BLACK
6
CONTINUOUS
10
68.4053
20
-66.2148
11
68.4053
21
-66.2148
0
LINE
8
BLACK
6
CONTINUOUS
10
68.4053
20
-66.2148
11
68.4083
21
-66.2113
0
LINE
8
BLACK
6
CONTINUOUS
10
68.4083
20
-66.2113
11
68.4296
21
-66.1783
0
LINE
8
BLACK
6
CONTINUOUS
10
68.4296
20
-66.1783
11
68.5472
21
-65.9954
0
LINE
8
BLACK
6
CONTINUOUS
10
68.5472
20
-65.9954
11
68.5497
21
-65.9914
0
LINE
8
BLACK
6
CONTINUOUS
10
68.5497
20
-65.9914
11
68.6571
21
-65.7531
0
LINE
8
BLACK
6
CONTINUOUS
10
68.6571
20
-65.7531
11
68.6853
21
-65.653
0
LINE
8
BLACK
6
CONTINUOUS
10
68.6853
20
-65.653
11
68.7268
21
-65.5061
0
LINE
8
BLACK
6
CONTINUOUS
10
68.7268
20
-65.5061
11
68.7268
21
-65.5061
0
LINE
8
BLACK
6
CONTINUOUS
10
68.7268
20
-65.5061
11
68.728
21
-65.5016
0
LINE
8
BLACK
6
CONTINUOUS
10
68.728
20
-65.5016
11
68.745
21
-65.368
0
LINE
8
BLACK
6
CONTINUOUS
10
68.745
20
-65.368
11
68.7606
21
-65.2454
0
LINE
8
BLACK
6
CONTINUOUS
10
68.7606
20
-65.2454
11
68.7606
21
-65.2454
0
LINE
8
BLACK
6
CONTINUOUS
10
68.7606
20
-65.2454
11
68.761
21
-65.2423
0
LINE
8
BLACK
6
CONTINUOUS
10
68.761
20
-65.2423
11
68.7634
21
-65.15
0
LINE
8
BLACK
6
CONTINUOUS
10
68.7634
20
-65.15
11
68.7597
21
-65.0992
0
LINE
8
BLACK
6
CONTINUOUS
10
68.7597
20
-65.0992
11
68.7444
21
-64.894
0
LINE
8
BLACK
6
CONTINUOUS
10
68.7444
20
-64.894
11
68.7444
21
-64.894
0
LINE
8
BLACK
6
CONTINUOUS
10
68.7444
20
-64.894
11
68.7441
21
-64.8893
0
LINE
8
BLACK
6
CONTINUOUS
10
68.7441
20
-64.8893
11
68.7336
21
-64.8431
0
LINE
8
BLACK
6
CONTINUOUS
10
68.7336
20
-64.8431
11
68.6874
21
-64.639
0
LINE
8
BLACK
6
CONTINUOUS
10
68.6874
20
-64.639
11
68.6864
21
-64.6344
0
LINE
8
BLACK
6
CONTINUOUS
10
68.6864
20
-64.6344
11
68.6676
21
-64.5861
0
LINE
8
BLACK
6
CONTINUOUS
10
68.6676
20
-64.5861
11
68.5933
21
-64.3952
0
LINE
8
BLACK
6
CONTINUOUS
10
68.5933
20
-64.3952
11
68.5933
21
-64.3952
0
LINE
8
BLACK
6
CONTINUOUS
10
68.5933
20
-64.3952
11
68.5916
21
-64.3908
0
LINE
8
BLACK
6
CONTINUOUS
10
68.5916
20
-64.3908
11
68.554
21
-64.325
0
LINE
8
BLACK
6
CONTINUOUS
10
68.554
20
-64.325
11
68.4839
21
-64.2023
0
LINE
8
BLACK
6
CONTINUOUS
10
68.4839
20
-64.2023
11
68.462
21
-64.1639
0
LINE
8
BLACK
6
CONTINUOUS
10
68.462
20
-64.1639
11
68.3001
21
-63.9586
0
LINE
8
BLACK
6
CONTINUOUS
10
68.3001
20
-63.9586
11
68.1098
21
-63.7796
0
LINE
8
BLACK
6
CONTINUOUS
10
68.1098
20
-63.7796
11
67.895
21
-63.6306
0
LINE
8
BLACK
6
CONTINUOUS
10
67.895
20
-63.6306
11
67.8908
21
-63.6285
0
LINE
8
BLACK
6
CONTINUOUS
10
67.8908
20
-63.6285
11
67.6648
21
-63.517
0
LINE
8
BLACK
6
CONTINUOUS
10
67.6648
20
-63.517
11
67.6648
21
-63.517
0
LINE
8
BLACK
6
CONTINUOUS
10
67.6648
20
-63.517
11
67.6606
21
-63.515
0
LINE
8
BLACK
6
CONTINUOUS
10
67.6606
20
-63.515
11
67.6144
21
-63.5002
0
LINE
8
BLACK
6
CONTINUOUS
10
67.6144
20
-63.5002
11
67.4161
21
-63.4367
0
LINE
8
BLACK
6
CONTINUOUS
10
67.4161
20
-63.4367
11
67.4117
21
-63.4353
0
LINE
8
BLACK
6
CONTINUOUS
10
67.4117
20
-63.4353
11
67.1537
21
-63.3933
0
LINE
8
BLACK
6
CONTINUOUS
10
67.1537
20
-63.3933
11
67.0399
21
-63.3918
0
LINE
8
BLACK
6
CONTINUOUS
10
67.0399
20
-63.3918
11
66.897
21
-63.3899
0
LINE
8
BLACK
6
CONTINUOUS
10
66.897
20
-63.3899
11
66.897
21
-63.3899
0
LINE
8
BLACK
6
CONTINUOUS
10
66.897
20
-63.3899
11
66.8923
21
-63.3899
0
LINE
8
BLACK
6
CONTINUOUS
10
66.8923
20
-63.3899
11
66.6334
21
-63.4251
0
LINE
8
BLACK
6
CONTINUOUS
10
66.6334
20
-63.4251
11
66.3824
21
-63.4982
0
LINE
8
BLACK
6
CONTINUOUS
10
66.3824
20
-63.4982
11
66.3782
21
-63.5002
0
LINE
8
BLACK
6
CONTINUOUS
10
66.3782
20
-63.5002
11
66.3782
21
-63.5002
0
LINE
8
BLACK
6
CONTINUOUS
10
66.3782
20
-63.5002
11
66.3417
21
-63.517
0
LINE
8
BLACK
6
CONTINUOUS
10
66.3417
20
-63.517
11
66.1451
21
-63.6077
0
LINE
8
BLACK
6
CONTINUOUS
10
66.1451
20
-63.6077
11
66.1061
21
-63.6332
0
LINE
8
BLACK
6
CONTINUOUS
10
66.1061
20
-63.6332
11
65.9304
21
-63.7484
0
LINE
8
BLACK
6
CONTINUOUS
10
65.9304
20
-63.7484
11
65.9304
21
-63.7484
0
LINE
8
BLACK
6
CONTINUOUS
10
65.9304
20
-63.7484
11
65.9265
21
-63.751
0
LINE
8
BLACK
6
CONTINUOUS
10
65.9265
20
-63.751
11
65.7315
21
-63.925
0
LINE
8
BLACK
6
CONTINUOUS
10
65.7315
20
-63.925
11
65.5644
21
-64.126
0
LINE
8
BLACK
6
CONTINUOUS
10
65.5644
20
-64.126
11
65.5619
21
-64.13
0
LINE
8
BLACK
6
CONTINUOUS
10
65.5619
20
-64.13
11
65.4465
21
-64.3203
0
LINE
8
BLACK
6
CONTINUOUS
10
65.4465
20
-64.3203
11
65.4288
21
-64.3494
0
LINE
8
BLACK
6
CONTINUOUS
10
65.4288
20
-64.3494
11
65.3277
21
-64.5905
0
LINE
8
BLACK
6
CONTINUOUS
10
65.3277
20
-64.5905
11
65.2634
21
-64.8438
0
LINE
8
BLACK
6
CONTINUOUS
10
65.2634
20
-64.8438
11
65.2629
21
-64.8484
0
LINE
8
BLACK
6
CONTINUOUS
10
65.2629
20
-64.8484
11
65.2629
21
-64.8484
0
LINE
8
BLACK
6
CONTINUOUS
10
65.2629
20
-64.8484
11
65.2592
21
-64.8848
0
LINE
8
BLACK
6
CONTINUOUS
10
65.2592
20
-64.8848
11
65.2372
21
-65.1038
0
LINE
8
BLACK
6
CONTINUOUS
10
65.2372
20
-65.1038
11
65.2374
21
-65.1085
0
LINE
8
BLACK
6
CONTINUOUS
10
65.2374
20
-65.1085
11
65.2374
21
-65.1085
0
LINE
8
BLACK
6
CONTINUOUS
10
65.2374
20
-65.1085
11
65.24
21
-65.1627
0
LINE
8
BLACK
6
CONTINUOUS
10
65.24
20
-65.1627
11
65.2497
21
-65.3649
0
LINE
8
BLACK
6
CONTINUOUS
10
65.2497
20
-65.3649
11
65.3007
21
-65.6213
0
LINE
8
BLACK
6
CONTINUOUS
10
65.3007
20
-65.6213
11
65.389
21
-65.8673
0
LINE
8
BLACK
6
CONTINUOUS
10
65.389
20
-65.8673
11
65.4217
21
-65.9281
0
LINE
8
BLACK
6
CONTINUOUS
10
65.4217
20
-65.9281
11
65.4955
21
-66.0654
0
LINE
8
BLACK
6
CONTINUOUS
10
65.4955
20
-66.0654
11
65.5127
21
-66.0975
0
LINE
8
BLACK
6
CONTINUOUS
10
65.5127
20
-66.0975
11
65.5155
21
-66.1012
0
LINE
8
BLACK
6
CONTINUOUS
10
65.5155
20
-66.1012
11
65.5155
21
-66.1012
0
LINE
8
BLACK
6
CONTINUOUS
10
65.5155
20
-66.1012
11
65.5632
21
-66.1651
0
LINE
8
BLACK
6
CONTINUOUS
10
65.5632
20
-66.1651
11
65.588
21
-66.2317
0
LINE
8
BLACK
6
CONTINUOUS
10
65.588
20
-66.2317
11
65.5728
21
-66.301
0
LINE
8
BLACK
6
CONTINUOUS
10
65.5728
20
-66.301
11
65.5225
21
-66.3512
0
LINE
8
BLACK
6
CONTINUOUS
10
65.5225
20
-66.3512
11
65.4623
21
-66.3665
0
LINE
8
BLACK
6
CONTINUOUS
10
65.4623
20
-66.3665
11
59.9466
21
-66.3665
0
LINE
8
BLACK
6
CONTINUOUS
10
59.9466
20
-66.3665
11
59.8784
21
-66.3465
0
LINE
8
BLACK
6
CONTINUOUS
10
59.8784
20
-66.3465
11
59.8319
21
-66.2928
0
LINE
8
BLACK
6
CONTINUOUS
10
59.8319
20
-66.2928
11
59.8218
21
-66.2226
0
LINE
8
BLACK
6
CONTINUOUS
10
59.8218
20
-66.2226
11
59.8513
21
-66.158
0
LINE
8
BLACK
6
CONTINUOUS
10
59.8513
20
-66.158
11
59.8734
21
-66.1379
0
LINE
8
BLACK
6
CONTINUOUS
10
59.8734
20
-66.1379
11
59.9242
21
-66.1017
0
LINE
8
BLACK
6
CONTINUOUS
10
59.9242
20
-66.1017
11
59.9242
21
-66.1016
0
LINE
8
BLACK
6
CONTINUOUS
10
59.9242
20
-66.1016
11
59.9284
21
-66.0987
0
LINE
8
BLACK
6
CONTINUOUS
10
59.9284
20
-66.0987
11
60.0954
21
-65.9323
0
LINE
8
BLACK
6
CONTINUOUS
10
60.0954
20
-65.9323
11
60.233
21
-65.7408
0
LINE
8
BLACK
6
CONTINUOUS
10
60.233
20
-65.7408
11
60.2943
21
-65.6167
0
LINE
8
BLACK
6
CONTINUOUS
10
60.2943
20
-65.6167
11
60.3351
21
-65.5342
0
LINE
8
BLACK
6
CONTINUOUS
10
60.3351
20
-65.5342
11
60.3351
21
-65.5342
0
LINE
8
BLACK
6
CONTINUOUS
10
60.3351
20
-65.5342
11
60.3374
21
-65.5295
0
LINE
8
BLACK
6
CONTINUOUS
10
60.3374
20
-65.5295
11
60.4059
21
-65.304
0
LINE
8
BLACK
6
CONTINUOUS
10
60.4059
20
-65.304
11
60.4066
21
-65.2988
0
LINE
8
BLACK
6
CONTINUOUS
10
60.4066
20
-65.2988
11
60.4363
21
-65.0736
0
LINE
8
BLACK
6
CONTINUOUS
10
60.4363
20
-65.0736
11
60.4363
21
-65.0736
0
LINE
8
BLACK
6
CONTINUOUS
10
60.4363
20
-65.0736
11
60.4367
21
-65.0703
0
LINE
8
BLACK
6
CONTINUOUS
10
60.4367
20
-65.0703
11
60.4384
21
-65
0
LINE
8
BLACK
6
CONTINUOUS
10
60.4384
20
-65
11
60.426
21
-64.8484
0
LINE
8
BLACK
6
CONTINUOUS
10
60.426
20
-64.8484
11
60.4195
21
-64.7702
0
LINE
8
BLACK
6
CONTINUOUS
10
60.4195
20
-64.7702
11
60.4195
21
-64.7702
0
LINE
8
BLACK
6
CONTINUOUS
10
60.4195
20
-64.7702
11
60.4191
21
-64.7651
0
LINE
8
BLACK
6
CONTINUOUS
10
60.4191
20
-64.7651
11
60.3617
21
-64.5364
0
LINE
8
BLACK
6
CONTINUOUS
10
60.3617
20
-64.5364
11
60.2677
21
-64.3203
0
LINE
8
BLACK
6
CONTINUOUS
10
60.2677
20
-64.3203
11
60.1396
21
-64.1224
0
LINE
8
BLACK
6
CONTINUOUS
10
60.1396
20
-64.1224
11
60.1319
21
-64.1138
0
LINE
8
BLACK
6
CONTINUOUS
10
60.1319
20
-64.1138
11
59.9845
21
-63.9518
0
LINE
8
BLACK
6
CONTINUOUS
10
59.9845
20
-63.9518
11
59.9845
21
-63.9518
0
LINE
8
BLACK
6
CONTINUOUS
10
59.9845
20
-63.9518
11
59.981
21
-63.948
0
LINE
8
BLACK
6
CONTINUOUS
10
59.981
20
-63.948
11
59.9769
21
-63.9448
0
LINE
8
BLACK
6
CONTINUOUS
10
59.9769
20
-63.9448
11
59.9769
21
-63.9448
0
LINE
8
BLACK
6
CONTINUOUS
10
59.9769
20
-63.9448
11
59.8553
21
-63.8488
0
LINE
8
BLACK
6
CONTINUOUS
10
59.8553
20
-63.8488
11
59.8143
21
-63.7908
0
LINE
8
BLACK
6
CONTINUOUS
10
59.8143
20
-63.7908
11
59.811
21
-63.7199
0
LINE
8
BLACK
6
CONTINUOUS
10
59.811
20
-63.7199
11
59.8466
21
-63.6585
0
LINE
8
BLACK
6
CONTINUOUS
10
59.8466
20
-63.6585
11
59.8602
21
-63.6473
0
LINE
8
BLACK
6
CONTINUOUS
10
59.8602
20
-63.6473
11
59.9242
21
-63.6017
0
LINE
8
BLACK
6
CONTINUOUS
10
59.9242
20
-63.6017
11
59.9242
21
-63.6016
0
LINE
8
BLACK
6
CONTINUOUS
10
59.9242
20
-63.6016
11
59.9284
21
-63.5987
0
LINE
8
BLACK
6
CONTINUOUS
10
59.9284
20
-63.5987
11
60.0954
21
-63.4323
0
LINE
8
BLACK
6
CONTINUOUS
10
60.0954
20
-63.4323
11
60.233
21
-63.2408
0
LINE
8
BLACK
6
CONTINUOUS
10
60.233
20
-63.2408
11
60.3374
21
-63.0295
0
LINE
8
BLACK
6
CONTINUOUS
10
60.3374
20
-63.0295
11
60.4059
21
-62.804
0
LINE
8
BLACK
6
CONTINUOUS
10
60.4059
20
-62.804
11
60.4066
21
-62.7988
0
LINE
8
BLACK
6
CONTINUOUS
10
60.4066
20
-62.7988
11
60.4363
21
-62.5736
0
LINE
8
BLACK
6
CONTINUOUS
10
60.4363
20
-62.5736
11
60.4363
21
-62.5736
0
LINE
8
BLACK
6
CONTINUOUS
10
60.4363
20
-62.5736
11
60.4367
21
-62.5703
0
LINE
8
BLACK
6
CONTINUOUS
10
60.4367
20
-62.5703
11
60.4384
21
-62.5
0
LINE
8
BLACK
6
CONTINUOUS
10
60.4384
20
-62.5
11
60.432
21
-62.4222
0
LINE
8
BLACK
6
CONTINUOUS
10
60.432
20
-62.4222
11
60.4195
21
-62.2702
0
LINE
8
BLACK
6
CONTINUOUS
10
60.4195
20
-62.2702
11
60.4195
21
-62.2702
0
LINE
8
BLACK
6
CONTINUOUS
10
60.4195
20
-62.2702
11
60.4191
21
-62.2651
0
LINE
8
BLACK
6
CONTINUOUS
10
60.4191
20
-62.2651
11
60.3617
21
-62.0364
0
LINE
8
BLACK
6
CONTINUOUS
10
60.3617
20
-62.0364
11
60.2677
21
-61.8203
0
LINE
8
BLACK
6
CONTINUOUS
10
60.2677
20
-61.8203
11
60.1396
21
-61.6224
0
LINE
8
BLACK
6
CONTINUOUS
10
60.1396
20
-61.6224
11
60.1349
21
-61.6172
0
LINE
8
BLACK
6
CONTINUOUS
10
60.1349
20
-61.6172
11
59.9845
21
-61.4518
0
LINE
8
BLACK
6
CONTINUOUS
10
59.9845
20
-61.4518
11
59.9845
21
-61.4518
0
LINE
8
BLACK
6
CONTINUOUS
10
59.9845
20
-61.4518
11
59.981
21
-61.448
0
LINE
8
BLACK
6
CONTINUOUS
10
59.981
20
-61.448
11
59.9769
21
-61.4448
0
LINE
8
BLACK
6
CONTINUOUS
10
59.9769
20
-61.4448
11
59.9769
21
-61.4448
0
LINE
8
BLACK
6
CONTINUOUS
10
59.9769
20
-61.4448
11
59.8001
21
-61.3051
0
LINE
8
BLACK
6
CONTINUOUS
10
59.8001
20
-61.3051
11
59.8001
21
-61.3051
0
LINE
8
BLACK
6
CONTINUOUS
10
59.8001
20
-61.3051
11
59.796
21
-61.3019
0
LINE
8
BLACK
6
CONTINUOUS
10
59.796
20
-61.3019
11
59.5896
21
-61.188
0
LINE
8
BLACK
6
CONTINUOUS
10
59.5896
20
-61.188
11
59.5846
21
-61.1862
0
LINE
8
BLACK
6
CONTINUOUS
10
59.5846
20
-61.1862
11
59.5828
21
-61.1856
0
LINE
8
BLACK
6
CONTINUOUS
10
59.5828
20
-61.1856
11
59.5821
21
-61.1851
0
LINE
8
BLACK
6
CONTINUOUS
10
59.5821
20
-61.1851
11
59.58
21
-61.1841
0
LINE
8
BLACK
6
CONTINUOUS
10
59.58
20
-61.1841
11
59.5802
21
-61.1837
0
LINE
8
BLACK
6
CONTINUOUS
10
59.5802
20
-61.1837
11
59.5253
21
-61.144
0
LINE
8
BLACK
6
CONTINUOUS
10
59.5253
20
-61.144
11
59.4993
21
-61.0779
0
LINE
8
BLACK
6
CONTINUOUS
10
59.4993
20
-61.0779
11
59.5133
21
-61.0083
0
LINE
8
BLACK
6
CONTINUOUS
10
59.5133
20
-61.0083
11
59.5672
21
-60.9548
0
LINE
8
BLACK
6
CONTINUOUS
10
59.5672
20
-60.9548
11
59.5813
21
-60.9475
0
LINE
8
BLACK
6
CONTINUOUS
10
59.5813
20
-60.9475
11
59.6016
21
-60.9371
0
LINE
8
BLACK
6
CONTINUOUS
10
59.6016
20
-60.9371
11
59.7679
21
-60.8064
0
LINE
8
BLACK
6
CONTINUOUS
10
59.7679
20
-60.8064
11
59.7719
21
-60.8019
0
LINE
8
BLACK
6
CONTINUOUS
10
59.7719
20
-60.8019
11
59.7719
21
-60.8019
0
LINE
8
BLACK
6
CONTINUOUS
10
59.7719
20
-60.8019
11
59.9026
21
-60.6512
0
LINE
8
BLACK
6
CONTINUOUS
10
59.9026
20
-60.6512
11
59.9066
21
-60.6466
0
LINE
8
BLACK
6
CONTINUOUS
10
59.9066
20
-60.6466
11
59.9096
21
-60.6415
0
LINE
8
BLACK
6
CONTINUOUS
10
59.9096
20
-60.6415
11
59.9096
21
-60.6414
0
LINE
8
BLACK
6
CONTINUOUS
10
59.9096
20
-60.6414
11
60.0095
21
-60.4687
0
LINE
8
BLACK
6
CONTINUOUS
10
60.0095
20
-60.4687
11
60.0125
21
-60.4635
0
LINE
8
BLACK
6
CONTINUOUS
10
60.0125
20
-60.4635
11
60.0819
21
-60.2637
0
LINE
8
BLACK
6
CONTINUOUS
10
60.0819
20
-60.2637
11
60.0965
21
-60.1627
0
LINE
8
BLACK
6
CONTINUOUS
10
60.0965
20
-60.1627
11
60.1114
21
-60.0603
0
LINE
8
BLACK
6
CONTINUOUS
10
60.1114
20
-60.0603
11
60.1114
21
-60.0603
0
LINE
8
BLACK
6
CONTINUOUS
10
60.1114
20
-60.0603
11
60.1122
21
-60.0544
0
LINE
8
BLACK
6
CONTINUOUS
10
60.1122
20
-60.0544
11
60.1024
21
-59.8431
0
LINE
8
BLACK
6
CONTINUOUS
10
60.1024
20
-59.8431
11
60.0664
21
-59.6938
0
LINE
8
BLACK
6
CONTINUOUS
10
60.0664
20
-59.6938
11
60.0543
21
-59.6433
0
LINE
8
BLACK
6
CONTINUOUS
10
60.0543
20
-59.6433
11
60.0543
21
-59.6433
0
LINE
8
BLACK
6
CONTINUOUS
10
60.0543
20
-59.6433
11
60.0529
21
-59.6375
0
LINE
8
BLACK
6
CONTINUOUS
10
60.0529
20
-59.6375
11
60.0095
21
-59.5421
0
LINE
8
BLACK
6
CONTINUOUS
10
60.0095
20
-59.5421
11
59.9833
21
-59.4844
0
LINE
8
BLACK
6
CONTINUOUS
10
59.9833
20
-59.4844
11
59.9653
21
-59.4449
0
LINE
8
BLACK
6
CONTINUOUS
10
59.9653
20
-59.4449
11
59.8429
21
-59.2724
0
LINE
8
BLACK
6
CONTINUOUS
10
59.8429
20
-59.2724
11
59.6901
21
-59.1261
0
LINE
8
BLACK
6
CONTINUOUS
10
59.6901
20
-59.1261
11
59.5535
21
-59.0379
0
LINE
8
BLACK
6
CONTINUOUS
10
59.5535
20
-59.0379
11
59.5071
21
-58.9841
0
LINE
8
BLACK
6
CONTINUOUS
10
59.5071
20
-58.9841
11
59.4972
21
-58.9138
0
LINE
8
BLACK
6
CONTINUOUS
10
59.4972
20
-58.9138
11
59.5268
21
-58.8493
0
LINE
8
BLACK
6
CONTINUOUS
10
59.5268
20
-58.8493
11
59.5664
21
-58.8189
0
LINE
8
BLACK
6
CONTINUOUS
10
59.5664
20
-58.8189
11
59.7319
21
-58.7378
0
LINE
8
BLACK
6
CONTINUOUS
10
59.7319
20
-58.7378
11
59.7319
21
-58.7378
0
LINE
8
BLACK
6
CONTINUOUS
10
59.7319
20
-58.7378
11
59.7365
21
-58.7355
0
LINE
8
BLACK
6
CONTINUOUS
10
59.7365
20
-58.7355
11
59.7407
21
-58.7325
0
LINE
8
BLACK
6
CONTINUOUS
10
59.7407
20
-58.7325
11
59.7407
21
-58.7325
0
LINE
8
BLACK
6
CONTINUOUS
10
59.7407
20
-58.7325
11
59.9242
21
-58.6017
0
LINE
8
BLACK
6
CONTINUOUS
10
59.9242
20
-58.6017
11
59.9242
21
-58.6017
0
LINE
8
BLACK
6
CONTINUOUS
10
59.9242
20
-58.6017
11
59.9284
21
-58.5987
0
LINE
8
BLACK
6
CONTINUOUS
10
59.9284
20
-58.5987
11
60.0954
21
-58.4323
0
LINE
8
BLACK
6
CONTINUOUS
10
60.0954
20
-58.4323
11
60.1448
21
-58.3636
0
LINE
8
BLACK
6
CONTINUOUS
10
60.1448
20
-58.3636
11
60.2299
21
-58.245
0
LINE
8
BLACK
6
CONTINUOUS
10
60.2299
20
-58.245
11
60.233
21
-58.2408
0
LINE
8
BLACK
6
CONTINUOUS
10
60.233
20
-58.2408
11
60.3374
21
-58.0295
0
LINE
8
BLACK
6
CONTINUOUS
10
60.3374
20
-58.0295
11
60.4059
21
-57.804
0
LINE
8
BLACK
6
CONTINUOUS
10
60.4059
20
-57.804
11
60.4066
21
-57.7988
0
LINE
8
BLACK
6
CONTINUOUS
10
60.4066
20
-57.7988
11
60.4363
21
-57.5736
0
LINE
8
BLACK
6
CONTINUOUS
10
60.4363
20
-57.5736
11
60.4363
21
-57.5736
0
LINE
8
BLACK
6
CONTINUOUS
10
60.4363
20
-57.5736
11
60.4367
21
-57.5703
0
LINE
8
BLACK
6
CONTINUOUS
10
60.4367
20
-57.5703
11
60.4384
21
-57.5
0
LINE
8
BLACK
6
CONTINUOUS
10
60.4384
20
-57.5
11
60.432
21
-57.4222
0
LINE
8
BLACK
6
CONTINUOUS
10
60.432
20
-57.4222
11
60.4195
21
-57.2702
0
LINE
8
BLACK
6
CONTINUOUS
10
60.4195
20
-57.2702
11
60.4195
21
-57.2702
0
LINE
8
BLACK
6
CONTINUOUS
10
60.4195
20
-57.2702
11
60.4191
21
-57.2651
0
LINE
8
BLACK
6
CONTINUOUS
10
60.4191
20
-57.2651
11
60.3617
21
-57.0364
0
LINE
8
BLACK
6
CONTINUOUS
10
60.3617
20
-57.0364
11
60.2677
21
-56.8203
0
LINE
8
BLACK
6
CONTINUOUS
10
60.2677
20
-56.8203
11
60.1396
21
-56.6224
0
LINE
8
BLACK
6
CONTINUOUS
10
60.1396
20
-56.6224
11
60.1304
21
-56.6122
0
LINE
8
BLACK
6
CONTINUOUS
10
60.1304
20
-56.6122
11
60.0821
21
-56.5591
0
LINE
8
BLACK
6
CONTINUOUS
10
60.0821
20
-56.5591
11
60.051
21
-56.4952
0
LINE
8
BLACK
6
CONTINUOUS
10
60.051
20
-56.4952
11
60.0594
21
-56.4247
0
LINE
8
BLACK
6
CONTINUOUS
10
60.0594
20
-56.4247
11
60.0938
21
-56.3781
0
LINE
8
BLACK
6
CONTINUOUS
10
60.0938
20
-56.3781
11
60.2108
21
-56.2791
0
LINE
8
BLACK
6
CONTINUOUS
10
60.2108
20
-56.2791
11
60.2324
21
-56.2608
0
LINE
8
BLACK
6
CONTINUOUS
10
60.2324
20
-56.2608
11
60.2324
21
-56.2608
0
LINE
8
BLACK
6
CONTINUOUS
10
60.2324
20
-56.2608
11
60.236
21
-56.2578
0
LINE
8
BLACK
6
CONTINUOUS
10
60.236
20
-56.2578
11
60.367
21
-56.1084
0
LINE
8
BLACK
6
CONTINUOUS
10
60.367
20
-56.1084
11
60.4053
21
-56.0648
0
LINE
8
BLACK
6
CONTINUOUS
10
60.4053
20
-56.0648
11
60.4053
21
-56.0648
0
LINE
8
BLACK
6
CONTINUOUS
10
60.4053
20
-56.0648
11
60.4083
21
-56.0613
0
LINE
8
BLACK
6
CONTINUOUS
10
60.4083
20
-56.0613
11
60.5497
21
-55.8414
0
LINE
8
BLACK
6
CONTINUOUS
10
60.5497
20
-55.8414
11
60.6571
21
-55.6031
0
LINE
8
BLACK
6
CONTINUOUS
10
60.6571
20
-55.6031
11
60.6722
21
-55.5496
0
LINE
8
BLACK
6
CONTINUOUS
10
60.6722
20
-55.5496
11
60.7268
21
-55.3561
0
LINE
8
BLACK
6
CONTINUOUS
10
60.7268
20
-55.3561
11
60.7268
21
-55.3561
0
LINE
8
BLACK
6
CONTINUOUS
10
60.7268
20
-55.3561
11
60.728
21
-55.3516
0
LINE
8
BLACK
6
CONTINUOUS
10
60.728
20
-55.3516
11
60.7448
21
-55.2195
0
LINE
8
BLACK
6
CONTINUOUS
10
60.7448
20
-55.2195
11
60.7606
21
-55.0954
0
LINE
8
BLACK
6
CONTINUOUS
10
60.7606
20
-55.0954
11
60.7606
21
-55.0954
0
LINE
8
BLACK
6
CONTINUOUS
10
60.7606
20
-55.0954
11
60.761
21
-55.0923
0
LINE
8
BLACK
6
CONTINUOUS
10
60.761
20
-55.0923
11
60.7619
21
-55.0602
0
LINE
8
BLACK
6
CONTINUOUS
10
60.7619
20
-55.0602
11
60.7633
21
-55.0032
0
LINE
8
BLACK
6
CONTINUOUS
10
60.7633
20
-55.0032
11
60.7634
21
-55
0
LINE
8
BLACK
6
CONTINUOUS
10
60.7634
20
-55
11
60.7594
21
-54.9454
0
LINE
8
BLACK
6
CONTINUOUS
10
60.7594
20
-54.9454
11
60.7444
21
-54.744
0
LINE
8
BLACK
6
CONTINUOUS
10
60.7444
20
-54.744
11
60.7444
21
-54.744
0
LINE
8
BLACK
6
CONTINUOUS
10
60.7444
20
-54.744
11
60.7441
21
-54.7393
0
LINE
8
BLACK
6
CONTINUOUS
10
60.7441
20
-54.7393
11
60.7421
21
-54.7306
0
LINE
8
BLACK
6
CONTINUOUS
10
60.7421
20
-54.7306
11
60.6874
21
-54.489
0
LINE
8
BLACK
6
CONTINUOUS
10
60.6874
20
-54.489
11
60.6864
21
-54.4844
0
LINE
8
BLACK
6
CONTINUOUS
10
60.6864
20
-54.4844
11
60.6847
21
-54.4801
0
LINE
8
BLACK
6
CONTINUOUS
10
60.6847
20
-54.4801
11
60.5933
21
-54.2452
0
LINE
8
BLACK
6
CONTINUOUS
10
60.5933
20
-54.2452
11
60.5933
21
-54.2452
0
LINE
8
BLACK
6
CONTINUOUS
10
60.5933
20
-54.2452
11
60.5916
21
-54.2408
0
LINE
8
BLACK
6
CONTINUOUS
10
60.5916
20
-54.2408
11
60.5756
21
-54.2128
0
LINE
8
BLACK
6
CONTINUOUS
10
60.5756
20
-54.2128
11
60.5036
21
-54.0868
0
LINE
8
BLACK
6
CONTINUOUS
10
60.5036
20
-54.0868
11
60.462
21
-54.0139
0
LINE
8
BLACK
6
CONTINUOUS
10
60.462
20
-54.0139
11
60.3001
21
-53.8086
0
LINE
8
BLACK
6
CONTINUOUS
10
60.3001
20
-53.8086
11
60.1098
21
-53.6296
0
LINE
8
BLACK
6
CONTINUOUS
10
60.1098
20
-53.6296
11
59.895
21
-53.4806
0
LINE
8
BLACK
6
CONTINUOUS
10
59.895
20
-53.4806
11
59.8908
21
-53.4785
0
LINE
8
BLACK
6
CONTINUOUS
10
59.8908
20
-53.4785
11
59.6648
21
-53.367
0
LINE
8
BLACK
6
CONTINUOUS
10
59.6648
20
-53.367
11
59.6648
21
-53.367
0
LINE
8
BLACK
6
CONTINUOUS
10
59.6648
20
-53.367
11
59.6606
21
-53.365
0
LINE
8
BLACK
6
CONTINUOUS
10
59.6606
20
-53.365
11
59.6144
21
-53.3502
0
LINE
8
BLACK
6
CONTINUOUS
10
59.6144
20
-53.3502
11
59.4161
21
-53.2867
0
LINE
8
BLACK
6
CONTINUOUS
10
59.4161
20
-53.2867
11
59.4117
21
-53.2853
0
LINE
8
BLACK
6
CONTINUOUS
10
59.4117
20
-53.2853
11
59.1537
21
-53.2433
0
LINE
8
BLACK
6
CONTINUOUS
10
59.1537
20
-53.2433
11
59.0399
21
-53.2418
0
LINE
8
BLACK
6
CONTINUOUS
10
59.0399
20
-53.2418
11
58.897
21
-53.2399
0
LINE
8
BLACK
6
CONTINUOUS
10
58.897
20
-53.2399
11
58.897
21
-53.2399
0
LINE
8
BLACK
6
CONTINUOUS
10
58.897
20
-53.2399
11
58.8923
21
-53.2399
0
LINE
8
BLACK
6
CONTINUOUS
10
58.8923
20
-53.2399
11
58.6334
21
-53.2751
0
LINE
8
BLACK
6
CONTINUOUS
10
58.6334
20
-53.2751
11
58.3824
21
-53.3482
0
LINE
8
BLACK
6
CONTINUOUS
10
58.3824
20
-53.3482
11
58.3782
21
-53.3502
0
LINE
8
BLACK
6
CONTINUOUS
10
58.3782
20
-53.3502
11
58.3782
21
-53.3502
0
LINE
8
BLACK
6
CONTINUOUS
10
58.3782
20
-53.3502
11
58.3417
21
-53.367
0
LINE
8
BLACK
6
CONTINUOUS
10
58.3417
20
-53.367
11
58.1451
21
-53.4577
0
LINE
8
BLACK
6
CONTINUOUS
10
58.1451
20
-53.4577
11
58.1068
21
-53.4828
0
LINE
8
BLACK
6
CONTINUOUS
10
58.1068
20
-53.4828
11
57.9304
21
-53.5984
0
LINE
8
BLACK
6
CONTINUOUS
10
57.9304
20
-53.5984
11
57.9304
21
-53.5984
0
LINE
8
BLACK
6
CONTINUOUS
10
57.9304
20
-53.5984
11
57.9265
21
-53.601
0
LINE
8
BLACK
6
CONTINUOUS
10
57.9265
20
-53.601
11
57.7315
21
-53.775
0
LINE
8
BLACK
6
CONTINUOUS
10
57.7315
20
-53.775
11
57.5644
21
-53.976
0
LINE
8
BLACK
6
CONTINUOUS
10
57.5644
20
-53.976
11
57.5619
21
-53.98
0
LINE
8
BLACK
6
CONTINUOUS
10
57.5619
20
-53.98
11
57.4323
21
-54.1936
0
LINE
8
BLACK
6
CONTINUOUS
10
57.4323
20
-54.1936
11
57.4288
21
-54.1994
0
LINE
8
BLACK
6
CONTINUOUS
10
57.4288
20
-54.1994
11
57.3277
21
-54.4405
0
LINE
8
BLACK
6
CONTINUOUS
10
57.3277
20
-54.4405
11
57.2634
21
-54.6938
0
LINE
8
BLACK
6
CONTINUOUS
10
57.2634
20
-54.6938
11
57.2372
21
-54.9538
0
LINE
8
BLACK
6
CONTINUOUS
10
57.2372
20
-54.9538
11
57.2374
21
-54.9585
0
LINE
8
BLACK
6
CONTINUOUS
10
57.2374
20
-54.9585
11
57.2374
21
-54.9585
0
LINE
8
BLACK
6
CONTINUOUS
10
57.2374
20
-54.9585
11
57.2417
21
-55.0484
0
LINE
8
BLACK
6
CONTINUOUS
10
57.2417
20
-55.0484
11
57.2497
21
-55.2149
0
LINE
8
BLACK
6
CONTINUOUS
10
57.2497
20
-55.2149
11
57.3007
21
-55.4713
0
LINE
8
BLACK
6
CONTINUOUS
10
57.3007
20
-55.4713
11
57.389
21
-55.7173
0
LINE
8
BLACK
6
CONTINUOUS
10
57.389
20
-55.7173
11
57.3912
21
-55.7214
0
LINE
8
BLACK
6
CONTINUOUS
10
57.3912
20
-55.7214
11
57.5086
21
-55.9398
0
LINE
8
BLACK
6
CONTINUOUS
10
57.5086
20
-55.9398
11
57.5127
21
-55.9475
0
LINE
8
BLACK
6
CONTINUOUS
10
57.5127
20
-55.9475
11
57.5155
21
-55.9512
0
LINE
8
BLACK
6
CONTINUOUS
10
57.5155
20
-55.9512
11
57.5155
21
-55.9512
0
LINE
8
BLACK
6
CONTINUOUS
10
57.5155
20
-55.9512
11
57.6663
21
-56.1532
0
LINE
8
BLACK
6
CONTINUOUS
10
57.6663
20
-56.1532
11
57.6663
21
-56.1532
0
LINE
8
BLACK
6
CONTINUOUS
10
57.6663
20
-56.1532
11
57.6691
21
-56.1569
0
LINE
8
BLACK
6
CONTINUOUS
10
57.6691
20
-56.1569
11
57.6724
21
-56.1602
0
LINE
8
BLACK
6
CONTINUOUS
10
57.6724
20
-56.1602
11
57.6724
21
-56.1602
0
LINE
8
BLACK
6
CONTINUOUS
10
57.6724
20
-56.1602
11
57.7924
21
-56.2791
0
LINE
8
BLACK
6
CONTINUOUS
10
57.7924
20
-56.2791
11
57.8547
21
-56.3409
0
LINE
8
BLACK
6
CONTINUOUS
10
57.8547
20
-56.3409
11
57.8585
21
-56.3437
0
LINE
8
BLACK
6
CONTINUOUS
10
57.8585
20
-56.3437
11
57.8585
21
-56.3437
0
LINE
8
BLACK
6
CONTINUOUS
10
57.8585
20
-56.3437
11
57.8977
21
-56.3724
0
LINE
8
BLACK
6
CONTINUOUS
10
57.8977
20
-56.3724
11
57.9408
21
-56.4289
0
LINE
8
BLACK
6
CONTINUOUS
10
57.9408
20
-56.4289
11
57.9466
21
-56.4996
0
LINE
8
BLACK
6
CONTINUOUS
10
57.9466
20
-56.4996
11
57.9143
21
-56.5611
0
LINE
8
BLACK
6
CONTINUOUS
10
57.9143
20
-56.5611
11
57.8937
21
-56.5827
0
LINE
8
BLACK
6
CONTINUOUS
10
57.8937
20
-56.5827
11
57.8821
21
-56.5948
0
LINE
8
BLACK
6
CONTINUOUS
10
57.8821
20
-56.5948
11
57.7493
21
-56.7895
0
LINE
8
BLACK
6
CONTINUOUS
10
57.7493
20
-56.7895
11
57.7471
21
-56.7942
0
LINE
8
BLACK
6
CONTINUOUS
10
57.7471
20
-56.7942
11
57.7471
21
-56.7942
0
LINE
8
BLACK
6
CONTINUOUS
10
57.7471
20
-56.7942
11
57.7328
21
-56.825
0
LINE
8
BLACK
6
CONTINUOUS
10
57.7328
20
-56.825
11
57.6501
21
-57.0033
0
LINE
8
BLACK
6
CONTINUOUS
10
57.6501
20
-57.0033
11
57.5871
21
-57.2305
0
LINE
8
BLACK
6
CONTINUOUS
10
57.5871
20
-57.2305
11
57.562
21
-57.4649
0
LINE
8
BLACK
6
CONTINUOUS
10
57.562
20
-57.4649
11
57.5623
21
-57.47
0
LINE
8
BLACK
6
CONTINUOUS
10
57.5623
20
-57.47
11
57.5623
21
-57.47
0
LINE
8
BLACK
6
CONTINUOUS
10
57.5623
20
-57.47
11
57.5753
21
-57.695
0
LINE
8
BLACK
6
CONTINUOUS
10
57.5753
20
-57.695
11
57.5753
21
-57.695
0
LINE
8
BLACK
6
CONTINUOUS
10
57.5753
20
-57.695
11
57.5756
21
-57.7002
0
LINE
8
BLACK
6
CONTINUOUS
10
57.5756
20
-57.7002
11
57.6274
21
-57.9301
0
LINE
8
BLACK
6
CONTINUOUS
10
57.6274
20
-57.9301
11
57.6294
21
-57.9349
0
LINE
8
BLACK
6
CONTINUOUS
10
57.6294
20
-57.9349
11
57.6294
21
-57.9349
0
LINE
8
BLACK
6
CONTINUOUS
10
57.6294
20
-57.9349
11
57.6696
21
-58.0342
0
LINE
8
BLACK
6
CONTINUOUS
10
57.6696
20
-58.0342
11
57.7161
21
-58.1485
0
LINE
8
BLACK
6
CONTINUOUS
10
57.7161
20
-58.1485
11
57.8393
21
-58.3495
0
LINE
8
BLACK
6
CONTINUOUS
10
57.8393
20
-58.3495
11
57.9936
21
-58.5277
0
LINE
8
BLACK
6
CONTINUOUS
10
57.9936
20
-58.5277
11
58.175
21
-58.6783
0
LINE
8
BLACK
6
CONTINUOUS
10
58.175
20
-58.6783
11
58.1794
21
-58.6809
0
LINE
8
BLACK
6
CONTINUOUS
10
58.1794
20
-58.6809
11
58.1794
21
-58.6809
0
LINE
8
BLACK
6
CONTINUOUS
10
58.1794
20
-58.6809
11
58.2729
21
-58.7355
0
LINE
8
BLACK
6
CONTINUOUS
10
58.2729
20
-58.7355
11
58.3785
21
-58.7972
0
LINE
8
BLACK
6
CONTINUOUS
10
58.3785
20
-58.7972
11
58.3833
21
-58.799
0
LINE
8
BLACK
6
CONTINUOUS
10
58.3833
20
-58.799
11
58.3833
21
-58.7991
0
LINE
8
BLACK
6
CONTINUOUS
10
58.3833
20
-58.7991
11
58.4228
21
-58.8141
0
LINE
8
BLACK
6
CONTINUOUS
10
58.4228
20
-58.8141
11
58.4793
21
-58.8571
0
LINE
8
BLACK
6
CONTINUOUS
10
58.4793
20
-58.8571
11
58.5036
21
-58.9238
0
LINE
8
BLACK
6
CONTINUOUS
10
58.5036
20
-58.9238
11
58.4879
21
-58.9931
0
LINE
8
BLACK
6
CONTINUOUS
10
58.4879
20
-58.9931
11
58.4355
21
-59.0438
0
LINE
8
BLACK
6
CONTINUOUS
10
58.4355
20
-59.0438
11
58.3984
21
-59.0629
0
LINE
8
BLACK
6
CONTINUOUS
10
58.3984
20
-59.0629
11
58.2321
21
-59.1936
0
LINE
8
BLACK
6
CONTINUOUS
10
58.2321
20
-59.1936
11
58.2281
21
-59.1981
0
LINE
8
BLACK
6
CONTINUOUS
10
58.2281
20
-59.1981
11
58.2281
21
-59.1981
0
LINE
8
BLACK
6
CONTINUOUS
10
58.2281
20
-59.1981
11
58.1096
21
-59.3348
0
LINE
8
BLACK
6
CONTINUOUS
10
58.1096
20
-59.3348
11
58.0934
21
-59.3534
0
LINE
8
BLACK
6
CONTINUOUS
10
58.0934
20
-59.3534
11
58.0904
21
-59.3585
0
LINE
8
BLACK
6
CONTINUOUS
10
58.0904
20
-59.3585
11
58.0904
21
-59.3586
0
LINE
8
BLACK
6
CONTINUOUS
10
58.0904
20
-59.3586
11
58.0176
21
-59.4844
0
LINE
8
BLACK
6
CONTINUOUS
10
58.0176
20
-59.4844
11
57.9875
21
-59.5365
0
LINE
8
BLACK
6
CONTINUOUS
10
57.9875
20
-59.5365
11
57.9181
21
-59.7363
0
LINE
8
BLACK
6
CONTINUOUS
10
57.9181
20
-59.7363
11
57.8878
21
-59.9456
0
LINE
8
BLACK
6
CONTINUOUS
10
57.8878
20
-59.9456
11
57.8976
21
-60.1569
0
LINE
8
BLACK
6
CONTINUOUS
10
57.8976
20
-60.1569
11
57.899
21
-60.1627
0
LINE
8
BLACK
6
CONTINUOUS
10
57.899
20
-60.1627
11
57.899
21
-60.1627
0
LINE
8
BLACK
6
CONTINUOUS
10
57.899
20
-60.1627
11
57.9456
21
-60.3561
0
LINE
8
BLACK
6
CONTINUOUS
10
57.9456
20
-60.3561
11
57.9471
21
-60.3625
0
LINE
8
BLACK
6
CONTINUOUS
10
57.9471
20
-60.3625
11
57.9496
21
-60.368
0
LINE
8
BLACK
6
CONTINUOUS
10
57.9496
20
-60.368
11
57.9496
21
-60.368
0
LINE
8
BLACK
6
CONTINUOUS
10
57.9496
20
-60.368
11
57.9931
21
-60.4635
0
LINE
8
BLACK
6
CONTINUOUS
10
57.9931
20
-60.4635
11
58.0347
21
-60.5551
0
LINE
8
BLACK
6
CONTINUOUS
10
58.0347
20
-60.5551
11
58.1571
21
-60.7276
0
LINE
8
BLACK
6
CONTINUOUS
10
58.1571
20
-60.7276
11
58.3098
21
-60.8739
0
LINE
8
BLACK
6
CONTINUOUS
10
58.3098
20
-60.8739
11
58.4297
21
-60.9512
0
LINE
8
BLACK
6
CONTINUOUS
10
58.4297
20
-60.9512
11
58.4444
21
-60.9607
0
LINE
8
BLACK
6
CONTINUOUS
10
58.4444
20
-60.9607
11
58.4907
21
-61.0145
0
LINE
8
BLACK
6
CONTINUOUS
10
58.4907
20
-61.0145
11
58.5007
21
-61.0848
0
LINE
8
BLACK
6
CONTINUOUS
10
58.5007
20
-61.0848
11
58.4711
21
-61.1493
0
LINE
8
BLACK
6
CONTINUOUS
10
58.4711
20
-61.1493
11
58.4342
21
-61.1784
0
LINE
8
BLACK
6
CONTINUOUS
10
58.4342
20
-61.1784
11
58.2381
21
-61.2804
0
LINE
8
BLACK
6
CONTINUOUS
10
58.2381
20
-61.2804
11
58.2335
21
-61.2828
0
LINE
8
BLACK
6
CONTINUOUS
10
58.2335
20
-61.2828
11
58.2294
21
-61.2859
0
LINE
8
BLACK
6
CONTINUOUS
10
58.2294
20
-61.2859
11
58.2294
21
-61.2859
0
LINE
8
BLACK
6
CONTINUOUS
10
58.2294
20
-61.2859
11
58.0491
21
-61.4213
0
LINE
8
BLACK
6
CONTINUOUS
10
58.0491
20
-61.4213
11
58.045
21
-61.4244
0
LINE
8
BLACK
6
CONTINUOUS
10
58.045
20
-61.4244
11
57.8821
21
-61.5948
0
LINE
8
BLACK
6
CONTINUOUS
10
57.8821
20
-61.5948
11
57.7493
21
-61.7895
0
LINE
8
BLACK
6
CONTINUOUS
10
57.7493
20
-61.7895
11
57.7471
21
-61.7942
0
LINE
8
BLACK
6
CONTINUOUS
10
57.7471
20
-61.7942
11
57.7471
21
-61.7942
0
LINE
8
BLACK
6
CONTINUOUS
10
57.7471
20
-61.7942
11
57.7328
21
-61.825
0
LINE
8
BLACK
6
CONTINUOUS
10
57.7328
20
-61.825
11
57.6501
21
-62.0033
0
LINE
8
BLACK
6
CONTINUOUS
10
57.6501
20
-62.0033
11
57.5871
21
-62.2305
0
LINE
8
BLACK
6
CONTINUOUS
10
57.5871
20
-62.2305
11
57.562
21
-62.4649
0
LINE
8
BLACK
6
CONTINUOUS
10
57.562
20
-62.4649
11
57.5623
21
-62.47
0
LINE
8
BLACK
6
CONTINUOUS
10
57.5623
20
-62.47
11
57.5623
21
-62.47
0
LINE
8
BLACK
6
CONTINUOUS
10
57.5623
20
-62.47
11
57.5753
21
-62.695
0
LINE
8
BLACK
6
CONTINUOUS
10
57.5753
20
-62.695
11
57.5753
21
-62.695
0
LINE
8
BLACK
6
CONTINUOUS
10
57.5753
20
-62.695
11
57.5756
21
-62.7002
0
LINE
8
BLACK
6
CONTINUOUS
10
57.5756
20
-62.7002
11
57.6274
21
-62.9301
0
LINE
8
BLACK
6
CONTINUOUS
10
57.6274
20
-62.9301
11
57.6294
21
-62.9349
0
LINE
8
BLACK
6
CONTINUOUS
10
57.6294
20
-62.9349
11
57.6294
21
-62.9349
0
LINE
8
BLACK
6
CONTINUOUS
10
57.6294
20
-62.9349
11
57.6696
21
-63.0342
0
LINE
8
BLACK
6
CONTINUOUS
10
57.6696
20
-63.0342
11
57.7161
21
-63.1485
0
LINE
8
BLACK
6
CONTINUOUS
10
57.7161
20
-63.1485
11
57.8393
21
-63.3495
0
LINE
8
BLACK
6
CONTINUOUS
10
57.8393
20
-63.3495
11
57.9936
21
-63.5277
0
LINE
8
BLACK
6
CONTINUOUS
10
57.9936
20
-63.5277
11
58.1376
21
-63.6473
0
LINE
8
BLACK
6
CONTINUOUS
10
58.1376
20
-63.6473
11
58.1461
21
-63.6543
0
LINE
8
BLACK
6
CONTINUOUS
10
58.1461
20
-63.6543
11
58.1858
21
-63.7132
0
LINE
8
BLACK
6
CONTINUOUS
10
58.1858
20
-63.7132
11
58.1873
21
-63.7842
0
LINE
8
BLACK
6
CONTINUOUS
10
58.1873
20
-63.7842
11
58.1502
21
-63.8448
0
LINE
8
BLACK
6
CONTINUOUS
10
58.1502
20
-63.8448
11
58.1413
21
-63.852
0
LINE
8
BLACK
6
CONTINUOUS
10
58.1413
20
-63.852
11
58.0901
21
-63.8905
0
LINE
8
BLACK
6
CONTINUOUS
10
58.0901
20
-63.8905
11
58.0687
21
-63.9065
0
LINE
8
BLACK
6
CONTINUOUS
10
58.0687
20
-63.9065
11
58.045
21
-63.9244
0
LINE
8
BLACK
6
CONTINUOUS
10
58.045
20
-63.9244
11
58.0224
21
-63.948
0
LINE
8
BLACK
6
CONTINUOUS
10
58.0224
20
-63.948
11
57.9152
21
-64.0602
0
LINE
8
BLACK
6
CONTINUOUS
10
57.9152
20
-64.0602
11
57.8821
21
-64.0948
0
LINE
8
BLACK
6
CONTINUOUS
10
57.8821
20
-64.0948
11
57.7493
21
-64.2895
0
LINE
8
BLACK
6
CONTINUOUS
10
57.7493
20
-64.2895
11
57.7471
21
-64.2942
0
LINE
8
BLACK
6
CONTINUOUS
10
57.7471
20
-64.2942
11
57.7471
21
-64.2942
0
LINE
8
BLACK
6
CONTINUOUS
10
57.7471
20
-64.2942
11
57.6794
21
-64.44
0
LINE
8
BLACK
6
CONTINUOUS
10
57.6794
20
-64.44
11
57.6501
21
-64.5033
0
LINE
8
BLACK
6
CONTINUOUS
10
57.6501
20
-64.5033
11
57.5871
21
-64.7305
0
LINE
8
BLACK
6
CONTINUOUS
10
57.5871
20
-64.7305
11
57.5865
21
-64.7356
0
LINE
8
BLACK
6
CONTINUOUS
10
57.5865
20
-64.7356
11
57.5634
21
-64.9516
0
LINE
8
BLACK
6
CONTINUOUS
10
57.5634
20
-64.9516
11
57.562
21
-64.9649
0
LINE
8
BLACK
6
CONTINUOUS
10
57.562
20
-64.9649
11
57.5623
21
-64.97
0
LINE
8
BLACK
6
CONTINUOUS
10
57.5623
20
-64.97
11
57.5623
21
-64.97
0
LINE
8
BLACK
6
CONTINUOUS
10
57.5623
20
-64.97
11
57.5753
21
-65.195
0
LINE
8
BLACK
6
CONTINUOUS
10
57.5753
20
-65.195
11
57.5753
21
-65.195
0
LINE
8
BLACK
6
CONTINUOUS
10
57.5753
20
-65.195
11
57.5756
21
-65.2002
0
LINE
8
BLACK
6
CONTINUOUS
10
57.5756
20
-65.2002
11
57.6274
21
-65.4301
0
LINE
8
BLACK
6
CONTINUOUS
10
57.6274
20
-65.4301
11
57.6294
21
-65.4349
0
LINE
8
BLACK
6
CONTINUOUS
10
57.6294
20
-65.4349
11
57.6294
21
-65.4349
0
LINE
8
BLACK
6
CONTINUOUS
10
57.6294
20
-65.4349
11
57.7141
21
-65.6438
0
LINE
8
BLACK
6
CONTINUOUS
10
57.7141
20
-65.6438
11
57.7161
21
-65.6485
0
LINE
8
BLACK
6
CONTINUOUS
10
57.7161
20
-65.6485
11
57.8393
21
-65.8495
0
LINE
8
BLACK
6
CONTINUOUS
10
57.8393
20
-65.8495
11
57.9936
21
-66.0277
0
LINE
8
BLACK
6
CONTINUOUS
10
57.9936
20
-66.0277
11
58.0909
21
-66.1085
0
LINE
8
BLACK
6
CONTINUOUS
10
58.0909
20
-66.1085
11
58.1331
21
-66.1436
0
LINE
8
BLACK
6
CONTINUOUS
10
58.1331
20
-66.1436
11
58.1728
21
-66.2025
0
LINE
8
BLACK
6
CONTINUOUS
10
58.1728
20
-66.2025
11
58.1743
21
-66.2734
0
LINE
8
BLACK
6
CONTINUOUS
10
58.1743
20
-66.2734
11
58.1372
21
-66.334
0
LINE
8
BLACK
6
CONTINUOUS
10
58.1372
20
-66.334
11
58.0732
21
-66.3648
0
LINE
8
BLACK
6
CONTINUOUS
10
58.0732
20
-66.3648
11
58.0527
21
-66.3665
0
LINE
8
BLACK
6
CONTINUOUS
10
58.0527
20
-66.3665
11
57.2082
21
-66.3665
0
LINE
8
BLACK
6
CONTINUOUS
10
57.2082
20
-66.3665
11
57.1401
21
-66.3465
0
LINE
8
BLACK
6
CONTINUOUS
10
57.1401
20
-66.3465
11
57.1209
21
-66.3302
0
LINE
8
BLACK
6
CONTINUOUS
10
57.1209
20
-66.3302
11
57.1206
21
-66.3305
0
LINE
8
BLACK
6
CONTINUOUS
10
57.1206
20
-66.3305
11
57.1157
21
-66.326
0
LINE
8
BLACK
6
CONTINUOUS
10
57.1157
20
-66.326
11
57.1113
21
-66.3211
0
LINE
8
BLACK
6
CONTINUOUS
10
57.1113
20
-66.3211
11
56.9934
21
-66.2355
0
LINE
8
BLACK
6
CONTINUOUS
10
56.9934
20
-66.2355
11
56.9621
21
-66.2128
0
LINE
8
BLACK
6
CONTINUOUS
10
56.9621
20
-66.2128
11
56.9621
21
-66.2128
0
LINE
8
BLACK
6
CONTINUOUS
10
56.9621
20
-66.2128
11
56.9568
21
-66.2089
0
LINE
8
BLACK
6
CONTINUOUS
10
56.9568
20
-66.2089
11
56.9507
21
-66.2062
0
LINE
8
BLACK
6
CONTINUOUS
10
56.9507
20
-66.2062
11
56.9507
21
-66.2062
0
LINE
8
BLACK
6
CONTINUOUS
10
56.9507
20
-66.2062
11
56.7883
21
-66.1339
0
LINE
8
BLACK
6
CONTINUOUS
10
56.7883
20
-66.1339
11
56.7883
21
-66.1339
0
LINE
8
BLACK
6
CONTINUOUS
10
56.7883
20
-66.1339
11
56.7823
21
-66.1312
0
LINE
8
BLACK
6
CONTINUOUS
10
56.7823
20
-66.1312
11
56.6889
21
-66.1114
0
LINE
8
BLACK
6
CONTINUOUS
10
56.6889
20
-66.1114
11
56.6019
21
-66.0929
0
LINE
8
BLACK
6
CONTINUOUS
10
56.6019
20
-66.0929
11
56.6019
21
-66.0929
0
LINE
8
BLACK
6
CONTINUOUS
10
56.6019
20
-66.0929
11
56.5955
21
-66.0915
0
LINE
8
BLACK
6
CONTINUOUS
10
56.5955
20
-66.0915
11
56.4045
21
-66.0915
0
LINE
8
BLACK
6
CONTINUOUS
10
56.4045
20
-66.0915
11
56.3981
21
-66.0929
0
LINE
8
BLACK
6
CONTINUOUS
10
56.3981
20
-66.0929
11
56.3981
21
-66.0929
0
LINE
8
BLACK
6
CONTINUOUS
10
56.3981
20
-66.0929
11
56.3111
21
-66.1114
0
LINE
8
BLACK
6
CONTINUOUS
10
56.3111
20
-66.1114
11
56.2177
21
-66.1312
0
LINE
8
BLACK
6
CONTINUOUS
10
56.2177
20
-66.1312
11
56.2117
21
-66.1339
0
LINE
8
BLACK
6
CONTINUOUS
10
56.2117
20
-66.1339
11
56.2117
21
-66.1339
0
LINE
8
BLACK
6
CONTINUOUS
10
56.2117
20
-66.1339
11
56.0493
21
-66.2062
0
LINE
8
BLACK
6
CONTINUOUS
10
56.0493
20
-66.2062
11
56.0493
21
-66.2062
0
LINE
8
BLACK
6
CONTINUOUS
10
56.0493
20
-66.2062
11
56.0432
21
-66.2089
0
LINE
8
BLACK
6
CONTINUOUS
10
56.0432
20
-66.2089
11
56.0379
21
-66.2128
0
LINE
8
BLACK
6
CONTINUOUS
10
56.0379
20
-66.2128
11
56.0379
21
-66.2128
0
LINE
8
BLACK
6
CONTINUOUS
10
56.0379
20
-66.2128
11
56.0066
21
-66.2355
0
LINE
8
BLACK
6
CONTINUOUS
10
56.0066
20
-66.2355
11
55.8887
21
-66.3211
0
LINE
8
BLACK
6
CONTINUOUS
10
55.8887
20
-66.3211
11
55.8843
21
-66.326
0
LINE
8
BLACK
6
CONTINUOUS
10
55.8843
20
-66.326
11
55.8843
21
-66.326
0
LINE
8
BLACK
6
CONTINUOUS
10
55.8843
20
-66.326
11
55.8724
21
-66.3392
0
LINE
8
BLACK
6
CONTINUOUS
10
55.8724
20
-66.3392
11
55.761
21
-66.4631
0
LINE
8
BLACK
6
CONTINUOUS
10
55.761
20
-66.4631
11
55.7577
21
-66.4688
0
LINE
8
BLACK
6
CONTINUOUS
10
55.7577
20
-66.4688
11
55.694
21
-66.5791
0
LINE
8
BLACK
6
CONTINUOUS
10
55.694
20
-66.5791
11
55.6655
21
-66.6284
0
LINE
8
BLACK
6
CONTINUOUS
10
55.6655
20
-66.6284
11
55.6065
21
-66.8101
0
LINE
8
BLACK
6
CONTINUOUS
10
55.6065
20
-66.8101
11
55.5865
21
-67
0
LINE
8
BLACK
6
CONTINUOUS
10
55.5865
20
-67
11
55.5872
21
-67.0066
0
LINE
8
BLACK
6
CONTINUOUS
10
55.5872
20
-67.0066
11
55.5899
21
-67.0322
0
LINE
8
BLACK
6
CONTINUOUS
10
62.353
20
-55.1569
11
62.3565
21
-55.1899
0
LINE
8
BLACK
6
CONTINUOUS
10
62.3565
20
-55.1899
11
62.4155
21
-55.3716
0
LINE
8
BLACK
6
CONTINUOUS
10
62.4155
20
-55.3716
11
62.511
21
-55.5369
0
LINE
8
BLACK
6
CONTINUOUS
10
62.511
20
-55.5369
11
62.5841
21
-55.6182
0
LINE
8
BLACK
6
CONTINUOUS
10
62.5841
20
-55.6182
11
62.6149
21
-55.6822
0
LINE
8
BLACK
6
CONTINUOUS
10
62.6149
20
-55.6822
11
62.6165
21
-55.7025
0
LINE
8
BLACK
6
CONTINUOUS
10
62.6165
20
-55.7025
11
62.6165
21
-59.9282
0
LINE
8
BLACK
6
CONTINUOUS
10
62.6165
20
-59.9282
11
62.6143
21
-59.9518
0
LINE
8
BLACK
6
CONTINUOUS
10
62.6143
20
-59.9518
11
62.6127
21
-59.9599
0
LINE
8
BLACK
6
CONTINUOUS
10
62.6127
20
-59.9599
11
62.6154
21
-60.0032
0
LINE
8
BLACK
6
CONTINUOUS
10
62.6154
20
-60.0032
11
62.6163
21
-60.016
0
LINE
8
BLACK
6
CONTINUOUS
10
62.6163
20
-60.016
11
62.6165
21
-60.0239
0
LINE
8
BLACK
6
CONTINUOUS
10
62.6165
20
-60.0239
11
62.6165
21
-60.0399
0
LINE
8
BLACK
6
CONTINUOUS
10
62.6165
20
-60.0399
11
62.6185
21
-60.0557
0
LINE
8
BLACK
6
CONTINUOUS
10
62.6185
20
-60.0557
11
62.6192
21
-60.0636
0
LINE
8
BLACK
6
CONTINUOUS
10
62.6192
20
-60.0636
11
62.6228
21
-60.1197
0
LINE
8
BLACK
6
CONTINUOUS
10
62.6228
20
-60.1197
11
62.6252
21
-60.1272
0
LINE
8
BLACK
6
CONTINUOUS
10
62.6252
20
-60.1272
11
62.6253
21
-60.1275
0
LINE
8
BLACK
6
CONTINUOUS
10
62.6253
20
-60.1275
11
62.6305
21
-60.1506
0
LINE
8
BLACK
6
CONTINUOUS
10
62.6305
20
-60.1506
11
62.6305
21
-60.1509
0
LINE
8
BLACK
6
CONTINUOUS
10
62.6305
20
-60.1509
11
62.6305
21
-60.1509
0
LINE
8
BLACK
6
CONTINUOUS
10
62.6305
20
-60.1509
11
62.6315
21
-60.1588
0
LINE
8
BLACK
6
CONTINUOUS
10
62.6315
20
-60.1588
11
62.6344
21
-60.1662
0
LINE
8
BLACK
6
CONTINUOUS
10
62.6344
20
-60.1662
11
62.6344
21
-60.1662
0
LINE
8
BLACK
6
CONTINUOUS
10
62.6344
20
-60.1662
11
62.6522
21
-60.211
0
LINE
8
BLACK
6
CONTINUOUS
10
62.6522
20
-60.211
11
62.6549
21
-60.2184
0
LINE
8
BLACK
6
CONTINUOUS
10
62.6549
20
-60.2184
11
62.6722
21
-60.2719
0
LINE
8
BLACK
6
CONTINUOUS
10
62.6722
20
-60.2719
11
62.6765
21
-60.2786
0
LINE
8
BLACK
6
CONTINUOUS
10
62.6765
20
-60.2786
11
62.6765
21
-60.2786
0
LINE
8
BLACK
6
CONTINUOUS
10
62.6765
20
-60.2786
11
62.6766
21
-60.2788
0
LINE
8
BLACK
6
CONTINUOUS
10
62.6766
20
-60.2788
11
62.6874
21
-60.3
0
LINE
8
BLACK
6
CONTINUOUS
10
62.6874
20
-60.3
11
62.6875
21
-60.3002
0
LINE
8
BLACK
6
CONTINUOUS
10
62.6875
20
-60.3002
11
62.6875
21
-60.3003
0
LINE
8
BLACK
6
CONTINUOUS
10
62.6875
20
-60.3003
11
62.6904
21
-60.3076
0
LINE
8
BLACK
6
CONTINUOUS
10
62.6904
20
-60.3076
11
62.6951
21
-60.314
0
LINE
8
BLACK
6
CONTINUOUS
10
62.6951
20
-60.314
11
62.6951
21
-60.314
0
LINE
8
BLACK
6
CONTINUOUS
10
62.6951
20
-60.314
11
62.7235
21
-60.3531
0
LINE
8
BLACK
6
CONTINUOUS
10
62.7235
20
-60.3531
11
62.7279
21
-60.3596
0
LINE
8
BLACK
6
CONTINUOUS
10
62.7279
20
-60.3596
11
62.758
21
-60.407
0
LINE
8
BLACK
6
CONTINUOUS
10
62.758
20
-60.407
11
62.7638
21
-60.4124
0
LINE
8
BLACK
6
CONTINUOUS
10
62.7638
20
-60.4124
11
62.7638
21
-60.4124
0
LINE
8
BLACK
6
CONTINUOUS
10
62.7638
20
-60.4124
11
62.764
21
-60.4127
0
LINE
8
BLACK
6
CONTINUOUS
10
62.764
20
-60.4127
11
62.7797
21
-60.4304
0
LINE
8
BLACK
6
CONTINUOUS
10
62.7797
20
-60.4304
11
62.7845
21
-60.4371
0
LINE
8
BLACK
6
CONTINUOUS
10
62.7845
20
-60.4371
11
62.7906
21
-60.4422
0
LINE
8
BLACK
6
CONTINUOUS
10
62.7906
20
-60.4422
11
62.7906
21
-60.4422
0
LINE
8
BLACK
6
CONTINUOUS
10
62.7906
20
-60.4422
11
62.8278
21
-60.4729
0
LINE
8
BLACK
6
CONTINUOUS
10
62.8278
20
-60.4729
11
62.8337
21
-60.4781
0
LINE
8
BLACK
6
CONTINUOUS
10
62.8337
20
-60.4781
11
62.8689
21
-60.5112
0
LINE
8
BLACK
6
CONTINUOUS
10
62.8689
20
-60.5112
11
62.8689
21
-60.5112
0
LINE
8
BLACK
6
CONTINUOUS
10
62.8689
20
-60.5112
11
62.8747
21
-60.5166
0
LINE
8
BLACK
6
CONTINUOUS
10
62.8747
20
-60.5166
11
62.8819
21
-60.5206
0
LINE
8
BLACK
6
CONTINUOUS
10
62.8819
20
-60.5206
11
62.9015
21
-60.5339
0
LINE
8
BLACK
6
CONTINUOUS
10
62.9015
20
-60.5339
11
62.9017
21
-60.5341
0
LINE
8
BLACK
6
CONTINUOUS
10
62.9017
20
-60.5341
11
62.9018
21
-60.5341
0
LINE
8
BLACK
6
CONTINUOUS
10
62.9018
20
-60.5341
11
62.9079
21
-60.5391
0
LINE
8
BLACK
6
CONTINUOUS
10
62.9079
20
-60.5391
11
62.9302
21
-60.5496
0
LINE
8
BLACK
6
CONTINUOUS
10
62.9302
20
-60.5496
11
62.9587
21
-60.563
0
LINE
8
BLACK
6
CONTINUOUS
10
62.9587
20
-60.563
11
62.9657
21
-60.5666
0
LINE
8
BLACK
6
CONTINUOUS
10
62.9657
20
-60.5666
11
63.0149
21
-60.5937
0
LINE
8
BLACK
6
CONTINUOUS
10
63.0149
20
-60.5937
11
63.0226
21
-60.5957
0
LINE
8
BLACK
6
CONTINUOUS
10
63.0226
20
-60.5957
11
63.0226
21
-60.5957
0
LINE
8
BLACK
6
CONTINUOUS
10
63.0226
20
-60.5957
11
63.0229
21
-60.5957
0
LINE
8
BLACK
6
CONTINUOUS
10
63.0229
20
-60.5957
11
63.0452
21
-60.6038
0
LINE
8
BLACK
6
CONTINUOUS
10
63.0452
20
-60.6038
11
63.0455
21
-60.6039
0
LINE
8
BLACK
6
CONTINUOUS
10
63.0455
20
-60.6039
11
63.0455
21
-60.6039
0
LINE
8
BLACK
6
CONTINUOUS
10
63.0455
20
-60.6039
11
63.0527
21
-60.6073
0
LINE
8
BLACK
6
CONTINUOUS
10
63.0527
20
-60.6073
11
63.1078
21
-60.6178
0
LINE
8
BLACK
6
CONTINUOUS
10
63.1078
20
-60.6178
11
63.1156
21
-60.6195
0
LINE
8
BLACK
6
CONTINUOUS
10
63.1156
20
-60.6195
11
63.1496
21
-60.6283
0
LINE
8
BLACK
6
CONTINUOUS
10
63.1496
20
-60.6283
11
63.1623
21
-60.6315
0
LINE
8
BLACK
6
CONTINUOUS
10
63.1623
20
-60.6315
11
63.1623
21
-60.6315
0
LINE
8
BLACK
6
CONTINUOUS
10
63.1623
20
-60.6315
11
63.17
21
-60.6335
0
LINE
8
BLACK
6
CONTINUOUS
10
63.17
20
-60.6335
11
63.1782
21
-60.6335
0
LINE
8
BLACK
6
CONTINUOUS
10
63.1782
20
-60.6335
11
63.2018
21
-60.6357
0
LINE
8
BLACK
6
CONTINUOUS
10
63.2018
20
-60.6357
11
63.2021
21
-60.6358
0
LINE
8
BLACK
6
CONTINUOUS
10
63.2021
20
-60.6358
11
63.2021
21
-60.6358
0
LINE
8
BLACK
6
CONTINUOUS
10
63.2021
20
-60.6358
11
63.2099
21
-60.6373
0
LINE
8
BLACK
6
CONTINUOUS
10
63.2099
20
-60.6373
11
63.266
21
-60.6337
0
LINE
8
BLACK
6
CONTINUOUS
10
63.266
20
-60.6337
11
63.2739
21
-60.6335
0
LINE
8
BLACK
6
CONTINUOUS
10
63.2739
20
-60.6335
11
65.2703
21
-60.6335
0
LINE
8
BLACK
6
CONTINUOUS
10
65.2703
20
-60.6335
11
65.3384
21
-60.6535
0
LINE
8
BLACK
6
CONTINUOUS
10
65.3384
20
-60.6535
11
65.3849
21
-60.7072
0
LINE
8
BLACK
6
CONTINUOUS
10
65.3849
20
-60.7072
11
65.3855
21
-60.7086
0
LINE
8
BLACK
6
CONTINUOUS
10
65.3855
20
-60.7086
11
65.3855
21
-60.7086
0
LINE
8
BLACK
6
CONTINUOUS
10
65.3855
20
-60.7086
11
65.3874
21
-60.7128
0
LINE
8
BLACK
6
CONTINUOUS
10
65.3874
20
-60.7128
11
65.389
21
-60.7173
0
LINE
8
BLACK
6
CONTINUOUS
10
65.389
20
-60.7173
11
65.3912
21
-60.7214
0
LINE
8
BLACK
6
CONTINUOUS
10
65.3912
20
-60.7214
11
65.3912
21
-60.7214
0
LINE
8
BLACK
6
CONTINUOUS
10
65.3912
20
-60.7214
11
65.5086
21
-60.9398
0
LINE
8
BLACK
6
CONTINUOUS
10
65.5086
20
-60.9398
11
65.5127
21
-60.9475
0
LINE
8
BLACK
6
CONTINUOUS
10
65.5127
20
-60.9475
11
65.5155
21
-60.9512
0
LINE
8
BLACK
6
CONTINUOUS
10
65.5155
20
-60.9512
11
65.5155
21
-60.9512
0
LINE
8
BLACK
6
CONTINUOUS
10
65.5155
20
-60.9512
11
65.6663
21
-61.1532
0
LINE
8
BLACK
6
CONTINUOUS
10
65.6663
20
-61.1532
11
65.6663
21
-61.1532
0
LINE
8
BLACK
6
CONTINUOUS
10
65.6663
20
-61.1532
11
65.6691
21
-61.1569
0
LINE
8
BLACK
6
CONTINUOUS
10
65.6691
20
-61.1569
11
65.6724
21
-61.1602
0
LINE
8
BLACK
6
CONTINUOUS
10
65.6724
20
-61.1602
11
65.6724
21
-61.1602
0
LINE
8
BLACK
6
CONTINUOUS
10
65.6724
20
-61.1602
11
65.7993
21
-61.2859
0
LINE
8
BLACK
6
CONTINUOUS
10
65.7993
20
-61.2859
11
65.8547
21
-61.3409
0
LINE
8
BLACK
6
CONTINUOUS
10
65.8547
20
-61.3409
11
65.8585
21
-61.3437
0
LINE
8
BLACK
6
CONTINUOUS
10
65.8585
20
-61.3437
11
65.8585
21
-61.3437
0
LINE
8
BLACK
6
CONTINUOUS
10
65.8585
20
-61.3437
11
66.006
21
-61.4518
0
LINE
8
BLACK
6
CONTINUOUS
10
66.006
20
-61.4518
11
66.0655
21
-61.4955
0
LINE
8
BLACK
6
CONTINUOUS
10
66.0655
20
-61.4955
11
66.0697
21
-61.4977
0
LINE
8
BLACK
6
CONTINUOUS
10
66.0697
20
-61.4977
11
66.0697
21
-61.4977
0
LINE
8
BLACK
6
CONTINUOUS
10
66.0697
20
-61.4977
11
66.2927
21
-61.615
0
LINE
8
BLACK
6
CONTINUOUS
10
66.2927
20
-61.615
11
66.2927
21
-61.615
0
LINE
8
BLACK
6
CONTINUOUS
10
66.2927
20
-61.615
11
66.2968
21
-61.6172
0
LINE
8
BLACK
6
CONTINUOUS
10
66.2968
20
-61.6172
11
66.5436
21
-61.7033
0
LINE
8
BLACK
6
CONTINUOUS
10
66.5436
20
-61.7033
11
66.5482
21
-61.7042
0
LINE
8
BLACK
6
CONTINUOUS
10
66.5482
20
-61.7042
11
66.7958
21
-61.7512
0
LINE
8
BLACK
6
CONTINUOUS
10
66.7958
20
-61.7512
11
66.7958
21
-61.7512
0
LINE
8
BLACK
6
CONTINUOUS
10
66.7958
20
-61.7512
11
66.8004
21
-61.7521
0
LINE
8
BLACK
6
CONTINUOUS
10
66.8004
20
-61.7521
11
66.931
21
-61.7572
0
LINE
8
BLACK
6
CONTINUOUS
10
66.931
20
-61.7572
11
67.0569
21
-61.7622
0
LINE
8
BLACK
6
CONTINUOUS
10
67.0569
20
-61.7622
11
67.0569
21
-61.7622
0
LINE
8
BLACK
6
CONTINUOUS
10
67.0569
20
-61.7622
11
67.0615
21
-61.7624
0
LINE
8
BLACK
6
CONTINUOUS
10
67.0615
20
-61.7624
11
67.141
21
-61.7537
0
LINE
8
BLACK
6
CONTINUOUS
10
67.141
20
-61.7537
11
67.3167
21
-61.7344
0
LINE
8
BLACK
6
CONTINUOUS
10
67.3167
20
-61.7344
11
67.3167
21
-61.7344
0
LINE
8
BLACK
6
CONTINUOUS
10
67.3167
20
-61.7344
11
67.3214
21
-61.7339
0
LINE
8
BLACK
6
CONTINUOUS
10
67.3214
20
-61.7339
11
67.4341
21
-61.7042
0
LINE
8
BLACK
6
CONTINUOUS
10
67.4341
20
-61.7042
11
67.5696
21
-61.6685
0
LINE
8
BLACK
6
CONTINUOUS
10
67.5696
20
-61.6685
11
67.5696
21
-61.6685
0
LINE
8
BLACK
6
CONTINUOUS
10
67.5696
20
-61.6685
11
67.5741
21
-61.6674
0
LINE
8
BLACK
6
CONTINUOUS
10
67.5741
20
-61.6674
11
67.8143
21
-61.5642
0
LINE
8
BLACK
6
CONTINUOUS
10
67.8143
20
-61.5642
11
68.0365
21
-61.4266
0
LINE
8
BLACK
6
CONTINUOUS
10
68.0365
20
-61.4266
11
68.0401
21
-61.4236
0
LINE
8
BLACK
6
CONTINUOUS
10
68.0401
20
-61.4236
11
68.0401
21
-61.4236
0
LINE
8
BLACK
6
CONTINUOUS
10
68.0401
20
-61.4236
11
68.2324
21
-61.2608
0
LINE
8
BLACK
6
CONTINUOUS
10
68.2324
20
-61.2608
11
68.2324
21
-61.2608
0
LINE
8
BLACK
6
CONTINUOUS
10
68.2324
20
-61.2608
11
68.236
21
-61.2578
0
LINE
8
BLACK
6
CONTINUOUS
10
68.236
20
-61.2578
11
68.295
21
-61.1905
0
LINE
8
BLACK
6
CONTINUOUS
10
68.295
20
-61.1905
11
68.4053
21
-61.0648
0
LINE
8
BLACK
6
CONTINUOUS
10
68.4053
20
-61.0648
11
68.4053
21
-61.0648
0
LINE
8
BLACK
6
CONTINUOUS
10
68.4053
20
-61.0648
11
68.4083
21
-61.0613
0
LINE
8
BLACK
6
CONTINUOUS
10
68.4083
20
-61.0613
11
68.4384
21
-61.0145
0
LINE
8
BLACK
6
CONTINUOUS
10
68.4384
20
-61.0145
11
68.5289
21
-60.8739
0
LINE
8
BLACK
6
CONTINUOUS
10
68.5289
20
-60.8739
11
68.5497
21
-60.8414
0
LINE
8
BLACK
6
CONTINUOUS
10
68.5497
20
-60.8414
11
68.6571
21
-60.6031
0
LINE
8
BLACK
6
CONTINUOUS
10
68.6571
20
-60.6031
11
68.6597
21
-60.5937
0
LINE
8
BLACK
6
CONTINUOUS
10
68.6597
20
-60.5937
11
68.7268
21
-60.3561
0
LINE
8
BLACK
6
CONTINUOUS
10
68.7268
20
-60.3561
11
68.7268
21
-60.3561
0
LINE
8
BLACK
6
CONTINUOUS
10
68.7268
20
-60.3561
11
68.728
21
-60.3516
0
LINE
8
BLACK
6
CONTINUOUS
10
68.728
20
-60.3516
11
68.7448
21
-60.2195
0
LINE
8
BLACK
6
CONTINUOUS
10
68.7448
20
-60.2195
11
68.7606
21
-60.0954
0
LINE
8
BLACK
6
CONTINUOUS
10
68.7606
20
-60.0954
11
68.7606
21
-60.0954
0
LINE
8
BLACK
6
CONTINUOUS
10
68.7606
20
-60.0954
11
68.761
21
-60.0923
0
LINE
8
BLACK
6
CONTINUOUS
10
68.761
20
-60.0923
11
68.7618
21
-60.0636
0
LINE
8
BLACK
6
CONTINUOUS
10
68.7618
20
-60.0636
11
68.7628
21
-60.0239
0
LINE
8
BLACK
6
CONTINUOUS
10
68.7628
20
-60.0239
11
68.7634
21
-60
0
LINE
8
BLACK
6
CONTINUOUS
10
68.7634
20
-60
11
68.761
21
-59.9678
0
LINE
8
BLACK
6
CONTINUOUS
10
68.761
20
-59.9678
11
68.7444
21
-59.744
0
LINE
8
BLACK
6
CONTINUOUS
10
68.7444
20
-59.744
11
68.7444
21
-59.744
0
LINE
8
BLACK
6
CONTINUOUS
10
68.7444
20
-59.744
11
68.7441
21
-59.7393
0
LINE
8
BLACK
6
CONTINUOUS
10
68.7441
20
-59.7393
11
68.7421
21
-59.7306
0
LINE
8
BLACK
6
CONTINUOUS
10
68.7421
20
-59.7306
11
68.6874
21
-59.489
0
LINE
8
BLACK
6
CONTINUOUS
10
68.6874
20
-59.489
11
68.6864
21
-59.4844
0
LINE
8
BLACK
6
CONTINUOUS
10
68.6864
20
-59.4844
11
68.6354
21
-59.3534
0
LINE
8
BLACK
6
CONTINUOUS
10
68.6354
20
-59.3534
11
68.5933
21
-59.2452
0
LINE
8
BLACK
6
CONTINUOUS
10
68.5933
20
-59.2452
11
68.5933
21
-59.2452
0
LINE
8
BLACK
6
CONTINUOUS
10
68.5933
20
-59.2452
11
68.5916
21
-59.2408
0
LINE
8
BLACK
6
CONTINUOUS
10
68.5916
20
-59.2408
11
68.462
21
-59.0139
0
LINE
8
BLACK
6
CONTINUOUS
10
68.462
20
-59.0139
11
68.3001
21
-58.8086
0
LINE
8
BLACK
6
CONTINUOUS
10
68.3001
20
-58.8086
11
68.1098
21
-58.6296
0
LINE
8
BLACK
6
CONTINUOUS
10
68.1098
20
-58.6296
11
67.895
21
-58.4806
0
LINE
8
BLACK
6
CONTINUOUS
10
67.895
20
-58.4806
11
67.8908
21
-58.4785
0
LINE
8
BLACK
6
CONTINUOUS
10
67.8908
20
-58.4785
11
67.6648
21
-58.367
0
LINE
8
BLACK
6
CONTINUOUS
10
67.6648
20
-58.367
11
67.6648
21
-58.367
0
LINE
8
BLACK
6
CONTINUOUS
10
67.6648
20
-58.367
11
67.6606
21
-58.365
0
LINE
8
BLACK
6
CONTINUOUS
10
67.6606
20
-58.365
11
67.6246
21
-58.3534
0
LINE
8
BLACK
6
CONTINUOUS
10
67.6246
20
-58.3534
11
67.4161
21
-58.2867
0
LINE
8
BLACK
6
CONTINUOUS
10
67.4161
20
-58.2867
11
67.4117
21
-58.2853
0
LINE
8
BLACK
6
CONTINUOUS
10
67.4117
20
-58.2853
11
67.1537
21
-58.2433
0
LINE
8
BLACK
6
CONTINUOUS
10
67.1537
20
-58.2433
11
67.0399
21
-58.2418
0
LINE
8
BLACK
6
CONTINUOUS
10
67.0399
20
-58.2418
11
66.897
21
-58.2399
0
LINE
8
BLACK
6
CONTINUOUS
10
66.897
20
-58.2399
11
66.897
21
-58.2399
0
LINE
8
BLACK
6
CONTINUOUS
10
66.897
20
-58.2399
11
66.8923
21
-58.2399
0
LINE
8
BLACK
6
CONTINUOUS
10
66.8923
20
-58.2399
11
66.6334
21
-58.2751
0
LINE
8
BLACK
6
CONTINUOUS
10
66.6334
20
-58.2751
11
66.3824
21
-58.3482
0
LINE
8
BLACK
6
CONTINUOUS
10
66.3824
20
-58.3482
11
66.3782
21
-58.3502
0
LINE
8
BLACK
6
CONTINUOUS
10
66.3782
20
-58.3502
11
66.3782
21
-58.3502
0
LINE
8
BLACK
6
CONTINUOUS
10
66.3782
20
-58.3502
11
66.3417
21
-58.367
0
LINE
8
BLACK
6
CONTINUOUS
10
66.3417
20
-58.367
11
66.1451
21
-58.4577
0
LINE
8
BLACK
6
CONTINUOUS
10
66.1451
20
-58.4577
11
66.1061
21
-58.4832
0
LINE
8
BLACK
6
CONTINUOUS
10
66.1061
20
-58.4832
11
65.9304
21
-58.5984
0
LINE
8
BLACK
6
CONTINUOUS
10
65.9304
20
-58.5984
11
65.9304
21
-58.5984
0
LINE
8
BLACK
6
CONTINUOUS
10
65.9304
20
-58.5984
11
65.9265
21
-58.601
0
LINE
8
BLACK
6
CONTINUOUS
10
65.9265
20
-58.601
11
65.7315
21
-58.775
0
LINE
8
BLACK
6
CONTINUOUS
10
65.7315
20
-58.775
11
65.5644
21
-58.976
0
LINE
8
BLACK
6
CONTINUOUS
10
65.5644
20
-58.976
11
65.5619
21
-58.98
0
LINE
8
BLACK
6
CONTINUOUS
10
65.5619
20
-58.98
11
65.4323
21
-59.1936
0
LINE
8
BLACK
6
CONTINUOUS
10
65.4323
20
-59.1936
11
65.4288
21
-59.1994
0
LINE
8
BLACK
6
CONTINUOUS
10
65.4288
20
-59.1994
11
65.3999
21
-59.2682
0
LINE
8
BLACK
6
CONTINUOUS
10
65.3999
20
-59.2682
11
65.3911
21
-59.2892
0
LINE
8
BLACK
6
CONTINUOUS
10
65.3911
20
-59.2892
11
65.3463
21
-59.3443
0
LINE
8
BLACK
6
CONTINUOUS
10
65.3463
20
-59.3443
11
65.2749
21
-59.3665
0
LINE
8
BLACK
6
CONTINUOUS
10
65.2749
20
-59.3665
11
64.0095
21
-59.3665
0
LINE
8
BLACK
6
CONTINUOUS
10
64.0095
20
-59.3665
11
63.9414
21
-59.3465
0
LINE
8
BLACK
6
CONTINUOUS
10
63.9414
20
-59.3465
11
63.8949
21
-59.2928
0
LINE
8
BLACK
6
CONTINUOUS
10
63.8949
20
-59.2928
11
63.8835
21
-59.2405
0
LINE
8
BLACK
6
CONTINUOUS
10
63.8835
20
-59.2405
11
63.8835
21
-55.7025
0
LINE
8
BLACK
6
CONTINUOUS
10
63.8835
20
-55.7025
11
63.9035
21
-55.6344
0
LINE
8
BLACK
6
CONTINUOUS
10
63.9035
20
-55.6344
11
63.9159
21
-55.6182
0
LINE
8
BLACK
6
CONTINUOUS
10
63.9159
20
-55.6182
11
63.989
21
-55.5369
0
LINE
8
BLACK
6
CONTINUOUS
10
63.989
20
-55.5369
11
64.0845
21
-55.3716
0
LINE
8
BLACK
6
CONTINUOUS
10
64.0845
20
-55.3716
11
64.1435
21
-55.1899
0
LINE
8
BLACK
6
CONTINUOUS
10
64.1435
20
-55.1899
11
64.147
21
-55.1569
0
LINE
8
BLACK
6
CONTINUOUS
10
64.147
20
-55.1569
11
64.1628
21
-55.0066
0
LINE
8
BLACK
6
CONTINUOUS
10
64.1628
20
-55.0066
11
64.1635
21
-55
0
LINE
8
BLACK
6
CONTINUOUS
10
64.1635
20
-55
11
64.1474
21
-54.8469
0
LINE
8
BLACK
6
CONTINUOUS
10
64.1474
20
-54.8469
11
64.1442
21
-54.8166
0
LINE
8
BLACK
6
CONTINUOUS
10
64.1442
20
-54.8166
11
64.1442
21
-54.8166
0
LINE
8
BLACK
6
CONTINUOUS
10
64.1442
20
-54.8166
11
64.1435
21
-54.8101
0
LINE
8
BLACK
6
CONTINUOUS
10
64.1435
20
-54.8101
11
64.1415
21
-54.8038
0
LINE
8
BLACK
6
CONTINUOUS
10
64.1415
20
-54.8038
11
64.0845
21
-54.6284
0
LINE
8
BLACK
6
CONTINUOUS
10
64.0845
20
-54.6284
11
63.989
21
-54.4631
0
LINE
8
BLACK
6
CONTINUOUS
10
63.989
20
-54.4631
11
63.8732
21
-54.3344
0
LINE
8
BLACK
6
CONTINUOUS
10
63.8732
20
-54.3344
11
63.8657
21
-54.326
0
LINE
8
BLACK
6
CONTINUOUS
10
63.8657
20
-54.326
11
63.8657
21
-54.326
0
LINE
8
BLACK
6
CONTINUOUS
10
63.8657
20
-54.326
11
63.8613
21
-54.3211
0
LINE
8
BLACK
6
CONTINUOUS
10
63.8613
20
-54.3211
11
63.7068
21
-54.2089
0
LINE
8
BLACK
6
CONTINUOUS
10
63.7068
20
-54.2089
11
63.7007
21
-54.2062
0
LINE
8
BLACK
6
CONTINUOUS
10
63.7007
20
-54.2062
11
63.7007
21
-54.2062
0
LINE
8
BLACK
6
CONTINUOUS
10
63.7007
20
-54.2062
11
63.5383
21
-54.1339
0
LINE
8
BLACK
6
CONTINUOUS
10
63.5383
20
-54.1339
11
63.5383
21
-54.1339
0
LINE
8
BLACK
6
CONTINUOUS
10
63.5383
20
-54.1339
11
63.5323
21
-54.1312
0
LINE
8
BLACK
6
CONTINUOUS
10
63.5323
20
-54.1312
11
63.4389
21
-54.1114
0
LINE
8
BLACK
6
CONTINUOUS
10
63.4389
20
-54.1114
11
63.3519
21
-54.0929
0
LINE
8
BLACK
6
CONTINUOUS
10
63.3519
20
-54.0929
11
63.3519
21
-54.0929
0
LINE
8
BLACK
6
CONTINUOUS
10
63.3519
20
-54.0929
11
63.3455
21
-54.0915
0
LINE
8
BLACK
6
CONTINUOUS
10
63.3455
20
-54.0915
11
63.1545
21
-54.0915
0
LINE
8
BLACK
6
CONTINUOUS
10
63.1545
20
-54.0915
11
63.1481
21
-54.0929
0
LINE
8
BLACK
6
CONTINUOUS
10
63.1481
20
-54.0929
11
63.1481
21
-54.0929
0
LINE
8
BLACK
6
CONTINUOUS
10
63.1481
20
-54.0929
11
63.0611
21
-54.1114
0
LINE
8
BLACK
6
CONTINUOUS
10
63.0611
20
-54.1114
11
62.9677
21
-54.1312
0
LINE
8
BLACK
6
CONTINUOUS
10
62.9677
20
-54.1312
11
62.9617
21
-54.1339
0
LINE
8
BLACK
6
CONTINUOUS
10
62.9617
20
-54.1339
11
62.9617
21
-54.1339
0
LINE
8
BLACK
6
CONTINUOUS
10
62.9617
20
-54.1339
11
62.7993
21
-54.2062
0
LINE
8
BLACK
6
CONTINUOUS
10
62.7993
20
-54.2062
11
62.7993
21
-54.2062
0
LINE
8
BLACK
6
CONTINUOUS
10
62.7993
20
-54.2062
11
62.7932
21
-54.2089
0
LINE
8
BLACK
6
CONTINUOUS
10
62.7932
20
-54.2089
11
62.6387
21
-54.3211
0
LINE
8
BLACK
6
CONTINUOUS
10
62.6387
20
-54.3211
11
62.6343
21
-54.326
0
LINE
8
BLACK
6
CONTINUOUS
10
62.6343
20
-54.326
11
62.6343
21
-54.326
0
LINE
8
BLACK
6
CONTINUOUS
10
62.6343
20
-54.326
11
62.6268
21
-54.3344
0
LINE
8
BLACK
6
CONTINUOUS
10
62.6268
20
-54.3344
11
62.511
21
-54.4631
0
LINE
8
BLACK
6
CONTINUOUS
10
62.511
20
-54.4631
11
62.4155
21
-54.6284
0
LINE
8
BLACK
6
CONTINUOUS
10
62.4155
20
-54.6284
11
62.3565
21
-54.8101
0
LINE
8
BLACK
6
CONTINUOUS
10
62.3565
20
-54.8101
11
62.3558
21
-54.8166
0
LINE
8
BLACK
6
CONTINUOUS
10
62.3558
20
-54.8166
11
62.3558
21
-54.8166
0
LINE
8
BLACK
6
CONTINUOUS
10
62.3558
20
-54.8166
11
62.3526
21
-54.8469
0
LINE
8
BLACK
6
CONTINUOUS
10
62.3526
20
-54.8469
11
62.3365
21
-55
0
LINE
8
BLACK
6
CONTINUOUS
10
62.3365
20
-55
11
62.3372
21
-55.0066
0
LINE
8
BLACK
6
CONTINUOUS
10
62.3372
20
-55.0066
11
62.353
21
-55.1569
0
LINE
8
BLACK
6
CONTINUOUS
10
54.2171
20
-58.769
11
54.4275
21
-58.8254
0
LINE
8
BLACK
6
CONTINUOUS
10
54.4275
20
-58.8254
11
54.625
21
-58.9175
0
LINE
8
BLACK
6
CONTINUOUS
10
54.625
20
-58.9175
11
54.8035
21
-59.0424
0
LINE
8
BLACK
6
CONTINUOUS
10
54.8035
20
-59.0424
11
54.9576
21
-59.1965
0
LINE
8
BLACK
6
CONTINUOUS
10
54.9576
20
-59.1965
11
55.0825
21
-59.375
0
LINE
8
BLACK
6
CONTINUOUS
10
55.0825
20
-59.375
11
55.1746
21
-59.5725
0
LINE
8
BLACK
6
CONTINUOUS
10
55.1746
20
-59.5725
11
55.231
21
-59.7829
0
LINE
8
BLACK
6
CONTINUOUS
10
55.231
20
-59.7829
11
55.25
21
-60
0
LINE
8
BLACK
6
CONTINUOUS
10
55.25
20
-60
11
55.231
21
-60.2171
0
LINE
8
BLACK
6
CONTINUOUS
10
55.231
20
-60.2171
11
55.1746
21
-60.4275
0
LINE
8
BLACK
6
CONTINUOUS
10
55.1746
20
-60.4275
11
55.0825
21
-60.625
0
LINE
8
BLACK
6
CONTINUOUS
10
55.0825
20
-60.625
11
54.9576
21
-60.8035
0
LINE
8
BLACK
6
CONTINUOUS
10
54.9576
20
-60.8035
11
54.8035
21
-60.9576
0
LINE
8
BLACK
6
CONTINUOUS
10
54.8035
20
-60.9576
11
54.625
21
-61.0825
0
LINE
8
BLACK
6
CONTINUOUS
10
54.625
20
-61.0825
11
54.4275
21
-61.1746
0
LINE
8
BLACK
6
CONTINUOUS
10
54.4275
20
-61.1746
11
54.2171
21
-61.231
0
LINE
8
BLACK
6
CONTINUOUS
10
54.2171
20
-61.231
11
54
21
-61.25
0
LINE
8
BLACK
6
CONTINUOUS
10
54
20
-61.25
11
53.7829
21
-61.231
0
LINE
8
BLACK
6
CONTINUOUS
10
53.7829
20
-61.231
11
53.5725
21
-61.1746
0
LINE
8
BLACK
6
CONTINUOUS
10
53.5725
20
-61.1746
11
53.375
21
-61.0825
0
LINE
8
BLACK
6
CONTINUOUS
10
53.375
20
-61.0825
11
53.1965
21
-60.9576
0
LINE
8
BLACK
6
CONTINUOUS
10
53.1965
20
-60.9576
11
53.0424
21
-60.8035
0
LINE
8
BLACK
6
CONTINUOUS
10
53.0424
20
-60.8035
11
52.9175
21
-60.625
0
LINE
8
BLACK
6
CONTINUOUS
10
52.9175
20
-60.625
11
52.8254
21
-60.4275
0
LINE
8
BLACK
6
CONTINUOUS
10
52.8254
20
-60.4275
11
52.769
21
-60.2171
0
LINE
8
BLACK
6
CONTINUOUS
10
52.769
20
-60.2171
11
52.75
21
-60
0
LINE
8
BLACK
6
CONTINUOUS
10
52.75
20
-60
11
52.769
21
-59.7829
0
LINE
8
BLACK
6
CONTINUOUS
10
52.769
20
-59.7829
11
52.8254
21
-59.5725
0
LINE
8
BLACK
6
CONTINUOUS
10
52.8254
20
-59.5725
11
52.9175
21
-59.375
0
LINE
8
BLACK
6
CONTINUOUS
10
52.9175
20
-59.375
11
53.0424
21
-59.1965
0
LINE
8
BLACK
6
CONTINUOUS
10
53.0424
20
-59.1965
11
53.1965
21
-59.0424
0
LINE
8
BLACK
6
CONTINUOUS
10
53.1965
20
-59.0424
11
53.375
21
-58.9175
0
LINE
8
BLACK
6
CONTINUOUS
10
53.375
20
-58.9175
11
53.5725
21
-58.8254
0
LINE
8
BLACK
6
CONTINUOUS
10
53.5725
20
-58.8254
11
53.7829
21
-58.769
0
LINE
8
BLACK
6
CONTINUOUS
10
53.7829
20
-58.769
11
54
21
-58.75
0
LINE
8
BLACK
6
CONTINUOUS
10
54
20
-58.75
11
54.2171
21
-58.769
0
LINE
8
BLACK
6
CONTINUOUS
10
67.2171
20
-53.619
11
67.4275
21
-53.6754
0
LINE
8
BLACK
6
CONTINUOUS
10
67.4275
20
-53.6754
11
67.625
21
-53.7675
0
LINE
8
BLACK
6
CONTINUOUS
10
67.625
20
-53.7675
11
67.8035
21
-53.8924
0
LINE
8
BLACK
6
CONTINUOUS
10
67.8035
20
-53.8924
11
67.9576
21
-54.0465
0
LINE
8
BLACK
6
CONTINUOUS
10
67.9576
20
-54.0465
11
68.0825
21
-54.225
0
LINE
8
BLACK
6
CONTINUOUS
10
68.0825
20
-54.225
11
68.1746
21
-54.4225
0
LINE
8
BLACK
6
CONTINUOUS
10
68.1746
20
-54.4225
11
68.231
21
-54.6329
0
LINE
8
BLACK
6
CONTINUOUS
10
68.231
20
-54.6329
11
68.25
21
-54.85
0
LINE
8
BLACK
6
CONTINUOUS
10
68.25
20
-54.85
11
68.231
21
-55.0671
0
LINE
8
BLACK
6
CONTINUOUS
10
68.231
20
-55.0671
11
68.1746
21
-55.2775
0
LINE
8
BLACK
6
CONTINUOUS
10
68.1746
20
-55.2775
11
68.0825
21
-55.475
0
LINE
8
BLACK
6
CONTINUOUS
10
68.0825
20
-55.475
11
67.9576
21
-55.6535
0
LINE
8
BLACK
6
CONTINUOUS
10
67.9576
20
-55.6535
11
67.8035
21
-55.8076
0
LINE
8
BLACK
6
CONTINUOUS
10
67.8035
20
-55.8076
11
67.625
21
-55.9325
0
LINE
8
BLACK
6
CONTINUOUS
10
67.625
20
-55.9325
11
67.4275
21
-56.0246
0
LINE
8
BLACK
6
CONTINUOUS
10
67.4275
20
-56.0246
11
67.2171
21
-56.081
0
LINE
8
BLACK
6
CONTINUOUS
10
67.2171
20
-56.081
11
67
21
-56.1
0
LINE
8
BLACK
6
CONTINUOUS
10
67
20
-56.1
11
66.7829
21
-56.081
0
LINE
8
BLACK
6
CONTINUOUS
10
66.7829
20
-56.081
11
66.5725
21
-56.0246
0
LINE
8
BLACK
6
CONTINUOUS
10
66.5725
20
-56.0246
11
66.375
21
-55.9325
0
LINE
8
BLACK
6
CONTINUOUS
10
66.375
20
-55.9325
11
66.1965
21
-55.8076
0
LINE
8
BLACK
6
CONTINUOUS
10
66.1965
20
-55.8076
11
66.0424
21
-55.6535
0
LINE
8
BLACK
6
CONTINUOUS
10
66.0424
20
-55.6535
11
65.9175
21
-55.475
0
LINE
8
BLACK
6
CONTINUOUS
10
65.9175
20
-55.475
11
65.8254
21
-55.2775
0
LINE
8
BLACK
6
CONTINUOUS
10
65.8254
20
-55.2775
11
65.769
21
-55.0671
0
LINE
8
BLACK
6
CONTINUOUS
10
65.769
20
-55.0671
11
65.75
21
-54.85
0
LINE
8
BLACK
6
CONTINUOUS
10
65.75
20
-54.85
11
65.769
21
-54.6329
0
LINE
8
BLACK
6
CONTINUOUS
10
65.769
20
-54.6329
11
65.8254
21
-54.4225
0
LINE
8
BLACK
6
CONTINUOUS
10
65.8254
20
-54.4225
11
65.9175
21
-54.225
0
LINE
8
BLACK
6
CONTINUOUS
10
65.9175
20
-54.225
11
66.0424
21
-54.0465
0
LINE
8
BLACK
6
CONTINUOUS
10
66.0424
20
-54.0465
11
66.1965
21
-53.8924
0
LINE
8
BLACK
6
CONTINUOUS
10
66.1965
20
-53.8924
11
66.375
21
-53.7675
0
LINE
8
BLACK
6
CONTINUOUS
10
66.375
20
-53.7675
11
66.5725
21
-53.6754
0
LINE
8
BLACK
6
CONTINUOUS
10
66.5725
20
-53.6754
11
66.7829
21
-53.619
0
LINE
8
BLACK
6
CONTINUOUS
10
66.7829
20
-53.619
11
67
21
-53.6
0
LINE
8
BLACK
6
CONTINUOUS
10
67
20
-53.6
11
67.2171
21
-53.619
0
LINE
8
BLACK
6
CONTINUOUS
10
67.2171
20
-63.919
11
67.4275
21
-63.9754
0
LINE
8
BLACK
6
CONTINUOUS
10
67.4275
20
-63.9754
11
67.625
21
-64.0675
0
LINE
8
BLACK
6
CONTINUOUS
10
67.625
20
-64.0675
11
67.8035
21
-64.1924
0
LINE
8
BLACK
6
CONTINUOUS
10
67.8035
20
-64.1924
11
67.9576
21
-64.3465
0
LINE
8
BLACK
6
CONTINUOUS
10
67.9576
20
-64.3465
11
68.0825
21
-64.525
0
LINE
8
BLACK
6
CONTINUOUS
10
68.0825
20
-64.525
11
68.1746
21
-64.7225
0
LINE
8
BLACK
6
CONTINUOUS
10
68.1746
20
-64.7225
11
68.231
21
-64.9329
0
LINE
8
BLACK
6
CONTINUOUS
10
68.231
20
-64.9329
11
68.25
21
-65.15
0
LINE
8
BLACK
6
CONTINUOUS
10
68.25
20
-65.15
11
68.231
21
-65.3671
0
LINE
8
BLACK
6
CONTINUOUS
10
68.231
20
-65.3671
11
68.1746
21
-65.5775
0
LINE
8
BLACK
6
CONTINUOUS
10
68.1746
20
-65.5775
11
68.0825
21
-65.775
0
LINE
8
BLACK
6
CONTINUOUS
10
68.0825
20
-65.775
11
67.9576
21
-65.9535
0
LINE
8
BLACK
6
CONTINUOUS
10
67.9576
20
-65.9535
11
67.8035
21
-66.1076
0
LINE
8
BLACK
6
CONTINUOUS
10
67.8035
20
-66.1076
11
67.625
21
-66.2325
0
LINE
8
BLACK
6
CONTINUOUS
10
67.625
20
-66.2325
11
67.4275
21
-66.3246
0
LINE
8
BLACK
6
CONTINUOUS
10
67.4275
20
-66.3246
11
67.2171
21
-66.381
0
LINE
8
BLACK
6
CONTINUOUS
10
67.2171
20
-66.381
11
67.125
21
-66.3891
0
LINE
8
BLACK
6
CONTINUOUS
10
67.125
20
-66.3891
11
67.125
21
-67
0
LINE
8
BLACK
6
CONTINUOUS
10
67.125
20
-67
11
67.1199
21
-67.0355
0
LINE
8
BLACK
6
CONTINUOUS
10
67.1199
20
-67.0355
11
67.115
21
-67.0431
0
LINE
8
BLACK
6
CONTINUOUS
10
67.115
20
-67.0431
11
67.1137
21
-67.052
0
LINE
8
BLACK
6
CONTINUOUS
10
67.1137
20
-67.052
11
67.0962
21
-67.0722
0
LINE
8
BLACK
6
CONTINUOUS
10
67.0962
20
-67.0722
11
67.0817
21
-67.0946
0
LINE
8
BLACK
6
CONTINUOUS
10
67.0817
20
-67.0946
11
67.0735
21
-67.0984
0
LINE
8
BLACK
6
CONTINUOUS
10
67.0735
20
-67.0984
11
67.0675
21
-67.1052
0
LINE
8
BLACK
6
CONTINUOUS
10
67.0675
20
-67.1052
11
67.0419
21
-67.1127
0
LINE
8
BLACK
6
CONTINUOUS
10
67.0419
20
-67.1127
11
67.0176
21
-67.1238
0
LINE
8
BLACK
6
CONTINUOUS
10
67.0176
20
-67.1238
11
67.0087
21
-67.1225
0
LINE
8
BLACK
6
CONTINUOUS
10
67.0087
20
-67.1225
11
67
21
-67.125
0
LINE
8
BLACK
6
CONTINUOUS
10
67
20
-67.125
11
56.8797
21
-67.125
0
LINE
8
BLACK
6
CONTINUOUS
10
56.8797
20
-67.125
11
56.8236
21
-67.2351
0
LINE
8
BLACK
6
CONTINUOUS
10
56.8236
20
-67.2351
11
56.7351
21
-67.3236
0
LINE
8
BLACK
6
CONTINUOUS
10
56.7351
20
-67.3236
11
56.6236
21
-67.3804
0
LINE
8
BLACK
6
CONTINUOUS
10
56.6236
20
-67.3804
11
56.5
21
-67.4
0
LINE
8
BLACK
6
CONTINUOUS
10
56.5
20
-67.4
11
56.3764
21
-67.3804
0
LINE
8
BLACK
6
CONTINUOUS
10
56.3764
20
-67.3804
11
56.2649
21
-67.3236
0
LINE
8
BLACK
6
CONTINUOUS
10
56.2649
20
-67.3236
11
56.1764
21
-67.2351
0
LINE
8
BLACK
6
CONTINUOUS
10
56.1764
20
-67.2351
11
56.1196
21
-67.1236
0
LINE
8
BLACK
6
CONTINUOUS
10
56.1196
20
-67.1236
11
56.1
21
-67
0
LINE
8
BLACK
6
CONTINUOUS
10
56.1
20
-67
11
56.1196
21
-66.8764
0
LINE
8
BLACK
6
CONTINUOUS
10
56.1196
20
-66.8764
11
56.1764
21
-66.7649
0
LINE
8
BLACK
6
CONTINUOUS
10
56.1764
20
-66.7649
11
56.2649
21
-66.6764
0
LINE
8
BLACK
6
CONTINUOUS
10
56.2649
20
-66.6764
11
56.3764
21
-66.6196
0
LINE
8
BLACK
6
CONTINUOUS
10
56.3764
20
-66.6196
11
56.5
21
-66.6
0
LINE
8
BLACK
6
CONTINUOUS
10
56.5
20
-66.6
11
56.6236
21
-66.6196
0
LINE
8
BLACK
6
CONTINUOUS
10
56.6236
20
-66.6196
11
56.7351
21
-66.6764
0
LINE
8
BLACK
6
CONTINUOUS
10
56.7351
20
-66.6764
11
56.8236
21
-66.7649
0
LINE
8
BLACK
6
CONTINUOUS
10
56.8236
20
-66.7649
11
56.8797
21
-66.875
0
LINE
8
BLACK
6
CONTINUOUS
10
56.8797
20
-66.875
11
66.875
21
-66.875
0
LINE
8
BLACK
6
CONTINUOUS
10
66.875
20
-66.875
11
66.875
21
-66.3891
0
LINE
8
BLACK
6
CONTINUOUS
10
66.875
20
-66.3891
11
66.7829
21
-66.381
0
LINE
8
BLACK
6
CONTINUOUS
10
66.7829
20
-66.381
11
66.5725
21
-66.3246
0
LINE
8
BLACK
6
CONTINUOUS
10
66.5725
20
-66.3246
11
66.375
21
-66.2325
0
LINE
8
BLACK
6
CONTINUOUS
10
66.375
20
-66.2325
11
66.1965
21
-66.1076
0
LINE
8
BLACK
6
CONTINUOUS
10
66.1965
20
-66.1076
11
66.0424
21
-65.9535
0
LINE
8
BLACK
6
CONTINUOUS
10
66.0424
20
-65.9535
11
65.9175
21
-65.775
0
LINE
8
BLACK
6
CONTINUOUS
10
65.9175
20
-65.775
11
65.8254
21
-65.5775
0
LINE
8
BLACK
6
CONTINUOUS
10
65.8254
20
-65.5775
11
65.769
21
-65.3671
0
LINE
8
BLACK
6
CONTINUOUS
10
65.769
20
-65.3671
11
65.75
21
-65.15
0
LINE
8
BLACK
6
CONTINUOUS
10
65.75
20
-65.15
11
65.769
21
-64.9329
0
LINE
8
BLACK
6
CONTINUOUS
10
65.769
20
-64.9329
11
65.8254
21
-64.7225
0
LINE
8
BLACK
6
CONTINUOUS
10
65.8254
20
-64.7225
11
65.9175
21
-64.525
0
LINE
8
BLACK
6
CONTINUOUS
10
65.9175
20
-64.525
11
66.0424
21
-64.3465
0
LINE
8
BLACK
6
CONTINUOUS
10
66.0424
20
-64.3465
11
66.1965
21
-64.1924
0
LINE
8
BLACK
6
CONTINUOUS
10
66.1965
20
-64.1924
11
66.375
21
-64.0675
0
LINE
8
BLACK
6
CONTINUOUS
10
66.375
20
-64.0675
11
66.5725
21
-63.9754
0
LINE
8
BLACK
6
CONTINUOUS
10
66.5725
20
-63.9754
11
66.7829
21
-63.919
0
LINE
8
BLACK
6
CONTINUOUS
10
66.7829
20
-63.919
11
67
21
-63.9
0
LINE
8
BLACK
6
CONTINUOUS
10
67
20
-63.9
11
67.2171
21
-63.919
0
LINE
8
BLACK
6
CONTINUOUS
10
59.2858
20
-64.1203
11
59.4625
21
-64.1989
0
LINE
8
BLACK
6
CONTINUOUS
10
59.4625
20
-64.1989
11
59.6189
21
-64.3126
0
LINE
8
BLACK
6
CONTINUOUS
10
59.6189
20
-64.3126
11
59.7483
21
-64.4563
0
LINE
8
BLACK
6
CONTINUOUS
10
59.7483
20
-64.4563
11
59.845
21
-64.6238
0
LINE
8
BLACK
6
CONTINUOUS
10
59.845
20
-64.6238
11
59.9048
21
-64.8077
0
LINE
8
BLACK
6
CONTINUOUS
10
59.9048
20
-64.8077
11
59.925
21
-65
0
LINE
8
BLACK
6
CONTINUOUS
10
59.925
20
-65
11
59.9048
21
-65.1923
0
LINE
8
BLACK
6
CONTINUOUS
10
59.9048
20
-65.1923
11
59.845
21
-65.3762
0
LINE
8
BLACK
6
CONTINUOUS
10
59.845
20
-65.3762
11
59.7483
21
-65.5437
0
LINE
8
BLACK
6
CONTINUOUS
10
59.7483
20
-65.5437
11
59.6189
21
-65.6874
0
LINE
8
BLACK
6
CONTINUOUS
10
59.6189
20
-65.6874
11
59.4625
21
-65.8011
0
LINE
8
BLACK
6
CONTINUOUS
10
59.4625
20
-65.8011
11
59.2858
21
-65.8797
0
LINE
8
BLACK
6
CONTINUOUS
10
59.2858
20
-65.8797
11
59.0967
21
-65.9199
0
LINE
8
BLACK
6
CONTINUOUS
10
59.0967
20
-65.9199
11
58.9033
21
-65.9199
0
LINE
8
BLACK
6
CONTINUOUS
10
58.9033
20
-65.9199
11
58.7142
21
-65.8797
0
LINE
8
BLACK
6
CONTINUOUS
10
58.7142
20
-65.8797
11
58.5375
21
-65.8011
0
LINE
8
BLACK
6
CONTINUOUS
10
58.5375
20
-65.8011
11
58.3811
21
-65.6874
0
LINE
8
BLACK
6
CONTINUOUS
10
58.3811
20
-65.6874
11
58.2517
21
-65.5437
0
LINE
8
BLACK
6
CONTINUOUS
10
58.2517
20
-65.5437
11
58.155
21
-65.3762
0
LINE
8
BLACK
6
CONTINUOUS
10
58.155
20
-65.3762
11
58.0952
21
-65.1923
0
LINE
8
BLACK
6
CONTINUOUS
10
58.0952
20
-65.1923
11
58.075
21
-65
0
LINE
8
BLACK
6
CONTINUOUS
10
58.075
20
-65
11
58.0952
21
-64.8077
0
LINE
8
BLACK
6
CONTINUOUS
10
58.0952
20
-64.8077
11
58.155
21
-64.6238
0
LINE
8
BLACK
6
CONTINUOUS
10
58.155
20
-64.6238
11
58.2517
21
-64.4563
0
LINE
8
BLACK
6
CONTINUOUS
10
58.2517
20
-64.4563
11
58.3811
21
-64.3126
0
LINE
8
BLACK
6
CONTINUOUS
10
58.3811
20
-64.3126
11
58.5375
21
-64.1989
0
LINE
8
BLACK
6
CONTINUOUS
10
58.5375
20
-64.1989
11
58.7142
21
-64.1203
0
LINE
8
BLACK
6
CONTINUOUS
10
58.7142
20
-64.1203
11
58.9033
21
-64.0801
0
LINE
8
BLACK
6
CONTINUOUS
10
58.9033
20
-64.0801
11
59.0967
21
-64.0801
0
LINE
8
BLACK
6
CONTINUOUS
10
59.0967
20
-64.0801
11
59.2858
21
-64.1203
0
LINE
8
BLACK
6
CONTINUOUS
10
59.2858
20
-61.6203
11
59.4625
21
-61.6989
0
LINE
8
BLACK
6
CONTINUOUS
10
59.4625
20
-61.6989
11
59.6189
21
-61.8126
0
LINE
8
BLACK
6
CONTINUOUS
10
59.6189
20
-61.8126
11
59.7483
21
-61.9563
0
LINE
8
BLACK
6
CONTINUOUS
10
59.7483
20
-61.9563
11
59.845
21
-62.1238
0
LINE
8
BLACK
6
CONTINUOUS
10
59.845
20
-62.1238
11
59.9048
21
-62.3077
0
LINE
8
BLACK
6
CONTINUOUS
10
59.9048
20
-62.3077
11
59.925
21
-62.5
0
LINE
8
BLACK
6
CONTINUOUS
10
59.925
20
-62.5
11
59.9048
21
-62.6923
0
LINE
8
BLACK
6
CONTINUOUS
10
59.9048
20
-62.6923
11
59.845
21
-62.8762
0
LINE
8
BLACK
6
CONTINUOUS
10
59.845
20
-62.8762
11
59.7483
21
-63.0437
0
LINE
8
BLACK
6
CONTINUOUS
10
59.7483
20
-63.0437
11
59.6189
21
-63.1874
0
LINE
8
BLACK
6
CONTINUOUS
10
59.6189
20
-63.1874
11
59.4625
21
-63.3011
0
LINE
8
BLACK
6
CONTINUOUS
10
59.4625
20
-63.3011
11
59.2858
21
-63.3797
0
LINE
8
BLACK
6
CONTINUOUS
10
59.2858
20
-63.3797
11
59.0967
21
-63.4199
0
LINE
8
BLACK
6
CONTINUOUS
10
59.0967
20
-63.4199
11
58.9033
21
-63.4199
0
LINE
8
BLACK
6
CONTINUOUS
10
58.9033
20
-63.4199
11
58.7142
21
-63.3797
0
LINE
8
BLACK
6
CONTINUOUS
10
58.7142
20
-63.3797
11
58.5375
21
-63.3011
0
LINE
8
BLACK
6
CONTINUOUS
10
58.5375
20
-63.3011
11
58.3811
21
-63.1874
0
LINE
8
BLACK
6
CONTINUOUS
10
58.3811
20
-63.1874
11
58.2517
21
-63.0437
0
LINE
8
BLACK
6
CONTINUOUS
10
58.2517
20
-63.0437
11
58.155
21
-62.8762
0
LINE
8
BLACK
6
CONTINUOUS
10
58.155
20
-62.8762
11
58.0952
21
-62.6923
0
LINE
8
BLACK
6
CONTINUOUS
10
58.0952
20
-62.6923
11
58.075
21
-62.5
0
LINE
8
BLACK
6
CONTINUOUS
10
58.075
20
-62.5
11
58.0952
21
-62.3077
0
LINE
8
BLACK
6
CONTINUOUS
10
58.0952
20
-62.3077
11
58.155
21
-62.1238
0
LINE
8
BLACK
6
CONTINUOUS
10
58.155
20
-62.1238
11
58.2517
21
-61.9563
0
LINE
8
BLACK
6
CONTINUOUS
10
58.2517
20
-61.9563
11
58.3811
21
-61.8126
0
LINE
8
BLACK
6
CONTINUOUS
10
58.3811
20
-61.8126
11
58.5375
21
-61.6989
0
LINE
8
BLACK
6
CONTINUOUS
10
58.5375
20
-61.6989
11
58.7142
21
-61.6203
0
LINE
8
BLACK
6
CONTINUOUS
10
58.7142
20
-61.6203
11
58.9033
21
-61.5801
0
LINE
8
BLACK
6
CONTINUOUS
10
58.9033
20
-61.5801
11
59.0967
21
-61.5801
0
LINE
8
BLACK
6
CONTINUOUS
10
59.0967
20
-61.5801
11
59.2858
21
-61.6203
0
LINE
8
BLACK
6
CONTINUOUS
10
59.2858
20
-56.6203
11
59.4625
21
-56.6989
0
LINE
8
BLACK
6
CONTINUOUS
10
59.4625
20
-56.6989
11
59.6189
21
-56.8126
0
LINE
8
BLACK
6
CONTINUOUS
10
59.6189
20
-56.8126
11
59.7483
21
-56.9563
0
LINE
8
BLACK
6
CONTINUOUS
10
59.7483
20
-56.9563
11
59.845
21
-57.1238
0
LINE
8
BLACK
6
CONTINUOUS
10
59.845
20
-57.1238
11
59.9048
21
-57.3077
0
LINE
8
BLACK
6
CONTINUOUS
10
59.9048
20
-57.3077
11
59.925
21
-57.5
0
LINE
8
BLACK
6
CONTINUOUS
10
59.925
20
-57.5
11
59.9048
21
-57.6923
0
LINE
8
BLACK
6
CONTINUOUS
10
59.9048
20
-57.6923
11
59.845
21
-57.8762
0
LINE
8
BLACK
6
CONTINUOUS
10
59.845
20
-57.8762
11
59.7483
21
-58.0437
0
LINE
8
BLACK
6
CONTINUOUS
10
59.7483
20
-58.0437
11
59.6189
21
-58.1874
0
LINE
8
BLACK
6
CONTINUOUS
10
59.6189
20
-58.1874
11
59.4625
21
-58.3011
0
LINE
8
BLACK
6
CONTINUOUS
10
59.4625
20
-58.3011
11
59.2858
21
-58.3797
0
LINE
8
BLACK
6
CONTINUOUS
10
59.2858
20
-58.3797
11
59.0967
21
-58.4199
0
LINE
8
BLACK
6
CONTINUOUS
10
59.0967
20
-58.4199
11
58.9033
21
-58.4199
0
LINE
8
BLACK
6
CONTINUOUS
10
58.9033
20
-58.4199
11
58.7142
21
-58.3797
0
LINE
8
BLACK
6
CONTINUOUS
10
58.7142
20
-58.3797
11
58.5375
21
-58.3011
0
LINE
8
BLACK
6
CONTINUOUS
10
58.5375
20
-58.3011
11
58.3811
21
-58.1874
0
LINE
8
BLACK
6
CONTINUOUS
10
58.3811
20
-58.1874
11
58.2517
21
-58.0437
0
LINE
8
BLACK
6
CONTINUOUS
10
58.2517
20
-58.0437
11
58.155
21
-57.8762
0
LINE
8
BLACK
6
CONTINUOUS
10
58.155
20
-57.8762
11
58.0952
21
-57.6923
0
LINE
8
BLACK
6
CONTINUOUS
10
58.0952
20
-57.6923
11
58.075
21
-57.5
0
LINE
8
BLACK
6
CONTINUOUS
10
58.075
20
-57.5
11
58.0952
21
-57.3077
0
LINE
8
BLACK
6
CONTINUOUS
10
58.0952
20
-57.3077
11
58.155
21
-57.1238
0
LINE
8
BLACK
6
CONTINUOUS
10
58.155
20
-57.1238
11
58.2517
21
-56.9563
0
LINE
8
BLACK
6
CONTINUOUS
10
58.2517
20
-56.9563
11
58.3811
21
-56.8126
0
LINE
8
BLACK
6
CONTINUOUS
10
58.3811
20
-56.8126
11
58.5375
21
-56.6989
0
LINE
8
BLACK
6
CONTINUOUS
10
58.5375
20
-56.6989
11
58.7142
21
-56.6203
0
LINE
8
BLACK
6
CONTINUOUS
10
58.7142
20
-56.6203
11
58.9033
21
-56.5801
0
LINE
8
BLACK
6
CONTINUOUS
10
58.9033
20
-56.5801
11
59.0967
21
-56.5801
0
LINE
8
BLACK
6
CONTINUOUS
10
59.0967
20
-56.5801
11
59.2858
21
-56.6203
0
LINE
8
BLACK
6
CONTINUOUS
10
59.2171
20
-53.769
11
59.4275
21
-53.8254
0
LINE
8
BLACK
6
CONTINUOUS
10
59.4275
20
-53.8254
11
59.625
21
-53.9175
0
LINE
8
BLACK
6
CONTINUOUS
10
59.625
20
-53.9175
11
59.8035
21
-54.0424
0
LINE
8
BLACK
6
CONTINUOUS
10
59.8035
20
-54.0424
11
59.9576
21
-54.1965
0
LINE
8
BLACK
6
CONTINUOUS
10
59.9576
20
-54.1965
11
60.0825
21
-54.375
0
LINE
8
BLACK
6
CONTINUOUS
10
60.0825
20
-54.375
11
60.1746
21
-54.5725
0
LINE
8
BLACK
6
CONTINUOUS
10
60.1746
20
-54.5725
11
60.231
21
-54.7829
0
LINE
8
BLACK
6
CONTINUOUS
10
60.231
20
-54.7829
11
60.25
21
-55
0
LINE
8
BLACK
6
CONTINUOUS
10
60.25
20
-55
11
60.231
21
-55.2171
0
LINE
8
BLACK
6
CONTINUOUS
10
60.231
20
-55.2171
11
60.1746
21
-55.4275
0
LINE
8
BLACK
6
CONTINUOUS
10
60.1746
20
-55.4275
11
60.0825
21
-55.625
0
LINE
8
BLACK
6
CONTINUOUS
10
60.0825
20
-55.625
11
59.9576
21
-55.8035
0
LINE
8
BLACK
6
CONTINUOUS
10
59.9576
20
-55.8035
11
59.8035
21
-55.9576
0
LINE
8
BLACK
6
CONTINUOUS
10
59.8035
20
-55.9576
11
59.625
21
-56.0825
0
LINE
8
BLACK
6
CONTINUOUS
10
59.625
20
-56.0825
11
59.4275
21
-56.1746
0
LINE
8
BLACK
6
CONTINUOUS
10
59.4275
20
-56.1746
11
59.2171
21
-56.231
0
LINE
8
BLACK
6
CONTINUOUS
10
59.2171
20
-56.231
11
59
21
-56.25
0
LINE
8
BLACK
6
CONTINUOUS
10
59
20
-56.25
11
58.7829
21
-56.231
0
LINE
8
BLACK
6
CONTINUOUS
10
58.7829
20
-56.231
11
58.5725
21
-56.1746
0
LINE
8
BLACK
6
CONTINUOUS
10
58.5725
20
-56.1746
11
58.375
21
-56.0825
0
LINE
8
BLACK
6
CONTINUOUS
10
58.375
20
-56.0825
11
58.1965
21
-55.9576
0
LINE
8
BLACK
6
CONTINUOUS
10
58.1965
20
-55.9576
11
58.0424
21
-55.8035
0
LINE
8
BLACK
6
CONTINUOUS
10
58.0424
20
-55.8035
11
57.9175
21
-55.625
0
LINE
8
BLACK
6
CONTINUOUS
10
57.9175
20
-55.625
11
57.8254
21
-55.4275
0
LINE
8
BLACK
6
CONTINUOUS
10
57.8254
20
-55.4275
11
57.769
21
-55.2171
0
LINE
8
BLACK
6
CONTINUOUS
10
57.769
20
-55.2171
11
57.75
21
-55
0
LINE
8
BLACK
6
CONTINUOUS
10
57.75
20
-55
11
57.769
21
-54.7829
0
LINE
8
BLACK
6
CONTINUOUS
10
57.769
20
-54.7829
11
57.8254
21
-54.5725
0
LINE
8
BLACK
6
CONTINUOUS
10
57.8254
20
-54.5725
11
57.9175
21
-54.375
0
LINE
8
BLACK
6
CONTINUOUS
10
57.9175
20
-54.375
11
58.0424
21
-54.1965
0
LINE
8
BLACK
6
CONTINUOUS
10
58.0424
20
-54.1965
11
58.1965
21
-54.0424
0
LINE
8
BLACK
6
CONTINUOUS
10
58.1965
20
-54.0424
11
58.375
21
-53.9175
0
LINE
8
BLACK
6
CONTINUOUS
10
58.375
20
-53.9175
11
58.5725
21
-53.8254
0
LINE
8
BLACK
6
CONTINUOUS
10
58.5725
20
-53.8254
11
58.7829
21
-53.769
0
LINE
8
BLACK
6
CONTINUOUS
10
58.7829
20
-53.769
11
59
21
-53.75
0
LINE
8
BLACK
6
CONTINUOUS
10
59
20
-53.75
11
59.2171
21
-53.769
0
LINE
8
BLACK
6
CONTINUOUS
10
63.3736
20
-54.6196
11
63.4851
21
-54.6764
0
LINE
8
BLACK
6
CONTINUOUS
10
63.4851
20
-54.6764
11
63.5736
21
-54.7649
0
LINE
8
BLACK
6
CONTINUOUS
10
63.5736
20
-54.7649
11
63.6304
21
-54.8764
0
LINE
8
BLACK
6
CONTINUOUS
10
63.6304
20
-54.8764
11
63.65
21
-55
0
LINE
8
BLACK
6
CONTINUOUS
10
63.65
20
-55
11
63.6304
21
-55.1236
0
LINE
8
BLACK
6
CONTINUOUS
10
63.6304
20
-55.1236
11
63.5736
21
-55.2351
0
LINE
8
BLACK
6
CONTINUOUS
10
63.5736
20
-55.2351
11
63.4851
21
-55.3236
0
LINE
8
BLACK
6
CONTINUOUS
10
63.4851
20
-55.3236
11
63.375
21
-55.3797
0
LINE
8
BLACK
6
CONTINUOUS
10
63.375
20
-55.3797
11
63.375
21
-59.875
0
LINE
8
BLACK
6
CONTINUOUS
10
63.375
20
-59.875
11
65.7609
21
-59.875
0
LINE
8
BLACK
6
CONTINUOUS
10
65.7609
20
-59.875
11
65.769
21
-59.7829
0
LINE
8
BLACK
6
CONTINUOUS
10
65.769
20
-59.7829
11
65.8254
21
-59.5725
0
LINE
8
BLACK
6
CONTINUOUS
10
65.8254
20
-59.5725
11
65.9175
21
-59.375
0
LINE
8
BLACK
6
CONTINUOUS
10
65.9175
20
-59.375
11
66.0424
21
-59.1965
0
LINE
8
BLACK
6
CONTINUOUS
10
66.0424
20
-59.1965
11
66.1965
21
-59.0424
0
LINE
8
BLACK
6
CONTINUOUS
10
66.1965
20
-59.0424
11
66.375
21
-58.9175
0
LINE
8
BLACK
6
CONTINUOUS
10
66.375
20
-58.9175
11
66.5725
21
-58.8254
0
LINE
8
BLACK
6
CONTINUOUS
10
66.5725
20
-58.8254
11
66.7829
21
-58.769
0
LINE
8
BLACK
6
CONTINUOUS
10
66.7829
20
-58.769
11
67
21
-58.75
0
LINE
8
BLACK
6
CONTINUOUS
10
67
20
-58.75
11
67.2171
21
-58.769
0
LINE
8
BLACK
6
CONTINUOUS
10
67.2171
20
-58.769
11
67.4275
21
-58.8254
0
LINE
8
BLACK
6
CONTINUOUS
10
67.4275
20
-58.8254
11
67.625
21
-58.9175
0
LINE
8
BLACK
6
CONTINUOUS
10
67.625
20
-58.9175
11
67.8035
21
-59.0424
0
LINE
8
BLACK
6
CONTINUOUS
10
67.8035
20
-59.0424
11
67.9576
21
-59.1965
0
LINE
8
BLACK
6
CONTINUOUS
10
67.9576
20
-59.1965
11
68.0825
21
-59.375
0
LINE
8
BLACK
6
CONTINUOUS
10
68.0825
20
-59.375
11
68.1746
21
-59.5725
0
LINE
8
BLACK
6
CONTINUOUS
10
68.1746
20
-59.5725
11
68.231
21
-59.7829
0
LINE
8
BLACK
6
CONTINUOUS
10
68.231
20
-59.7829
11
68.25
21
-60
0
LINE
8
BLACK
6
CONTINUOUS
10
68.25
20
-60
11
68.231
21
-60.2171
0
LINE
8
BLACK
6
CONTINUOUS
10
68.231
20
-60.2171
11
68.1746
21
-60.4275
0
LINE
8
BLACK
6
CONTINUOUS
10
68.1746
20
-60.4275
11
68.0825
21
-60.625
0
LINE
8
BLACK
6
CONTINUOUS
10
68.0825
20
-60.625
11
67.9576
21
-60.8035
0
LINE
8
BLACK
6
CONTINUOUS
10
67.9576
20
-60.8035
11
67.8035
21
-60.9576
0
LINE
8
BLACK
6
CONTINUOUS
10
67.8035
20
-60.9576
11
67.625
21
-61.0825
0
LINE
8
BLACK
6
CONTINUOUS
10
67.625
20
-61.0825
11
67.4275
21
-61.1746
0
LINE
8
BLACK
6
CONTINUOUS
10
67.4275
20
-61.1746
11
67.2171
21
-61.231
0
LINE
8
BLACK
6
CONTINUOUS
10
67.2171
20
-61.231
11
67
21
-61.25
0
LINE
8
BLACK
6
CONTINUOUS
10
67
20
-61.25
11
66.7829
21
-61.231
0
LINE
8
BLACK
6
CONTINUOUS
10
66.7829
20
-61.231
11
66.5725
21
-61.1746
0
LINE
8
BLACK
6
CONTINUOUS
10
66.5725
20
-61.1746
11
66.375
21
-61.0825
0
LINE
8
BLACK
6
CONTINUOUS
10
66.375
20
-61.0825
11
66.1965
21
-60.9576
0
LINE
8
BLACK
6
CONTINUOUS
10
66.1965
20
-60.9576
11
66.0424
21
-60.8035
0
LINE
8
BLACK
6
CONTINUOUS
10
66.0424
20
-60.8035
11
65.9175
21
-60.625
0
LINE
8
BLACK
6
CONTINUOUS
10
65.9175
20
-60.625
11
65.8254
21
-60.4275
0
LINE
8
BLACK
6
CONTINUOUS
10
65.8254
20
-60.4275
11
65.769
21
-60.2171
0
LINE
8
BLACK
6
CONTINUOUS
10
65.769
20
-60.2171
11
65.7609
21
-60.125
0
LINE
8
BLACK
6
CONTINUOUS
10
65.7609
20
-60.125
11
63.25
21
-60.125
0
LINE
8
BLACK
6
CONTINUOUS
10
63.25
20
-60.125
11
63.2145
21
-60.1199
0
LINE
8
BLACK
6
CONTINUOUS
10
63.2145
20
-60.1199
11
63.2069
21
-60.115
0
LINE
8
BLACK
6
CONTINUOUS
10
63.2069
20
-60.115
11
63.198
21
-60.1137
0
LINE
8
BLACK
6
CONTINUOUS
10
63.198
20
-60.1137
11
63.1778
21
-60.0962
0
LINE
8
BLACK
6
CONTINUOUS
10
63.1778
20
-60.0962
11
63.1554
21
-60.0817
0
LINE
8
BLACK
6
CONTINUOUS
10
63.1554
20
-60.0817
11
63.1516
21
-60.0735
0
LINE
8
BLACK
6
CONTINUOUS
10
63.1516
20
-60.0735
11
63.1448
21
-60.0675
0
LINE
8
BLACK
6
CONTINUOUS
10
63.1448
20
-60.0675
11
63.1373
21
-60.0419
0
LINE
8
BLACK
6
CONTINUOUS
10
63.1373
20
-60.0419
11
63.1262
21
-60.0176
0
LINE
8
BLACK
6
CONTINUOUS
10
63.1262
20
-60.0176
11
63.1275
21
-60.0087
0
LINE
8
BLACK
6
CONTINUOUS
10
63.1275
20
-60.0087
11
63.125
21
-60
0
LINE
8
BLACK
6
CONTINUOUS
10
63.125
20
-60
11
63.125
21
-55.3797
0
LINE
8
BLACK
6
CONTINUOUS
10
63.125
20
-55.3797
11
63.0149
21
-55.3236
0
LINE
8
BLACK
6
CONTINUOUS
10
63.0149
20
-55.3236
11
62.9264
21
-55.2351
0
LINE
8
BLACK
6
CONTINUOUS
10
62.9264
20
-55.2351
11
62.8696
21
-55.1236
0
LINE
8
BLACK
6
CONTINUOUS
10
62.8696
20
-55.1236
11
62.85
21
-55
0
LINE
8
BLACK
6
CONTINUOUS
10
62.85
20
-55
11
62.8696
21
-54.8764
0
LINE
8
BLACK
6
CONTINUOUS
10
62.8696
20
-54.8764
11
62.9264
21
-54.7649
0
LINE
8
BLACK
6
CONTINUOUS
10
62.9264
20
-54.7649
11
63.0149
21
-54.6764
0
LINE
8
BLACK
6
CONTINUOUS
10
63.0149
20
-54.6764
11
63.1264
21
-54.6196
0
LINE
8
BLACK
6
CONTINUOUS
10
63.1264
20
-54.6196
11
63.25
21
-54.6
0
LINE
8
BLACK
6
CONTINUOUS
10
63.25
20
-54.6
11
63.3736
21
-54.6196
0
CIRCLE
8
BLACK
10
59
20
-55
40
0.575
0
CIRCLE
8
BLACK
10
54
20
-60
40
0.575
0
CIRCLE
8
BLACK
10
59
20
-62.5
40
0.575
0
CIRCLE
8
BLACK
10
59
20
-57.5
40
0.575
0
CIRCLE
8
BLACK
10
59
20
-65
40
0.575
0
CIRCLE
8
BLACK
10
59
20
-60
40
0.6
0
CIRCLE
8
BLACK
10
51.5
20
-65
40
0.6
0
CIRCLE
8
BLACK
10
54
20
-65
40
0.6
0
CIRCLE
8
BLACK
10
51.5
20
-55
40
0.6
0
CIRCLE
8
BLACK
10
54
20
-55
40
0.6
0
CIRCLE
8
BLACK
10
67
20
-54.85
40
0.381
0
CIRCLE
8
BLACK
10
67
20
-65.15
40
0.381
0
CIRCLE
8
BLACK
10
67
20
-60
40
0.381
0
CIRCLE
8
BLACK
10
56.5
20
-67
40
0.2
0
CIRCLE
8
BLACK
10
63.25
20
-55
40
0.2
  0
ENDSEC
  0
EOF
